<ttFont>
    <TTGlyph name=".notdef" xMin="48" yMin="0" xMax="588" yMax="922">
      <contour>
        <pt x="48" y="922" on="1"/>
        <pt x="588" y="922" on="1"/>
        <pt x="588" y="0" on="1"/>
        <pt x="48" y="0" on="1"/>
      </contour>
      <contour>
        <pt x="249" y="189" on="1"/>
        <pt x="291" y="286" on="1"/>
        <pt x="318" y="361" on="1"/>
        <pt x="345" y="286" on="1"/>
        <pt x="387" y="189" on="1"/>
        <pt x="495" y="189" on="1"/>
        <pt x="367" y="448" on="1"/>
        <pt x="495" y="703" on="1"/>
        <pt x="381" y="703" on="1"/>
        <pt x="340" y="606" on="1"/>
        <pt x="317" y="540" on="1"/>
        <pt x="295" y="606" on="1"/>
        <pt x="255" y="703" on="1"/>
        <pt x="141" y="703" on="1"/>
        <pt x="269" y="449" on="1"/>
        <pt x="141" y="189" on="1"/>
      </contour>
    </TTGlyph>
    <TTGlyph name="A" xMin="-82" yMin="-47" xMax="639" yMax="704">
      <contour>
        <pt x="202" y="256" on="1"/>
        <pt x="91" y="114" on="0"/>
        <pt x="27" y="-29" on="1"/>
        <pt x="-82" y="72" on="1"/>
        <pt x="-17" y="194" on="0"/>
        <pt x="89" y="327" on="1"/>
        <pt x="29" y="361" on="1"/>
        <pt x="115" y="469" on="1"/>
        <pt x="180" y="433" on="1"/>
        <pt x="302" y="563" on="0"/>
        <pt x="416" y="649" on="1"/>
        <pt x="490" y="582" on="1"/>
        <pt x="505" y="644" on="0"/>
        <pt x="514" y="704" on="1"/>
        <pt x="639" y="596" on="1"/>
        <pt x="580" y="296" on="0"/>
        <pt x="400" y="-47" on="1"/>
        <pt x="286" y="57" on="1"/>
        <pt x="318" y="115" on="0"/>
        <pt x="332" y="142" on="1"/>
        <pt x="277" y="203" on="0"/>
      </contour>
      <contour>
        <pt x="289" y="358" on="1"/>
        <pt x="343" y="317" on="0"/>
        <pt x="388" y="269" on="1"/>
        <pt x="449" y="421" on="0"/>
        <pt x="478" y="536" on="1"/>
        <pt x="390" y="467" on="0"/>
      </contour>
    </TTGlyph>
    <TTGlyph name="AE" xMin="-82" yMin="-41" xMax="947" yMax="695">
      <contour>
        <pt x="199" y="244" on="1"/>
        <pt x="96" y="105" on="0"/>
        <pt x="35" y="-29" on="1"/>
        <pt x="-82" y="72" on="1"/>
        <pt x="-13" y="198" on="0"/>
        <pt x="82" y="320" on="1"/>
        <pt x="10" y="361" on="1"/>
        <pt x="96" y="469" on="1"/>
        <pt x="146" y="441" on="0"/>
        <pt x="170" y="426" on="1"/>
        <pt x="289" y="562" on="0"/>
        <pt x="397" y="649" on="1"/>
        <pt x="472" y="580" on="1"/>
        <pt x="487" y="641" on="0"/>
        <pt x="493" y="695" on="1"/>
        <pt x="592" y="607" on="1"/>
        <pt x="603" y="669" on="1"/>
        <pt x="761" y="649" on="0"/>
        <pt x="947" y="573" on="1"/>
        <pt x="893" y="446" on="1"/>
        <pt x="751" y="506" on="0"/>
        <pt x="604" y="533" on="1"/>
        <pt x="588" y="463" on="0"/>
        <pt x="566" y="393" on="1"/>
        <pt x="685" y="362" on="0"/>
        <pt x="791" y="343" on="1"/>
        <pt x="747" y="220" on="1"/>
        <pt x="632" y="243" on="0"/>
        <pt x="524" y="275" on="1"/>
        <pt x="498" y="212" on="0"/>
        <pt x="467" y="146" on="1"/>
        <pt x="619" y="108" on="0"/>
        <pt x="790" y="92" on="1"/>
        <pt x="745" y="-36" on="1"/>
        <pt x="567" y="-19" on="0"/>
        <pt x="408" y="24" on="1"/>
        <pt x="374" y="-41" on="1"/>
        <pt x="261" y="62" on="1"/>
        <pt x="302" y="137" on="0"/>
        <pt x="308" y="148" on="1"/>
        <pt x="256" y="203" on="0"/>
      </contour>
      <contour>
        <pt x="280" y="344" on="1"/>
        <pt x="322" y="307" on="0"/>
        <pt x="361" y="262" on="1"/>
        <pt x="425" y="409" on="0"/>
        <pt x="457" y="525" on="1"/>
        <pt x="360" y="436" on="0"/>
      </contour>
    </TTGlyph>
    <TTGlyph name="Aacute" xMin="-82" yMin="-47" xMax="781" yMax="948">
      <component glyphName="A" x="0" y="0" flags="0x1204"/>
      <component glyphName="acute.cap" x="382" y="20" flags="0x1004"/>
    </TTGlyph>
    <TTGlyph name="Acircumflex" xMin="-82" yMin="-47" xMax="796" yMax="921">
      <component glyphName="A" x="0" y="0" flags="0x1204"/>
      <component glyphName="circumflex.cap" x="210" y="0" flags="0x1004"/>
    </TTGlyph>
    <TTGlyph name="Adieresis" xMin="-82" yMin="-47" xMax="809" yMax="905">
      <component glyphName="A" x="0" y="0" flags="0x1204"/>
      <component glyphName="dieresis.cap" x="255" y="-43" flags="0x1004"/>
    </TTGlyph>
    <TTGlyph name="Agrave" xMin="-82" yMin="-47" xMax="701" yMax="950">
      <component glyphName="A" x="0" y="0" flags="0x1204"/>
      <component glyphName="grave.cap" x="307" y="0" flags="0x1004"/>
    </TTGlyph>
    <TTGlyph name="Aring" xMin="-82" yMin="-47" xMax="774" yMax="928">
      <component glyphName="A" x="0" y="0" flags="0x1204"/>
      <component glyphName="ring.cap" x="386" y="58" flags="0x1004"/>
    </TTGlyph>
    <TTGlyph name="Atilde" xMin="-82" yMin="-47" xMax="820" yMax="902">
      <component glyphName="A" x="0" y="0" flags="0x1204"/>
      <component glyphName="tilde.cap" x="275" y="9" flags="0x1004"/>
    </TTGlyph>
    <TTGlyph name="B" xMin="-71" yMin="-33" xMax="677" yMax="694">
      <contour>
        <pt x="411" y="278" on="1"/>
        <pt x="458" y="247" on="0"/>
        <pt x="506" y="207" on="1"/>
        <pt x="486" y="81" on="1"/>
        <pt x="350" y="-6" on="0"/>
        <pt x="150" y="-27" on="1"/>
        <pt x="93" y="-33" on="0"/>
        <pt x="42" y="-33" on="1"/>
        <pt x="-71" y="69" on="1"/>
        <pt x="57" y="352" on="0"/>
        <pt x="232" y="564" on="1"/>
        <pt x="155" y="575" on="0"/>
        <pt x="110" y="575" on="1"/>
        <pt x="153" y="694" on="1"/>
        <pt x="273" y="689" on="0"/>
        <pt x="495" y="652" on="0"/>
        <pt x="601" y="606" on="1"/>
        <pt x="677" y="437" on="1"/>
        <pt x="570" y="325" on="0"/>
      </contour>
      <contour>
        <pt x="246" y="347" on="1"/>
        <pt x="346" y="371" on="0"/>
        <pt x="396" y="395" on="1"/>
        <pt x="476" y="432" on="0"/>
        <pt x="529" y="479" on="1"/>
        <pt x="424" y="532" on="0"/>
        <pt x="259" y="559" on="1"/>
        <pt x="348" y="487" on="1"/>
        <pt x="274" y="391" on="0"/>
      </contour>
      <contour>
        <pt x="104" y="103" on="1"/>
        <pt x="264" y="109" on="0"/>
        <pt x="369" y="166" on="1"/>
        <pt x="334" y="206" on="0"/>
        <pt x="244" y="248" on="1"/>
        <pt x="219" y="259" on="0"/>
        <pt x="196" y="269" on="1"/>
        <pt x="143" y="183" on="0"/>
      </contour>
    </TTGlyph>
    <TTGlyph name="C" xMin="-52" yMin="-32" xMax="616" yMax="699">
      <contour>
        <pt x="127" y="124" on="1"/>
        <pt x="285" y="135" on="0"/>
        <pt x="415" y="199" on="1"/>
        <pt x="454" y="85" on="1"/>
        <pt x="290" y="-16" on="0"/>
        <pt x="75" y="-32" on="1"/>
        <pt x="-52" y="86" on="1"/>
        <pt x="-7" y="282" on="0"/>
        <pt x="108" y="441" on="1"/>
        <pt x="239" y="620" on="0"/>
        <pt x="426" y="699" on="1"/>
        <pt x="616" y="562" on="1"/>
        <pt x="590" y="477" on="0"/>
        <pt x="522" y="365" on="1"/>
        <pt x="503" y="334" on="0"/>
        <pt x="486" y="310" on="1"/>
        <pt x="370" y="374" on="1"/>
        <pt x="438" y="491" on="0"/>
        <pt x="461" y="571" on="1"/>
        <pt x="336" y="509" on="0"/>
        <pt x="240" y="381" on="1"/>
        <pt x="148" y="256" on="0"/>
      </contour>
    </TTGlyph>
    <TTGlyph name="Ccedilla" xMin="-118" yMin="-232" xMax="616" yMax="699">
      <contour>
        <pt x="38" y="-122" on="1"/>
        <pt x="18" y="-98" on="0"/>
        <pt x="-10" y="-76" on="1"/>
        <pt x="44" y="-3" on="1"/>
        <pt x="-52" y="86" on="1"/>
        <pt x="-7" y="282" on="0"/>
        <pt x="108" y="441" on="1"/>
        <pt x="239" y="620" on="0"/>
        <pt x="426" y="699" on="1"/>
        <pt x="616" y="562" on="1"/>
        <pt x="590" y="477" on="0"/>
        <pt x="522" y="365" on="1"/>
        <pt x="503" y="334" on="0"/>
        <pt x="486" y="310" on="1"/>
        <pt x="370" y="374" on="1"/>
        <pt x="438" y="491" on="0"/>
        <pt x="461" y="571" on="1"/>
        <pt x="336" y="509" on="0"/>
        <pt x="240" y="381" on="1"/>
        <pt x="148" y="256" on="0"/>
        <pt x="127" y="124" on="1"/>
        <pt x="285" y="135" on="0"/>
        <pt x="415" y="199" on="1"/>
        <pt x="454" y="85" on="1"/>
        <pt x="328" y="7" on="0"/>
        <pt x="163" y="-21" on="1"/>
        <pt x="143" y="-24" on="0"/>
        <pt x="125" y="-27" on="1"/>
        <pt x="105" y="-56" on="1"/>
        <pt x="130" y="-75" on="0"/>
        <pt x="179" y="-122" on="1"/>
        <pt x="144" y="-197" on="1"/>
        <pt x="44" y="-227" on="0"/>
        <pt x="-104" y="-232" on="1"/>
        <pt x="-118" y="-151" on="1"/>
        <pt x="-29" y="-142" on="0"/>
      </contour>
    </TTGlyph>
    <TTGlyph name="D" xMin="-57" yMin="-26" xMax="652" yMax="694">
      <contour>
        <pt x="-57" y="92" on="1"/>
        <pt x="6" y="234" on="0"/>
        <pt x="54" y="316" on="1"/>
        <pt x="134" y="451" on="0"/>
        <pt x="227" y="564" on="1"/>
        <pt x="150" y="575" on="0"/>
        <pt x="102" y="575" on="1"/>
        <pt x="145" y="694" on="1"/>
        <pt x="265" y="689" on="0"/>
        <pt x="487" y="652" on="0"/>
        <pt x="593" y="606" on="1"/>
        <pt x="652" y="472" on="1"/>
        <pt x="604" y="269" on="0"/>
        <pt x="439" y="136" on="1"/>
        <pt x="287" y="14" on="0"/>
        <pt x="71" y="-26" on="1"/>
      </contour>
      <contour>
        <pt x="119" y="123" on="1"/>
        <pt x="255" y="162" on="0"/>
        <pt x="360" y="257" on="1"/>
        <pt x="471" y="357" on="0"/>
        <pt x="506" y="490" on="1"/>
        <pt x="399" y="535" on="0"/>
        <pt x="256" y="559" on="1"/>
        <pt x="344" y="487" on="1"/>
        <pt x="204" y="310" on="0"/>
      </contour>
    </TTGlyph>
    <TTGlyph name="E" xMin="-54" yMin="-32" xMax="661" yMax="708">
      <contour>
        <pt x="116" y="133" on="1"/>
        <pt x="252" y="103" on="0"/>
        <pt x="421" y="97" on="1"/>
        <pt x="380" y="-32" on="1"/>
        <pt x="229" y="-29" on="0"/>
        <pt x="60" y="8" on="1"/>
        <pt x="-54" y="112" on="1"/>
        <pt x="16" y="273" on="0"/>
        <pt x="154" y="471" on="1"/>
        <pt x="193" y="528" on="0"/>
        <pt x="230" y="573" on="1"/>
        <pt x="160" y="584" on="0"/>
        <pt x="115" y="584" on="1"/>
        <pt x="162" y="708" on="1"/>
        <pt x="443" y="699" on="0"/>
        <pt x="661" y="606" on="1"/>
        <pt x="604" y="460" on="1"/>
        <pt x="453" y="532" on="0"/>
        <pt x="261" y="568" on="1"/>
        <pt x="347" y="497" on="1"/>
        <pt x="299" y="439" on="0"/>
        <pt x="260" y="379" on="1"/>
        <pt x="359" y="357" on="0"/>
        <pt x="457" y="348" on="1"/>
        <pt x="412" y="221" on="1"/>
        <pt x="259" y="248" on="0"/>
        <pt x="188" y="267" on="1"/>
        <pt x="150" y="204" on="0"/>
      </contour>
    </TTGlyph>
    <TTGlyph name="Eacute" xMin="-54" yMin="-32" xMax="726" yMax="937">
      <component glyphName="E" x="0" y="0" flags="0x1204"/>
      <component glyphName="acute.cap" x="327" y="9" flags="0x1004"/>
    </TTGlyph>
    <TTGlyph name="Ecircumflex" xMin="-54" yMin="-32" xMax="703" yMax="956">
      <component glyphName="E" x="0" y="0" flags="0x1204"/>
      <component glyphName="circumflex.cap" x="117" y="35" flags="0x1004"/>
    </TTGlyph>
    <TTGlyph name="Edieresis" xMin="-54" yMin="-32" xMax="728" yMax="923">
      <component glyphName="E" x="0" y="0" flags="0x1204"/>
      <component glyphName="dieresis.cap" x="174" y="-25" flags="0x1004"/>
    </TTGlyph>
    <TTGlyph name="Egrave" xMin="-54" yMin="-32" xMax="661" yMax="956">
      <component glyphName="E" x="0" y="0" flags="0x1204"/>
      <component glyphName="grave.cap" x="225" y="6" flags="0x1004"/>
    </TTGlyph>
    <TTGlyph name="Eth" xMin="-57" yMin="-26" xMax="652" yMax="694">
      <contour>
        <pt x="-57" y="92" on="1"/>
        <pt x="-4" y="212" on="0"/>
        <pt x="54" y="317" on="1"/>
        <pt x="13" y="327" on="0"/>
        <pt x="-29" y="336" on="1"/>
        <pt x="13" y="448" on="1"/>
        <pt x="53" y="440" on="0"/>
        <pt x="121" y="423" on="1"/>
        <pt x="164" y="488" on="0"/>
        <pt x="227" y="564" on="1"/>
        <pt x="150" y="575" on="0"/>
        <pt x="102" y="575" on="1"/>
        <pt x="145" y="694" on="1"/>
        <pt x="265" y="689" on="0"/>
        <pt x="487" y="652" on="0"/>
        <pt x="593" y="606" on="1"/>
        <pt x="652" y="472" on="1"/>
        <pt x="604" y="269" on="0"/>
        <pt x="439" y="136" on="1"/>
        <pt x="287" y="14" on="0"/>
        <pt x="71" y="-26" on="1"/>
      </contour>
      <contour>
        <pt x="119" y="123" on="1"/>
        <pt x="255" y="162" on="0"/>
        <pt x="360" y="257" on="1"/>
        <pt x="471" y="357" on="0"/>
        <pt x="506" y="490" on="1"/>
        <pt x="399" y="535" on="0"/>
        <pt x="256" y="559" on="1"/>
        <pt x="344" y="487" on="1"/>
        <pt x="301" y="433" on="0"/>
        <pt x="264" y="378" on="1"/>
        <pt x="297" y="366" on="0"/>
        <pt x="335" y="351" on="1"/>
        <pt x="288" y="239" on="1"/>
        <pt x="241" y="258" on="0"/>
        <pt x="197" y="273" on="1"/>
        <pt x="155" y="203" on="0"/>
      </contour>
    </TTGlyph>
    <TTGlyph name="Euro" xMin="31" yMin="-23" xMax="642" yMax="667">
      <contour>
        <pt x="31" y="91" on="1"/>
        <pt x="56" y="222" on="0"/>
        <pt x="105" y="325" on="1"/>
        <pt x="55" y="352" on="0"/>
        <pt x="32" y="364" on="1"/>
        <pt x="70" y="427" on="1"/>
        <pt x="97" y="416" on="0"/>
        <pt x="141" y="392" on="1"/>
        <pt x="166" y="430" on="1"/>
        <pt x="97" y="466" on="1"/>
        <pt x="135" y="529" on="1"/>
        <pt x="161" y="517" on="0"/>
        <pt x="214" y="490" on="1"/>
        <pt x="309" y="599" on="0"/>
        <pt x="454" y="667" on="1"/>
        <pt x="642" y="541" on="1"/>
        <pt x="623" y="479" on="0"/>
        <pt x="576" y="382" on="0"/>
        <pt x="564" y="364" on="1"/>
        <pt x="447" y="421" on="1"/>
        <pt x="480" y="479" on="0"/>
        <pt x="498" y="549" on="1"/>
        <pt x="411" y="504" on="0"/>
        <pt x="333" y="419" on="1"/>
        <pt x="349" y="409" on="0"/>
        <pt x="430" y="352" on="1"/>
        <pt x="387" y="290" on="1"/>
        <pt x="330" y="330" on="0"/>
        <pt x="284" y="359" on="1"/>
        <pt x="259" y="322" on="1"/>
        <pt x="325" y="279" on="0"/>
        <pt x="365" y="249" on="1"/>
        <pt x="322" y="187" on="1"/>
        <pt x="277" y="218" on="1"/>
        <pt x="252" y="236" on="0"/>
        <pt x="223" y="254" on="1"/>
        <pt x="188" y="180" on="0"/>
        <pt x="179" y="105" on="1"/>
        <pt x="293" y="119" on="0"/>
        <pt x="435" y="180" on="1"/>
        <pt x="475" y="71" on="1"/>
        <pt x="330" y="-6" on="0"/>
        <pt x="161" y="-23" on="1"/>
      </contour>
    </TTGlyph>
    <TTGlyph name="F" xMin="-77" yMin="-29" xMax="643" yMax="701">
      <contour>
        <pt x="-77" y="76" on="1"/>
        <pt x="2" y="250" on="0"/>
        <pt x="147" y="459" on="1"/>
        <pt x="190" y="521" on="0"/>
        <pt x="227" y="566" on="1"/>
        <pt x="157" y="577" on="0"/>
        <pt x="112" y="577" on="1"/>
        <pt x="158" y="701" on="1"/>
        <pt x="425" y="692" on="0"/>
        <pt x="643" y="605" on="1"/>
        <pt x="586" y="460" on="1"/>
        <pt x="441" y="524" on="0"/>
        <pt x="258" y="561" on="1"/>
        <pt x="344" y="490" on="1"/>
        <pt x="297" y="429" on="0"/>
        <pt x="243" y="351" on="1"/>
        <pt x="304" y="339" on="0"/>
        <pt x="441" y="296" on="1"/>
        <pt x="392" y="174" on="1"/>
        <pt x="270" y="214" on="1"/>
        <pt x="224" y="228" on="0"/>
        <pt x="173" y="241" on="1"/>
        <pt x="87" y="96" on="0"/>
        <pt x="37" y="-29" on="1"/>
      </contour>
    </TTGlyph>
    <TTGlyph name="G" xMin="-47" yMin="-187" xMax="649" yMax="695">
      <contour>
        <pt x="-47" y="97" on="1"/>
        <pt x="-4" y="281" on="0"/>
        <pt x="132" y="444" on="1"/>
        <pt x="274" y="614" on="0"/>
        <pt x="467" y="695" on="1"/>
        <pt x="649" y="562" on="1"/>
        <pt x="628" y="489" on="0"/>
        <pt x="578" y="404" on="1"/>
        <pt x="455" y="472" on="1"/>
        <pt x="472" y="506" on="0"/>
        <pt x="489" y="562" on="1"/>
        <pt x="281" y="455" on="0"/>
        <pt x="182" y="269" on="1"/>
        <pt x="149" y="207" on="0"/>
        <pt x="133" y="140" on="1"/>
        <pt x="255" y="158" on="0"/>
        <pt x="341" y="184" on="1"/>
        <pt x="363" y="228" on="0"/>
        <pt x="391" y="292" on="1"/>
        <pt x="525" y="223" on="1"/>
        <pt x="419" y="15" on="0"/>
        <pt x="261" y="-187" on="1"/>
        <pt x="154" y="-90" on="1"/>
        <pt x="227" y="3" on="0"/>
        <pt x="254" y="43" on="1"/>
        <pt x="157" y="11" on="0"/>
        <pt x="58" y="-1" on="1"/>
      </contour>
    </TTGlyph>
    <TTGlyph name="H" xMin="-50" yMin="-58" xMax="753" yMax="686">
      <contour>
        <pt x="341" y="180" on="1"/>
        <pt x="267" y="228" on="0"/>
        <pt x="206" y="261" on="1"/>
        <pt x="121" y="99" on="0"/>
        <pt x="67" y="-29" on="1"/>
        <pt x="-50" y="78" on="1"/>
        <pt x="0" y="189" on="0"/>
        <pt x="79" y="326" on="1"/>
        <pt x="0" y="364" on="1"/>
        <pt x="68" y="481" on="1"/>
        <pt x="148" y="443" on="1"/>
        <pt x="240" y="593" on="0"/>
        <pt x="313" y="686" on="1"/>
        <pt x="421" y="589" on="1"/>
        <pt x="380" y="535" on="0"/>
        <pt x="277" y="378" on="1"/>
        <pt x="341" y="342" on="0"/>
        <pt x="407" y="301" on="1"/>
        <pt x="553" y="552" on="0"/>
        <pt x="645" y="668" on="1"/>
        <pt x="753" y="571" on="1"/>
        <pt x="635" y="412" on="0"/>
        <pt x="526" y="220" on="1"/>
        <pt x="611" y="157" on="1"/>
        <pt x="533" y="43" on="1"/>
        <pt x="462" y="97" on="1"/>
        <pt x="419" y="12" on="0"/>
        <pt x="393" y="-58" on="1"/>
        <pt x="277" y="49" on="1"/>
        <pt x="301" y="103" on="0"/>
      </contour>
    </TTGlyph>
    <TTGlyph name="I" xMin="-63" yMin="-29" xMax="397" yMax="689">
      <contour>
        <pt x="-63" y="77" on="1"/>
        <pt x="84" y="408" on="0"/>
        <pt x="295" y="689" on="1"/>
        <pt x="397" y="585" on="1"/>
        <pt x="295" y="444" on="0"/>
        <pt x="230" y="327" on="1"/>
        <pt x="115" y="119" on="0"/>
        <pt x="52" y="-29" on="1"/>
      </contour>
    </TTGlyph>
    <TTGlyph name="IJ" xMin="-63" yMin="-29" xMax="891" yMax="689">
      <component glyphName="I" x="0" y="0" flags="0x1004"/>
      <component glyphName="J" x="360" y="0" flags="0x1004"/>
    </TTGlyph>
    <TTGlyph name="Iacute" xMin="-63" yMin="-29" xMax="705" yMax="928">
      <component glyphName="I" x="0" y="0" flags="0x1204"/>
      <component glyphName="acute.cap" x="306" y="0" flags="0x1004"/>
    </TTGlyph>
    <TTGlyph name="Icircumflex" xMin="-63" yMin="-29" xMax="606" yMax="921">
      <component glyphName="I" x="0" y="0" flags="0x1204"/>
      <component glyphName="circumflex.cap" x="20" y="0" flags="0x1004"/>
    </TTGlyph>
    <TTGlyph name="Idieresis" xMin="-63" yMin="-29" xMax="608" yMax="905">
      <component glyphName="I" x="0" y="0" flags="0x1204"/>
      <component glyphName="dieresis.cap" x="54" y="-43" flags="0x1004"/>
    </TTGlyph>
    <TTGlyph name="Igrave" xMin="-63" yMin="-29" xMax="522" yMax="956">
      <component glyphName="I" x="0" y="0" flags="0x1204"/>
      <component glyphName="grave.cap" x="128" y="6" flags="0x1004"/>
    </TTGlyph>
    <TTGlyph name="Itilde" xMin="-63" yMin="-29" xMax="627" yMax="893">
      <component glyphName="I" x="0" y="0" flags="0x1204"/>
      <component glyphName="tilde.cap" x="82" y="0" flags="0x1004"/>
    </TTGlyph>
    <TTGlyph name="J" xMin="-78" yMin="-29" xMax="531" yMax="689">
      <contour>
        <pt x="-23" y="-29" on="1"/>
        <pt x="-66" y="101" on="0"/>
        <pt x="-78" y="219" on="1"/>
        <pt x="54" y="245" on="1"/>
        <pt x="66" y="169" on="0"/>
        <pt x="88" y="92" on="1"/>
        <pt x="198" y="339" on="0"/>
        <pt x="330" y="548" on="1"/>
        <pt x="377" y="623" on="0"/>
        <pt x="427" y="689" on="1"/>
        <pt x="531" y="585" on="1"/>
        <pt x="411" y="419" on="0"/>
        <pt x="274" y="146" on="1"/>
        <pt x="233" y="65" on="0"/>
        <pt x="203" y="-2" on="1"/>
      </contour>
    </TTGlyph>
    <TTGlyph name="Jcircumflex" xMin="-78" yMin="-29" xMax="730" yMax="921">
      <component glyphName="J" x="0" y="0" flags="0x1204"/>
      <component glyphName="circumflex.cap" x="144" y="0" flags="0x1004"/>
    </TTGlyph>
    <TTGlyph name="K" xMin="-77" yMin="-58" xMax="718" yMax="689">
      <contour>
        <pt x="346" y="251" on="1"/>
        <pt x="398" y="160" on="0"/>
        <pt x="498" y="28" on="1"/>
        <pt x="364" y="-58" on="1"/>
        <pt x="269" y="79" on="0"/>
        <pt x="186" y="256" on="1"/>
        <pt x="124" y="152" on="0"/>
        <pt x="33" y="-29" on="1"/>
        <pt x="-77" y="73" on="1"/>
        <pt x="76" y="364" on="0"/>
        <pt x="210" y="557" on="1"/>
        <pt x="256" y="623" on="0"/>
        <pt x="306" y="689" on="1"/>
        <pt x="409" y="583" on="1"/>
        <pt x="315" y="466" on="0"/>
        <pt x="234" y="334" on="1"/>
        <pt x="465" y="475" on="0"/>
        <pt x="625" y="625" on="1"/>
        <pt x="718" y="517" on="1"/>
        <pt x="625" y="428" on="0"/>
        <pt x="558" y="381" on="1"/>
        <pt x="461" y="313" on="0"/>
      </contour>
    </TTGlyph>
    <TTGlyph name="Kcommaaccent" xMin="-77" yMin="-293" xMax="718" yMax="689">
      <component glyphName="K" x="0" y="0" flags="0x1204"/>
      <component glyphName="commaaccent" x="78" y="-3" flags="0x1004"/>
    </TTGlyph>
    <TTGlyph name="L" xMin="-62" yMin="-37" xMax="400" yMax="689">
      <contour>
        <pt x="125" y="140" on="1"/>
        <pt x="229" y="118" on="0"/>
        <pt x="391" y="102" on="1"/>
        <pt x="348" y="-37" on="1"/>
        <pt x="211" y="-25" on="0"/>
        <pt x="92" y="-3" on="0"/>
        <pt x="58" y="4" on="1"/>
        <pt x="-62" y="113" on="1"/>
        <pt x="60" y="367" on="0"/>
        <pt x="297" y="689" on="1"/>
        <pt x="400" y="585" on="1"/>
        <pt x="269" y="405" on="0"/>
      </contour>
    </TTGlyph>
    <TTGlyph name="Ldot" xMin="-62" yMin="-37" xMax="440" yMax="689">
      <component glyphName="L" x="0" y="0" flags="0x1204"/>
      <component glyphName="period" x="254" y="231" flags="0x1004"/>
    </TTGlyph>
    <TTGlyph name="Lslash" xMin="-62" yMin="-37" xMax="427" yMax="689">
      <contour>
        <pt x="427" y="322" on="1"/>
        <pt x="291" y="294" on="0"/>
        <pt x="-40" y="248" on="1"/>
        <pt x="-52" y="339" on="1"/>
        <pt x="98" y="360" on="0"/>
        <pt x="410" y="422" on="1"/>
      </contour>
      <contour>
        <pt x="125" y="140" on="1"/>
        <pt x="229" y="118" on="0"/>
        <pt x="391" y="102" on="1"/>
        <pt x="348" y="-37" on="1"/>
        <pt x="211" y="-25" on="0"/>
        <pt x="92" y="-3" on="0"/>
        <pt x="58" y="4" on="1"/>
        <pt x="-62" y="113" on="1"/>
        <pt x="60" y="367" on="0"/>
        <pt x="297" y="689" on="1"/>
        <pt x="400" y="585" on="1"/>
        <pt x="269" y="405" on="0"/>
      </contour>
    </TTGlyph>
    <TTGlyph name="M" xMin="-78" yMin="-66" xMax="856" yMax="713">
      <contour>
        <pt x="669" y="412" on="1"/>
        <pt x="497" y="186" on="0"/>
        <pt x="313" y="-34" on="1"/>
        <pt x="207" y="58" on="1"/>
        <pt x="252" y="329" on="0"/>
        <pt x="295" y="483" on="1"/>
        <pt x="187" y="311" on="0"/>
        <pt x="102" y="138" on="1"/>
        <pt x="68" y="70" on="0"/>
        <pt x="29" y="-14" on="1"/>
        <pt x="-78" y="86" on="1"/>
        <pt x="15" y="274" on="0"/>
        <pt x="78" y="377" on="1"/>
        <pt x="188" y="555" on="0"/>
        <pt x="309" y="713" on="1"/>
        <pt x="456" y="584" on="1"/>
        <pt x="397" y="394" on="0"/>
        <pt x="368" y="217" on="1"/>
        <pt x="527" y="410" on="0"/>
        <pt x="713" y="678" on="1"/>
        <pt x="856" y="555" on="1"/>
        <pt x="796" y="361" on="0"/>
        <pt x="739" y="212" on="0"/>
        <pt x="719" y="162" on="1"/>
        <pt x="683" y="72" on="0"/>
        <pt x="622" y="-66" on="1"/>
        <pt x="503" y="31" on="1"/>
        <pt x="586" y="199" on="0"/>
        <pt x="654" y="371" on="0"/>
      </contour>
    </TTGlyph>
    <TTGlyph name="N" xMin="-70" yMin="-37" xMax="753" yMax="704">
      <contour>
        <pt x="-70" y="77" on="1"/>
        <pt x="-13" y="214" on="0"/>
        <pt x="95" y="402" on="1"/>
        <pt x="192" y="572" on="0"/>
        <pt x="293" y="704" on="1"/>
        <pt x="392" y="607" on="1"/>
        <pt x="394" y="440" on="0"/>
        <pt x="410" y="256" on="1"/>
        <pt x="517" y="481" on="0"/>
        <pt x="651" y="665" on="1"/>
        <pt x="753" y="571" on="1"/>
        <pt x="589" y="342" on="0"/>
        <pt x="440" y="-10" on="1"/>
        <pt x="307" y="-37" on="1"/>
        <pt x="275" y="199" on="0"/>
        <pt x="265" y="413" on="1"/>
        <pt x="131" y="188" on="0"/>
        <pt x="46" y="-29" on="1"/>
      </contour>
    </TTGlyph>
    <TTGlyph name="Nacute" xMin="-70" yMin="-37" xMax="788" yMax="928">
      <component glyphName="N" x="0" y="0" flags="0x1204"/>
      <component glyphName="acute.cap" x="389" y="0" flags="0x1004"/>
    </TTGlyph>
    <TTGlyph name="Ntilde" xMin="-70" yMin="-37" xMax="773" yMax="931">
      <component glyphName="N" x="0" y="0" flags="0x1204"/>
      <component glyphName="tilde.cap" x="228" y="38" flags="0x1004"/>
    </TTGlyph>
    <TTGlyph name="O" xMin="-18" yMin="-52" xMax="652" yMax="695">
      <contour>
        <pt x="607" y="386" on="1"/>
        <pt x="501" y="481" on="0"/>
        <pt x="409" y="537" on="1"/>
        <pt x="307" y="484" on="0"/>
        <pt x="228" y="357" on="1"/>
        <pt x="146" y="226" on="0"/>
        <pt x="136" y="91" on="1"/>
        <pt x="293" y="134" on="0"/>
        <pt x="404" y="304" on="1"/>
        <pt x="441" y="362" on="0"/>
        <pt x="469" y="436" on="1"/>
        <pt x="607" y="386" on="1"/>
        <pt x="540" y="198" on="0"/>
        <pt x="432" y="95" on="1"/>
        <pt x="315" y="-17" on="0"/>
        <pt x="130" y="-52" on="1"/>
        <pt x="-18" y="84" on="1"/>
        <pt x="11" y="392" on="0"/>
        <pt x="235" y="580" on="1"/>
        <pt x="313" y="646" on="0"/>
        <pt x="418" y="695" on="1"/>
        <pt x="551" y="627" on="0"/>
        <pt x="652" y="521" on="1"/>
      </contour>
    </TTGlyph>
    <TTGlyph name="OE" xMin="-18" yMin="-52" xMax="947" yMax="695">
      <contour>
        <pt x="380" y="51" on="1"/>
        <pt x="279" y="-27" on="0"/>
        <pt x="130" y="-52" on="1"/>
        <pt x="-18" y="84" on="1"/>
        <pt x="11" y="392" on="0"/>
        <pt x="235" y="580" on="1"/>
        <pt x="313" y="646" on="0"/>
        <pt x="418" y="695" on="1"/>
        <pt x="485" y="659" on="0"/>
        <pt x="536" y="623" on="1"/>
        <pt x="562" y="679" on="1"/>
        <pt x="762" y="651" on="0"/>
        <pt x="947" y="573" on="1"/>
        <pt x="893" y="446" on="1"/>
        <pt x="801" y="484" on="0"/>
        <pt x="652" y="521" on="1"/>
        <pt x="609" y="394" on="1"/>
        <pt x="700" y="370" on="0"/>
        <pt x="802" y="352" on="1"/>
        <pt x="758" y="229" on="1"/>
        <pt x="646" y="253" on="1"/>
        <pt x="582" y="268" on="0"/>
        <pt x="550" y="279" on="1"/>
        <pt x="524" y="234" on="0"/>
        <pt x="478" y="141" on="1"/>
        <pt x="633" y="101" on="0"/>
        <pt x="786" y="92" on="1"/>
        <pt x="741" y="-36" on="1"/>
        <pt x="588" y="-28" on="0"/>
        <pt x="422" y="13" on="1"/>
      </contour>
      <contour>
        <pt x="593" y="398" on="1"/>
        <pt x="497" y="483" on="0"/>
        <pt x="409" y="537" on="1"/>
        <pt x="309" y="484" on="0"/>
        <pt x="230" y="359" on="1"/>
        <pt x="148" y="231" on="0"/>
        <pt x="136" y="96" on="1"/>
        <pt x="174" y="102" on="0"/>
        <pt x="250" y="129" on="0"/>
        <pt x="291" y="164" on="1"/>
        <pt x="381" y="241" on="0"/>
        <pt x="476" y="433" on="1"/>
        <pt x="503" y="424" on="0"/>
      </contour>
    </TTGlyph>
    <TTGlyph name="Oacute" xMin="-18" yMin="-52" xMax="854" yMax="902">
      <component glyphName="O" x="0" y="0" flags="0x1204"/>
      <component glyphName="acute.cap" x="455" y="-26" flags="0x1004"/>
    </TTGlyph>
    <TTGlyph name="Ocircumflex" xMin="-18" yMin="-52" xMax="775" yMax="932">
      <component glyphName="O" x="0" y="0" flags="0x1204"/>
      <component glyphName="circumflex.cap" x="189" y="11" flags="0x1004"/>
    </TTGlyph>
    <TTGlyph name="Odieresis" xMin="-18" yMin="-52" xMax="775" yMax="915">
      <component glyphName="O" x="0" y="0" flags="0x1204"/>
      <component glyphName="dieresis.cap" x="221" y="-33" flags="0x1004"/>
    </TTGlyph>
    <TTGlyph name="Ograve" xMin="-18" yMin="-52" xMax="657" yMax="943">
      <component glyphName="O" x="0" y="0" flags="0x1204"/>
      <component glyphName="grave.cap" x="263" y="-7" flags="0x1004"/>
    </TTGlyph>
    <TTGlyph name="Oslash" xMin="-81" yMin="-109" xMax="708" yMax="719">
      <contour>
        <pt x="-81" y="-39" on="1"/>
        <pt x="-23" y="17" on="0"/>
        <pt x="12" y="56" on="1"/>
        <pt x="-18" y="84" on="1"/>
        <pt x="11" y="392" on="0"/>
        <pt x="235" y="580" on="1"/>
        <pt x="313" y="646" on="0"/>
        <pt x="418" y="695" on="1"/>
        <pt x="487" y="661" on="0"/>
        <pt x="543" y="618" on="1"/>
        <pt x="637" y="719" on="1"/>
        <pt x="708" y="652" on="1"/>
        <pt x="619" y="554" on="1"/>
        <pt x="652" y="521" on="1"/>
        <pt x="607" y="386" on="1"/>
        <pt x="540" y="198" on="0"/>
        <pt x="432" y="95" on="1"/>
        <pt x="315" y="-17" on="0"/>
        <pt x="130" y="-52" on="1"/>
        <pt x="85" y="-11" on="1"/>
        <pt x="33" y="-63" on="0"/>
        <pt x="-11" y="-109" on="1"/>
      </contour>
      <contour>
        <pt x="607" y="386" on="1"/>
        <pt x="501" y="481" on="0"/>
        <pt x="409" y="537" on="1"/>
        <pt x="307" y="484" on="0"/>
        <pt x="228" y="357" on="1"/>
        <pt x="146" y="226" on="0"/>
        <pt x="136" y="91" on="1"/>
        <pt x="293" y="134" on="0"/>
        <pt x="404" y="304" on="1"/>
        <pt x="441" y="362" on="0"/>
        <pt x="469" y="436" on="1"/>
      </contour>
    </TTGlyph>
    <TTGlyph name="Otilde" xMin="-18" yMin="-52" xMax="780" yMax="903">
      <component glyphName="O" x="0" y="0" flags="0x1204"/>
      <component glyphName="tilde.cap" x="235" y="10" flags="0x1004"/>
    </TTGlyph>
    <TTGlyph name="P" xMin="-66" yMin="-30" xMax="662" yMax="694">
      <contour>
        <pt x="-66" y="75" on="1"/>
        <pt x="1" y="223" on="0"/>
        <pt x="54" y="310" on="1"/>
        <pt x="140" y="453" on="0"/>
        <pt x="233" y="563" on="1"/>
        <pt x="164" y="575" on="0"/>
        <pt x="109" y="575" on="1"/>
        <pt x="152" y="694" on="1"/>
        <pt x="340" y="688" on="0"/>
        <pt x="479" y="645" on="1"/>
        <pt x="531" y="629" on="0"/>
        <pt x="584" y="606" on="1"/>
        <pt x="662" y="431" on="1"/>
        <pt x="593" y="333" on="0"/>
        <pt x="378" y="190" on="0"/>
        <pt x="253" y="156" on="1"/>
        <pt x="187" y="250" on="1"/>
        <pt x="109" y="119" on="0"/>
        <pt x="48" y="-30" on="1"/>
      </contour>
      <contour>
        <pt x="202" y="275" on="1"/>
        <pt x="413" y="348" on="0"/>
        <pt x="519" y="476" on="1"/>
        <pt x="424" y="526" on="0"/>
        <pt x="264" y="558" on="1"/>
        <pt x="350" y="487" on="1"/>
        <pt x="270" y="386" on="0"/>
      </contour>
    </TTGlyph>
    <TTGlyph name="Q" xMin="-20" yMin="-203" xMax="633" yMax="697">
      <contour>
        <pt x="202" y="10" on="1"/>
        <pt x="287" y="-31" on="0"/>
        <pt x="411" y="-78" on="1"/>
        <pt x="347" y="-203" on="1"/>
        <pt x="185" y="-142" on="0"/>
        <pt x="67" y="-65" on="1"/>
        <pt x="26" y="-38" on="0"/>
        <pt x="-20" y="-4" on="1"/>
        <pt x="32" y="94" on="1"/>
        <pt x="67" y="101" on="0"/>
        <pt x="106" y="114" on="1"/>
        <pt x="7" y="182" on="1"/>
        <pt x="21" y="362" on="0"/>
        <pt x="136" y="504" on="1"/>
        <pt x="250" y="646" on="0"/>
        <pt x="426" y="697" on="1"/>
        <pt x="490" y="596" on="1"/>
        <pt x="496" y="628" on="0"/>
        <pt x="501" y="684" on="1"/>
        <pt x="633" y="583" on="1"/>
        <pt x="607" y="366" on="0"/>
        <pt x="399" y="73" on="0"/>
      </contour>
      <contour>
        <pt x="131" y="123" on="1"/>
        <pt x="424" y="234" on="0"/>
        <pt x="487" y="579" on="1"/>
        <pt x="338" y="529" on="0"/>
        <pt x="155" y="293" on="0"/>
      </contour>
    </TTGlyph>
    <TTGlyph name="R" xMin="-66" yMin="-58" xMax="661" yMax="694">
      <contour>
        <pt x="338" y="213" on="1"/>
        <pt x="398" y="117" on="0"/>
        <pt x="482" y="28" on="1"/>
        <pt x="349" y="-58" on="1"/>
        <pt x="257" y="61" on="0"/>
        <pt x="172" y="226" on="1"/>
        <pt x="103" y="107" on="0"/>
        <pt x="47" y="-29" on="1"/>
        <pt x="-66" y="75" on="1"/>
        <pt x="1" y="223" on="0"/>
        <pt x="54" y="310" on="1"/>
        <pt x="140" y="453" on="0"/>
        <pt x="233" y="563" on="1"/>
        <pt x="164" y="575" on="0"/>
        <pt x="108" y="575" on="1"/>
        <pt x="151" y="694" on="1"/>
        <pt x="339" y="688" on="0"/>
        <pt x="478" y="645" on="1"/>
        <pt x="530" y="629" on="0"/>
        <pt x="583" y="606" on="1"/>
        <pt x="661" y="434" on="1"/>
        <pt x="559" y="299" on="0"/>
      </contour>
      <contour>
        <pt x="212" y="293" on="1"/>
        <pt x="348" y="345" on="0"/>
        <pt x="454" y="424" on="1"/>
        <pt x="490" y="450" on="0"/>
        <pt x="516" y="477" on="1"/>
        <pt x="421" y="527" on="0"/>
        <pt x="264" y="557" on="1"/>
        <pt x="350" y="487" on="1"/>
        <pt x="270" y="385" on="0"/>
      </contour>
    </TTGlyph>
    <TTGlyph name="Racute" xMin="-66" yMin="-58" xMax="759" yMax="928">
      <component glyphName="R" x="0" y="0" flags="0x1204"/>
      <component glyphName="acute.cap" x="360" y="0" flags="0x1004"/>
    </TTGlyph>
    <TTGlyph name="Rcaron" xMin="-66" yMin="-58" xMax="768" yMax="956">
      <component glyphName="R" x="0" y="0" flags="0x1204"/>
      <component glyphName="caron.cap" x="182" y="36" flags="0x1004"/>
    </TTGlyph>
    <TTGlyph name="Rcommaaccent" xMin="-66" yMin="-293" xMax="661" yMax="694">
      <component glyphName="R" x="0" y="0" flags="0x1204"/>
      <component glyphName="commaaccent" x="72" y="-3" flags="0x1004"/>
    </TTGlyph>
    <TTGlyph name="S" xMin="-68" yMin="-53" xMax="621" yMax="722">
      <contour>
        <pt x="468" y="587" on="1"/>
        <pt x="361" y="530" on="0"/>
        <pt x="274" y="435" on="1"/>
        <pt x="285" y="400" on="0"/>
        <pt x="327" y="321" on="0"/>
        <pt x="350" y="276" on="1"/>
        <pt x="411" y="162" on="0"/>
        <pt x="437" y="81" on="1"/>
        <pt x="353" y="-53" on="1"/>
        <pt x="166" y="-4" on="0"/>
        <pt x="21" y="84" on="1"/>
        <pt x="-24" y="112" on="0"/>
        <pt x="-68" y="142" on="1"/>
        <pt x="-1" y="264" on="1"/>
        <pt x="151" y="159" on="0"/>
        <pt x="277" y="110" on="1"/>
        <pt x="253" y="169" on="0"/>
        <pt x="157" y="336" on="0"/>
        <pt x="114" y="421" on="0"/>
        <pt x="102" y="463" on="1"/>
        <pt x="164" y="540" on="0"/>
        <pt x="260" y="615" on="1"/>
        <pt x="348" y="684" on="0"/>
        <pt x="428" y="722" on="1"/>
        <pt x="621" y="593" on="1"/>
        <pt x="602" y="508" on="0"/>
        <pt x="534" y="382" on="1"/>
        <pt x="517" y="350" on="0"/>
        <pt x="504" y="331" on="1"/>
        <pt x="384" y="400" on="1"/>
        <pt x="424" y="464" on="0"/>
      </contour>
    </TTGlyph>
    <TTGlyph name="T" xMin="11" yMin="-29" xMax="651" yMax="727">
      <contour>
        <pt x="72" y="230" on="0"/>
        <pt x="217" y="461" on="0"/>
        <pt x="282" y="551" on="1"/>
        <pt x="162" y="589" on="0"/>
        <pt x="71" y="612" on="1"/>
        <pt x="145" y="727" on="1"/>
        <pt x="365" y="685" on="0"/>
        <pt x="651" y="574" on="1"/>
        <pt x="582" y="436" on="1"/>
        <pt x="426" y="501" on="0"/>
        <pt x="312" y="541" on="1"/>
        <pt x="397" y="465" on="1"/>
        <pt x="282" y="309" on="0"/>
        <pt x="192" y="114" on="1"/>
        <pt x="161" y="49" on="0"/>
        <pt x="128" y="-29" on="1"/>
        <pt x="11" y="78" on="1"/>
      </contour>
    </TTGlyph>
    <TTGlyph name="Thorn" xMin="-66" yMin="-29" xMax="586" yMax="690">
      <contour>
        <pt x="-66" y="78" on="1"/>
        <pt x="48" y="331" on="0"/>
        <pt x="179" y="535" on="1"/>
        <pt x="228" y="611" on="0"/>
        <pt x="285" y="690" on="1"/>
        <pt x="394" y="594" on="1"/>
        <pt x="365" y="554" on="0"/>
        <pt x="343" y="520" on="1"/>
        <pt x="412" y="491" on="0"/>
        <pt x="508" y="435" on="1"/>
        <pt x="586" y="260" on="1"/>
        <pt x="470" y="188" on="0"/>
        <pt x="405" y="160" on="1"/>
        <pt x="301" y="117" on="0"/>
        <pt x="194" y="96" on="1"/>
        <pt x="145" y="176" on="1"/>
        <pt x="92" y="70" on="0"/>
        <pt x="50" y="-29" on="1"/>
      </contour>
      <contour>
        <pt x="430" y="328" on="1"/>
        <pt x="366" y="368" on="0"/>
        <pt x="271" y="408" on="1"/>
        <pt x="223" y="327" on="0"/>
        <pt x="172" y="229" on="1"/>
        <pt x="319" y="260" on="0"/>
      </contour>
    </TTGlyph>
    <TTGlyph name="U" xMin="-50" yMin="-50" xMax="707" yMax="695">
      <contour>
        <pt x="273" y="57" on="1"/>
        <pt x="200" y="19" on="0"/>
        <pt x="76" y="-25" on="1"/>
        <pt x="-50" y="96" on="1"/>
        <pt x="74" y="423" on="0"/>
        <pt x="283" y="695" on="1"/>
        <pt x="391" y="588" on="1"/>
        <pt x="283" y="457" on="0"/>
        <pt x="180" y="256" on="1"/>
        <pt x="150" y="196" on="0"/>
        <pt x="126" y="140" on="1"/>
        <pt x="246" y="167" on="0"/>
        <pt x="328" y="200" on="1"/>
        <pt x="328" y="198" on="1"/>
        <pt x="487" y="526" on="0"/>
        <pt x="597" y="660" on="1"/>
        <pt x="707" y="553" on="1"/>
        <pt x="551" y="365" on="0"/>
        <pt x="386" y="-50" on="1"/>
      </contour>
    </TTGlyph>
    <TTGlyph name="Uacute" xMin="-50" yMin="-50" xMax="763" yMax="928">
      <component glyphName="U" x="0" y="0" flags="0x1204"/>
      <component glyphName="acute.cap" x="364" y="0" flags="0x1004"/>
    </TTGlyph>
    <TTGlyph name="Ucircumflex" xMin="-50" yMin="-50" xMax="764" yMax="941">
      <component glyphName="U" x="0" y="0" flags="0x1204"/>
      <component glyphName="circumflex.cap" x="178" y="20" flags="0x1004"/>
    </TTGlyph>
    <TTGlyph name="Udieresis" xMin="-50" yMin="-50" xMax="792" yMax="915">
      <component glyphName="U" x="0" y="0" flags="0x1204"/>
      <component glyphName="dieresis.cap" x="238" y="-33" flags="0x1004"/>
    </TTGlyph>
    <TTGlyph name="Ugrave" xMin="-50" yMin="-50" xMax="707" yMax="956">
      <component glyphName="U" x="0" y="0" flags="0x1204"/>
      <component glyphName="grave.cap" x="206" y="6" flags="0x1004"/>
    </TTGlyph>
    <TTGlyph name="V" xMin="38" yMin="-38" xMax="688" yMax="707">
      <contour>
        <pt x="173" y="131" on="1"/>
        <pt x="400" y="329" on="0"/>
        <pt x="580" y="660" on="1"/>
        <pt x="688" y="553" on="1"/>
        <pt x="542" y="279" on="0"/>
        <pt x="322" y="74" on="1"/>
        <pt x="253" y="9" on="0"/>
        <pt x="184" y="-38" on="1"/>
        <pt x="79" y="59" on="1"/>
        <pt x="118" y="85" on="0"/>
        <pt x="140" y="104" on="1"/>
        <pt x="38" y="193" on="1"/>
        <pt x="99" y="389" on="0"/>
        <pt x="202" y="544" on="1"/>
        <pt x="168" y="528" on="0"/>
        <pt x="89" y="485" on="1"/>
        <pt x="40" y="600" on="1"/>
        <pt x="140" y="657" on="0"/>
        <pt x="236" y="695" on="0"/>
        <pt x="272" y="707" on="1"/>
        <pt x="383" y="589" on="1"/>
        <pt x="231" y="352" on="0"/>
      </contour>
    </TTGlyph>
    <TTGlyph name="W" xMin="36" yMin="-47" xMax="970" yMax="702">
      <contour>
        <pt x="500" y="115" on="1"/>
        <pt x="715" y="291" on="0"/>
        <pt x="861" y="618" on="1"/>
        <pt x="970" y="518" on="1"/>
        <pt x="895" y="345" on="0"/>
        <pt x="769" y="195" on="1"/>
        <pt x="643" y="45" on="0"/>
        <pt x="496" y="-47" on="1"/>
        <pt x="364" y="70" on="1"/>
        <pt x="373" y="103" on="0"/>
        <pt x="392" y="166" on="1"/>
        <pt x="314" y="76" on="0"/>
        <pt x="240" y="15" on="1"/>
        <pt x="214" y="-7" on="0"/>
        <pt x="186" y="-29" on="1"/>
        <pt x="36" y="106" on="1"/>
        <pt x="83" y="340" on="0"/>
        <pt x="202" y="533" on="1"/>
        <pt x="153" y="510" on="0"/>
        <pt x="92" y="476" on="1"/>
        <pt x="43" y="591" on="1"/>
        <pt x="145" y="649" on="0"/>
        <pt x="242" y="690" on="0"/>
        <pt x="278" y="702" on="1"/>
        <pt x="390" y="590" on="1"/>
        <pt x="247" y="367" on="0"/>
        <pt x="187" y="141" on="1"/>
        <pt x="397" y="317" on="0"/>
        <pt x="584" y="660" on="1"/>
        <pt x="688" y="564" on="1"/>
        <pt x="670" y="531" on="1"/>
        <pt x="597" y="396" on="0"/>
        <pt x="567" y="320" on="1"/>
        <pt x="527" y="215" on="0"/>
      </contour>
    </TTGlyph>
    <TTGlyph name="X" xMin="-90" yMin="-38" xMax="668" yMax="694">
      <contour>
        <pt x="350" y="302" on="1"/>
        <pt x="382" y="163" on="0"/>
        <pt x="448" y="-1" on="1"/>
        <pt x="307" y="-38" on="1"/>
        <pt x="254" y="103" on="0"/>
        <pt x="227" y="224" on="1"/>
        <pt x="167" y="178" on="0"/>
        <pt x="61" y="68" on="0"/>
        <pt x="3" y="3" on="1"/>
        <pt x="-90" y="112" on="1"/>
        <pt x="61" y="274" on="0"/>
        <pt x="200" y="367" on="1"/>
        <pt x="191" y="449" on="0"/>
        <pt x="191" y="534" on="1"/>
        <pt x="143" y="513" on="0"/>
        <pt x="104" y="492" on="1"/>
        <pt x="56" y="602" on="1"/>
        <pt x="146" y="658" on="0"/>
        <pt x="249" y="694" on="1"/>
        <pt x="336" y="598" on="1"/>
        <pt x="328" y="533" on="0"/>
        <pt x="330" y="454" on="1"/>
        <pt x="445" y="555" on="0"/>
        <pt x="578" y="640" on="1"/>
        <pt x="668" y="520" on="1"/>
        <pt x="502" y="428" on="0"/>
      </contour>
    </TTGlyph>
    <TTGlyph name="Y" xMin="13" yMin="-41" xMax="635" yMax="731">
      <contour>
        <pt x="245" y="353" on="1"/>
        <pt x="403" y="491" on="0"/>
        <pt x="523" y="663" on="1"/>
        <pt x="635" y="556" on="1"/>
        <pt x="449" y="320" on="0"/>
        <pt x="245" y="196" on="1"/>
        <pt x="190" y="111" on="0"/>
        <pt x="137" y="-41" on="1"/>
        <pt x="13" y="66" on="1"/>
        <pt x="55" y="171" on="0"/>
        <pt x="92" y="238" on="0"/>
        <pt x="112" y="270" on="1"/>
        <pt x="89" y="470" on="0"/>
        <pt x="149" y="731" on="1"/>
        <pt x="283" y="608" on="1"/>
        <pt x="249" y="475" on="0"/>
      </contour>
    </TTGlyph>
    <TTGlyph name="Yacute" xMin="13" yMin="-41" xMax="671" yMax="928">
      <component glyphName="Y" x="0" y="0" flags="0x1204"/>
      <component glyphName="acute.cap" x="272" y="0" flags="0x1004"/>
    </TTGlyph>
    <TTGlyph name="Ydieresis" xMin="13" yMin="-41" xMax="663" yMax="925">
      <component glyphName="Y" x="0" y="0" flags="0x1204"/>
      <component glyphName="dieresis.cap" x="109" y="-23" flags="0x1004"/>
    </TTGlyph>
    <TTGlyph name="Z" xMin="-65" yMin="-52" xMax="642" yMax="701">
      <contour>
        <pt x="167" y="134" on="1"/>
        <pt x="271" y="104" on="0"/>
        <pt x="430" y="79" on="1"/>
        <pt x="379" y="-52" on="1"/>
        <pt x="101" y="-6" on="0"/>
        <pt x="-65" y="79" on="1"/>
        <pt x="-26" y="193" on="1"/>
        <pt x="97" y="244" on="0"/>
        <pt x="241" y="336" on="1"/>
        <pt x="363" y="413" on="0"/>
        <pt x="463" y="499" on="1"/>
        <pt x="369" y="535" on="0"/>
        <pt x="264" y="560" on="1"/>
        <pt x="278" y="480" on="0"/>
        <pt x="283" y="455" on="1"/>
        <pt x="151" y="439" on="1"/>
        <pt x="127" y="523" on="0"/>
        <pt x="119" y="611" on="1"/>
        <pt x="248" y="701" on="1"/>
        <pt x="356" y="677" on="0"/>
        <pt x="425" y="651" on="1"/>
        <pt x="526" y="614" on="0"/>
        <pt x="642" y="559" on="1"/>
        <pt x="601" y="437" on="1"/>
        <pt x="428" y="269" on="0"/>
      </contour>
    </TTGlyph>
    <TTGlyph name="a" xMin="-34" yMin="-27" xMax="643" yMax="530">
      <contour>
        <pt x="272" y="63" on="1"/>
        <pt x="193" y="1" on="0"/>
        <pt x="90" y="-27" on="1"/>
        <pt x="-34" y="88" on="1"/>
        <pt x="-34" y="167" on="0"/>
        <pt x="14" y="319" on="0"/>
        <pt x="108" y="441" on="0"/>
        <pt x="247" y="522" on="0"/>
        <pt x="338" y="530" on="1"/>
        <pt x="404" y="429" on="1"/>
        <pt x="416" y="448" on="0"/>
        <pt x="455" y="495" on="1"/>
        <pt x="553" y="411" on="1"/>
        <pt x="454" y="282" on="0"/>
        <pt x="389" y="135" on="1"/>
        <pt x="386" y="133" on="1"/>
        <pt x="444" y="148" on="0"/>
        <pt x="600" y="221" on="0"/>
        <pt x="621" y="232" on="1"/>
        <pt x="643" y="131" on="1"/>
        <pt x="584" y="88" on="0"/>
        <pt x="447" y="20" on="1"/>
        <pt x="393" y="-7" on="0"/>
        <pt x="349" y="-23" on="1"/>
      </contour>
      <contour>
        <pt x="106" y="117" on="1"/>
        <pt x="213" y="146" on="0"/>
        <pt x="301" y="259" on="1"/>
        <pt x="327" y="316" on="0"/>
        <pt x="340" y="401" on="1"/>
        <pt x="237" y="391" on="0"/>
        <pt x="171" y="310" on="1"/>
        <pt x="106" y="230" on="0"/>
      </contour>
    </TTGlyph>
    <TTGlyph name="aacute" xMin="-34" yMin="-27" xMax="680" yMax="817">
      <component glyphName="a" x="0" y="0" flags="0x1204"/>
      <component glyphName="acute" x="280" y="0" flags="0x1004"/>
    </TTGlyph>
    <TTGlyph name="acircumflex" xMin="-34" yMin="-27" xMax="643" yMax="795">
      <component glyphName="a" x="0" y="0" flags="0x1204"/>
      <component glyphName="circumflex" x="173" y="0" flags="0x1004"/>
    </TTGlyph>
    <TTGlyph name="acute" xMin="89" yMin="539" xMax="400" yMax="817">
      <contour>
        <pt x="400" y="723" on="1"/>
        <pt x="311" y="640" on="0"/>
        <pt x="164" y="539" on="1"/>
        <pt x="89" y="616" on="1"/>
        <pt x="198" y="700" on="0"/>
        <pt x="303" y="817" on="1"/>
      </contour>
    </TTGlyph>
    <TTGlyph name="acute.cap" xMin="75" yMin="708" xMax="399" yMax="928">
      <contour>
        <pt x="399" y="809" on="1"/>
        <pt x="262" y="747" on="0"/>
        <pt x="114" y="708" on="1"/>
        <pt x="75" y="805" on="1"/>
        <pt x="215" y="860" on="0"/>
        <pt x="314" y="909" on="0"/>
        <pt x="348" y="928" on="1"/>
      </contour>
    </TTGlyph>
    <TTGlyph name="adieresis" xMin="-34" yMin="-27" xMax="681" yMax="784">
      <component glyphName="a" x="0" y="0" flags="0x1204"/>
      <component glyphName="dieresis" x="194" y="0" flags="0x1004"/>
    </TTGlyph>
    <TTGlyph name="ae" xMin="-34" yMin="-27" xMax="866" yMax="562">
      <contour>
        <pt x="272" y="86" on="1"/>
        <pt x="198" y="16" on="0"/>
        <pt x="90" y="-27" on="1"/>
        <pt x="-34" y="88" on="1"/>
        <pt x="-34" y="167" on="0"/>
        <pt x="14" y="319" on="0"/>
        <pt x="108" y="441" on="0"/>
        <pt x="247" y="522" on="0"/>
        <pt x="338" y="530" on="1"/>
        <pt x="379" y="467" on="1"/>
        <pt x="407" y="534" on="0"/>
        <pt x="424" y="562" on="1"/>
        <pt x="499" y="483" on="1"/>
        <pt x="551" y="515" on="0"/>
        <pt x="600" y="531" on="1"/>
        <pt x="769" y="391" on="1"/>
        <pt x="744" y="287" on="0"/>
        <pt x="604" y="193" on="0"/>
        <pt x="507" y="193" on="1"/>
        <pt x="451" y="193" on="0"/>
        <pt x="424" y="200" on="1"/>
        <pt x="408" y="161" on="0"/>
        <pt x="404" y="103" on="1"/>
        <pt x="577" y="113" on="0"/>
        <pt x="740" y="180" on="1"/>
        <pt x="795" y="202" on="0"/>
        <pt x="844" y="232" on="1"/>
        <pt x="866" y="131" on="1"/>
        <pt x="773" y="72" on="0"/>
        <pt x="648" y="27" on="1"/>
        <pt x="516" y="-21" on="0"/>
        <pt x="395" y="-27" on="1"/>
      </contour>
      <contour>
        <pt x="466" y="290" on="1"/>
        <pt x="524" y="290" on="0"/>
        <pt x="571" y="322" on="1"/>
        <pt x="626" y="360" on="0"/>
        <pt x="626" y="428" on="1"/>
        <pt x="575" y="404" on="0"/>
        <pt x="489" y="331" on="0"/>
      </contour>
      <contour>
        <pt x="106" y="117" on="1"/>
        <pt x="224" y="149" on="0"/>
        <pt x="310" y="259" on="1"/>
        <pt x="327" y="317" on="0"/>
        <pt x="340" y="401" on="1"/>
        <pt x="237" y="391" on="0"/>
        <pt x="171" y="310" on="1"/>
        <pt x="106" y="230" on="0"/>
      </contour>
    </TTGlyph>
    <TTGlyph name="agrave" xMin="-34" yMin="-27" xMax="643" yMax="859">
      <component glyphName="a" x="0" y="0" flags="0x1204"/>
      <component glyphName="grave" x="203" y="0" flags="0x1004"/>
    </TTGlyph>
    <TTGlyph name="ampersand" xMin="-77" yMin="-98" xMax="640" yMax="679">
      <contour>
        <pt x="458" y="85" on="1"/>
        <pt x="495" y="22" on="0"/>
        <pt x="532" y="-24" on="1"/>
        <pt x="404" y="-98" on="1"/>
        <pt x="357" y="-35" on="0"/>
        <pt x="320" y="33" on="1"/>
        <pt x="191" y="-8" on="0"/>
        <pt x="49" y="-20" on="1"/>
        <pt x="-77" y="166" on="1"/>
        <pt x="-2" y="239" on="0"/>
        <pt x="48" y="272" on="1"/>
        <pt x="130" y="327" on="0"/>
        <pt x="219" y="369" on="1"/>
        <pt x="211" y="500" on="0"/>
        <pt x="249" y="630" on="1"/>
        <pt x="418" y="679" on="1"/>
        <pt x="510" y="634" on="0"/>
        <pt x="590" y="573" on="1"/>
        <pt x="640" y="449" on="1"/>
        <pt x="572" y="390" on="0"/>
        <pt x="528" y="365" on="1"/>
        <pt x="451" y="323" on="0"/>
        <pt x="375" y="300" on="1"/>
        <pt x="384" y="251" on="0"/>
        <pt x="406" y="195" on="1"/>
        <pt x="491" y="228" on="0"/>
        <pt x="555" y="268" on="1"/>
        <pt x="615" y="171" on="1"/>
        <pt x="546" y="124" on="0"/>
      </contour>
      <contour>
        <pt x="371" y="559" on="1"/>
        <pt x="358" y="493" on="0"/>
        <pt x="360" y="418" on="1"/>
        <pt x="439" y="446" on="0"/>
        <pt x="495" y="486" on="1"/>
        <pt x="426" y="531" on="0"/>
      </contour>
      <contour>
        <pt x="85" y="126" on="1"/>
        <pt x="170" y="131" on="0"/>
        <pt x="265" y="152" on="1"/>
        <pt x="249" y="194" on="0"/>
        <pt x="238" y="240" on="1"/>
        <pt x="176" y="204" on="0"/>
        <pt x="105" y="143" on="0"/>
      </contour>
    </TTGlyph>
    <TTGlyph name="aring" xMin="-34" yMin="-27" xMax="643" yMax="789">
      <component glyphName="a" x="0" y="0" flags="0x1204"/>
      <component glyphName="ring" x="296" y="0" flags="0x1004"/>
    </TTGlyph>
    <TTGlyph name="asciicircum" xMin="43" yMin="91" xMax="493" yMax="549">
      <contour>
        <pt x="334" y="383" on="1"/>
        <pt x="220" y="306" on="0"/>
        <pt x="102" y="205" on="1"/>
        <pt x="43" y="302" on="1"/>
        <pt x="147" y="409" on="0"/>
        <pt x="270" y="498" on="1"/>
        <pt x="309" y="526" on="0"/>
        <pt x="347" y="549" on="1"/>
        <pt x="445" y="504" on="1"/>
        <pt x="485" y="284" on="0"/>
        <pt x="493" y="115" on="1"/>
        <pt x="379" y="91" on="1"/>
        <pt x="364" y="220" on="0"/>
      </contour>
    </TTGlyph>
    <TTGlyph name="asciitilde" xMin="58" yMin="172" xMax="488" yMax="424">
      <contour>
        <pt x="94" y="414" on="1"/>
        <pt x="146" y="424" on="0"/>
        <pt x="211" y="424" on="0"/>
        <pt x="274" y="387" on="0"/>
        <pt x="334" y="342" on="0"/>
        <pt x="398" y="305" on="0"/>
        <pt x="462" y="305" on="0"/>
        <pt x="488" y="308" on="1"/>
        <pt x="452" y="195" on="1"/>
        <pt x="355" y="172" on="0"/>
        <pt x="304" y="204" on="1"/>
        <pt x="273" y="222" on="0"/>
        <pt x="215" y="267" on="0"/>
        <pt x="150" y="304" on="0"/>
        <pt x="85" y="304" on="0"/>
        <pt x="58" y="301" on="1"/>
      </contour>
    </TTGlyph>
    <TTGlyph name="asterisk" xMin="111" yMin="292" xMax="544" yMax="742">
      <contour>
        <pt x="287" y="433" on="1"/>
        <pt x="219" y="397" on="0"/>
        <pt x="166" y="359" on="1"/>
        <pt x="111" y="443" on="1"/>
        <pt x="181" y="498" on="0"/>
        <pt x="228" y="528" on="1"/>
        <pt x="178" y="578" on="0"/>
        <pt x="124" y="620" on="1"/>
        <pt x="185" y="697" on="1"/>
        <pt x="266" y="642" on="0"/>
        <pt x="305" y="610" on="1"/>
        <pt x="342" y="679" on="0"/>
        <pt x="362" y="742" on="1"/>
        <pt x="454" y="706" on="1"/>
        <pt x="431" y="623" on="0"/>
        <pt x="408" y="565" on="1"/>
        <pt x="490" y="553" on="0"/>
        <pt x="544" y="553" on="1"/>
        <pt x="539" y="455" on="1"/>
        <pt x="445" y="450" on="0"/>
        <pt x="398" y="453" on="1"/>
        <pt x="409" y="381" on="0"/>
        <pt x="428" y="319" on="1"/>
        <pt x="334" y="292" on="1"/>
        <pt x="308" y="359" on="0"/>
      </contour>
    </TTGlyph>
    <TTGlyph name="at" xMin="50" yMin="-230" xMax="1027" yMax="700">
      <contour>
        <pt x="949" y="-28" on="1"/>
        <pt x="699" y="-230" on="0"/>
        <pt x="435" y="-230" on="1"/>
        <pt x="349" y="-230" on="0"/>
        <pt x="207" y="-174" on="0"/>
        <pt x="106" y="-78" on="0"/>
        <pt x="50" y="52" on="0"/>
        <pt x="50" y="212" on="0"/>
        <pt x="95" y="363" on="0"/>
        <pt x="175" y="490" on="0"/>
        <pt x="283" y="592" on="0"/>
        <pt x="346" y="627" on="1"/>
        <pt x="479" y="700" on="0"/>
        <pt x="620" y="700" on="1"/>
        <pt x="701" y="700" on="0"/>
        <pt x="840" y="642" on="0"/>
        <pt x="942" y="540" on="0"/>
        <pt x="972" y="470" on="1"/>
        <pt x="1027" y="339" on="0"/>
        <pt x="979" y="180" on="1"/>
        <pt x="869" y="110" on="0"/>
        <pt x="696" y="40" on="1"/>
        <pt x="649" y="22" on="0"/>
        <pt x="616" y="11" on="1"/>
        <pt x="550" y="85" on="1"/>
        <pt x="481" y="35" on="0"/>
        <pt x="394" y="8" on="1"/>
        <pt x="288" y="106" on="1"/>
        <pt x="288" y="251" on="0"/>
        <pt x="370" y="356" on="1"/>
        <pt x="458" y="472" on="0"/>
        <pt x="607" y="485" on="1"/>
        <pt x="663" y="399" on="1"/>
        <pt x="671" y="410" on="0"/>
        <pt x="707" y="454" on="1"/>
        <pt x="791" y="387" on="1"/>
        <pt x="737" y="317" on="0"/>
        <pt x="678" y="209" on="1"/>
        <pt x="660" y="176" on="0"/>
        <pt x="647" y="146" on="1"/>
        <pt x="709" y="161" on="0"/>
        <pt x="848" y="212" on="0"/>
        <pt x="864" y="221" on="1"/>
        <pt x="882" y="275" on="0"/>
        <pt x="882" y="391" on="0"/>
        <pt x="839" y="483" on="0"/>
        <pt x="802" y="516" on="1"/>
        <pt x="724" y="589" on="0"/>
        <pt x="615" y="589" on="1"/>
        <pt x="537" y="589" on="0"/>
        <pt x="379" y="522" on="0"/>
        <pt x="253" y="403" on="0"/>
        <pt x="174" y="240" on="0"/>
        <pt x="174" y="144" on="1"/>
        <pt x="174" y="28" on="0"/>
        <pt x="247" y="-45" on="1"/>
        <pt x="322" y="-120" on="0"/>
        <pt x="560" y="-120" on="0"/>
        <pt x="779" y="-31" on="0"/>
        <pt x="897" y="57" on="1"/>
      </contour>
      <contour>
        <pt x="414" y="131" on="1"/>
        <pt x="545" y="167" on="0"/>
        <pt x="586" y="280" on="1"/>
        <pt x="599" y="317" on="0"/>
        <pt x="607" y="364" on="1"/>
        <pt x="513" y="345" on="0"/>
        <pt x="462" y="280" on="1"/>
        <pt x="416" y="219" on="0"/>
      </contour>
    </TTGlyph>
    <TTGlyph name="atilde" xMin="-34" yMin="-27" xMax="675" yMax="756">
      <component glyphName="a" x="0" y="0" flags="0x1204"/>
      <component glyphName="tilde" x="186" y="0" flags="0x1004"/>
    </TTGlyph>
    <TTGlyph name="b" xMin="-86" yMin="-27" xMax="634" yMax="714">
      <contour>
        <pt x="415" y="155" on="1"/>
        <pt x="479" y="172" on="0"/>
        <pt x="613" y="232" on="1"/>
        <pt x="634" y="131" on="1"/>
        <pt x="509" y="68" on="0"/>
        <pt x="439" y="44" on="1"/>
        <pt x="338" y="11" on="0"/>
        <pt x="154" y="-27" on="1"/>
        <pt x="50" y="56" on="1"/>
        <pt x="24" y="-27" on="1"/>
        <pt x="-86" y="59" on="1"/>
        <pt x="-36" y="216" on="0"/>
        <pt x="130" y="516" on="1"/>
        <pt x="199" y="640" on="0"/>
        <pt x="249" y="714" on="1"/>
        <pt x="353" y="637" on="1"/>
        <pt x="309" y="573" on="0"/>
        <pt x="210" y="408" on="1"/>
        <pt x="269" y="462" on="0"/>
        <pt x="343" y="504" on="1"/>
        <pt x="499" y="382" on="1"/>
        <pt x="482" y="263" on="0"/>
      </contour>
      <contour>
        <pt x="116" y="108" on="1"/>
        <pt x="168" y="108" on="0"/>
        <pt x="228" y="126" on="0"/>
        <pt x="257" y="146" on="0"/>
        <pt x="297" y="200" on="0"/>
        <pt x="314" y="234" on="1"/>
        <pt x="352" y="312" on="0"/>
        <pt x="359" y="381" on="1"/>
        <pt x="297" y="359" on="0"/>
        <pt x="181" y="288" on="0"/>
        <pt x="144" y="248" on="1"/>
        <pt x="119" y="182" on="0"/>
      </contour>
    </TTGlyph>
    <TTGlyph name="backslash" xMin="46" yMin="-44" xMax="391" yMax="715">
      <contour>
        <pt x="309" y="-44" on="1"/>
        <pt x="195" y="320" on="0"/>
        <pt x="100" y="547" on="1"/>
        <pt x="76" y="604" on="0"/>
        <pt x="46" y="671" on="1"/>
        <pt x="129" y="715" on="1"/>
        <pt x="269" y="383" on="0"/>
        <pt x="348" y="139" on="1"/>
        <pt x="368" y="77" on="0"/>
        <pt x="391" y="4" on="1"/>
      </contour>
    </TTGlyph>
    <TTGlyph name="bar" xMin="201" yMin="-185" xMax="270" yMax="731">
      <contour>
        <pt x="201" y="731" on="1"/>
        <pt x="270" y="668" on="1"/>
        <pt x="270" y="-185" on="1"/>
        <pt x="201" y="-117" on="1"/>
      </contour>
    </TTGlyph>
    <TTGlyph name="braceleft" xMin="62" yMin="-166" xMax="609" yMax="764">
      <contour>
        <pt x="102" y="-166" on="1"/>
        <pt x="62" y="-39" on="0"/>
        <pt x="96" y="102" on="1"/>
        <pt x="117" y="190" on="0"/>
        <pt x="164" y="277" on="1"/>
        <pt x="178" y="305" on="0"/>
        <pt x="118" y="346" on="1"/>
        <pt x="100" y="358" on="0"/>
        <pt x="77" y="372" on="1"/>
        <pt x="119" y="454" on="1"/>
        <pt x="179" y="440" on="0"/>
        <pt x="253" y="444" on="0"/>
        <pt x="261" y="458" on="1"/>
        <pt x="280" y="492" on="0"/>
        <pt x="330" y="582" on="0"/>
        <pt x="365" y="626" on="1"/>
        <pt x="447" y="729" on="0"/>
        <pt x="564" y="764" on="1"/>
        <pt x="609" y="676" on="1"/>
        <pt x="492" y="624" on="0"/>
        <pt x="408" y="470" on="1"/>
        <pt x="384" y="427" on="0"/>
        <pt x="358" y="383" on="1"/>
        <pt x="304" y="356" on="0"/>
        <pt x="233" y="361" on="1"/>
        <pt x="269" y="284" on="0"/>
        <pt x="266" y="219" on="1"/>
        <pt x="178" y="63" on="0"/>
        <pt x="199" y="-145" on="1"/>
      </contour>
    </TTGlyph>
    <TTGlyph name="braceright" xMin="-154" yMin="-226" xMax="393" yMax="704">
      <component glyphName="braceleft" x="455" y="538" scale="-0.999938964844" flags="0x1004"/>
    </TTGlyph>
    <TTGlyph name="bracketleft" xMin="-8" yMin="-170" xMax="646" yMax="771">
      <contour>
        <pt x="123" y="-26" on="1"/>
        <pt x="221" y="-63" on="0"/>
        <pt x="287" y="-81" on="1"/>
        <pt x="259" y="-170" on="1"/>
        <pt x="162" y="-156" on="0"/>
        <pt x="81" y="-122" on="1"/>
        <pt x="-8" y="-35" on="1"/>
        <pt x="99" y="206" on="0"/>
        <pt x="173" y="340" on="1"/>
        <pt x="294" y="558" on="0"/>
        <pt x="436" y="771" on="1"/>
        <pt x="553" y="732" on="0"/>
        <pt x="616" y="705" on="0"/>
        <pt x="646" y="692" on="1"/>
        <pt x="614" y="607" on="1"/>
        <pt x="574" y="623" on="0"/>
        <pt x="496" y="647" on="1"/>
        <pt x="371" y="446" on="0"/>
        <pt x="314" y="344" on="1"/>
        <pt x="193" y="129" on="0"/>
      </contour>
    </TTGlyph>
    <TTGlyph name="bracketright" xMin="-177" yMin="-242" xMax="477" yMax="699">
      <component glyphName="bracketleft" x="469" y="529" scale="-0.999938964844" flags="0x1004"/>
    </TTGlyph>
    <TTGlyph name="brokenbar" xMin="201" yMin="-185" xMax="270" yMax="731">
      <contour>
        <pt x="201" y="404" on="1"/>
        <pt x="201" y="731" on="1"/>
        <pt x="270" y="668" on="1"/>
        <pt x="270" y="337" on="1"/>
      </contour>
      <contour>
        <pt x="201" y="210" on="1"/>
        <pt x="270" y="147" on="1"/>
        <pt x="270" y="-185" on="1"/>
        <pt x="201" y="-117" on="1"/>
      </contour>
    </TTGlyph>
    <TTGlyph name="bullet" xMin="44" yMin="195" xMax="280" yMax="431">
      <contour>
        <pt x="78" y="229" on="1"/>
        <pt x="44" y="263" on="0"/>
        <pt x="44" y="313" on="1"/>
        <pt x="44" y="363" on="0"/>
        <pt x="112" y="431" on="0"/>
        <pt x="161" y="431" on="1"/>
        <pt x="212" y="431" on="0"/>
        <pt x="280" y="363" on="0"/>
        <pt x="280" y="313" on="1"/>
        <pt x="280" y="263" on="0"/>
        <pt x="212" y="195" on="0"/>
        <pt x="112" y="195" on="0"/>
      </contour>
    </TTGlyph>
    <TTGlyph name="c" xMin="-32" yMin="-27" xMax="558" yMax="531">
      <contour>
        <pt x="110" y="103" on="1"/>
        <pt x="355" y="135" on="0"/>
        <pt x="536" y="232" on="1"/>
        <pt x="558" y="131" on="1"/>
        <pt x="404" y="34" on="0"/>
        <pt x="216" y="-10" on="1"/>
        <pt x="153" y="-24" on="0"/>
        <pt x="92" y="-27" on="1"/>
        <pt x="-32" y="88" on="1"/>
        <pt x="-32" y="159" on="0"/>
        <pt x="-23" y="198" on="1"/>
        <pt x="16" y="363" on="0"/>
        <pt x="168" y="464" on="1"/>
        <pt x="236" y="509" on="0"/>
        <pt x="306" y="531" on="1"/>
        <pt x="466" y="412" on="1"/>
        <pt x="461" y="389" on="0"/>
        <pt x="438" y="339" on="1"/>
        <pt x="400" y="255" on="0"/>
        <pt x="378" y="224" on="1"/>
        <pt x="252" y="304" on="1"/>
        <pt x="306" y="372" on="0"/>
        <pt x="320" y="418" on="1"/>
        <pt x="224" y="377" on="0"/>
        <pt x="164" y="286" on="1"/>
        <pt x="110" y="204" on="0"/>
      </contour>
    </TTGlyph>
    <TTGlyph name="caron" xMin="71" yMin="555" xMax="469" yMax="857">
      <contour>
        <pt x="469" y="663" on="1"/>
        <pt x="367" y="607" on="0"/>
        <pt x="238" y="555" on="1"/>
        <pt x="119" y="616" on="1"/>
        <pt x="90" y="726" on="0"/>
        <pt x="71" y="832" on="1"/>
        <pt x="170" y="857" on="1"/>
        <pt x="200" y="743" on="0"/>
        <pt x="230" y="674" on="1"/>
        <pt x="326" y="706" on="0"/>
        <pt x="392" y="736" on="0"/>
        <pt x="421" y="751" on="1"/>
      </contour>
    </TTGlyph>
    <TTGlyph name="caron.cap" xMin="161" yMin="627" xMax="586" yMax="920">
      <contour>
        <pt x="345" y="743" on="1"/>
        <pt x="452" y="773" on="0"/>
        <pt x="538" y="814" on="1"/>
        <pt x="586" y="726" on="1"/>
        <pt x="495" y="676" on="0"/>
        <pt x="392" y="639" on="0"/>
        <pt x="355" y="627" on="1"/>
        <pt x="236" y="688" on="1"/>
        <pt x="199" y="763" on="0"/>
        <pt x="170" y="861" on="0"/>
        <pt x="161" y="895" on="1"/>
        <pt x="260" y="920" on="1"/>
        <pt x="304" y="813" on="0"/>
      </contour>
    </TTGlyph>
    <TTGlyph name="ccedilla" xMin="-88" yMin="-223" xMax="558" yMax="531">
      <contour>
        <pt x="68" y="-113" on="1"/>
        <pt x="48" y="-89" on="0"/>
        <pt x="20" y="-67" on="1"/>
        <pt x="67" y="-3" on="1"/>
        <pt x="-32" y="88" on="1"/>
        <pt x="-32" y="159" on="0"/>
        <pt x="-23" y="198" on="1"/>
        <pt x="16" y="363" on="0"/>
        <pt x="168" y="464" on="1"/>
        <pt x="236" y="509" on="0"/>
        <pt x="306" y="531" on="1"/>
        <pt x="466" y="412" on="1"/>
        <pt x="461" y="389" on="0"/>
        <pt x="438" y="339" on="1"/>
        <pt x="400" y="255" on="0"/>
        <pt x="378" y="224" on="1"/>
        <pt x="252" y="304" on="1"/>
        <pt x="306" y="372" on="0"/>
        <pt x="320" y="418" on="1"/>
        <pt x="224" y="377" on="0"/>
        <pt x="164" y="286" on="1"/>
        <pt x="110" y="204" on="0"/>
        <pt x="110" y="103" on="1"/>
        <pt x="355" y="135" on="0"/>
        <pt x="536" y="232" on="1"/>
        <pt x="558" y="131" on="1"/>
        <pt x="401" y="32" on="0"/>
        <pt x="216" y="-9" on="1"/>
        <pt x="184" y="-17" on="0"/>
        <pt x="153" y="-21" on="1"/>
        <pt x="135" y="-47" on="1"/>
        <pt x="160" y="-66" on="0"/>
        <pt x="209" y="-113" on="1"/>
        <pt x="174" y="-188" on="1"/>
        <pt x="74" y="-218" on="0"/>
        <pt x="-74" y="-223" on="1"/>
        <pt x="-88" y="-142" on="1"/>
        <pt x="1" y="-133" on="0"/>
      </contour>
    </TTGlyph>
    <TTGlyph name="cedilla" xMin="-75" yMin="-214" xMax="222" yMax="62">
      <contour>
        <pt x="81" y="-104" on="1"/>
        <pt x="61" y="-80" on="0"/>
        <pt x="33" y="-58" on="1"/>
        <pt x="119" y="58" on="1"/>
        <pt x="217" y="62" on="1"/>
        <pt x="148" y="-38" on="1"/>
        <pt x="173" y="-57" on="0"/>
        <pt x="222" y="-104" on="1"/>
        <pt x="187" y="-179" on="1"/>
        <pt x="87" y="-209" on="0"/>
        <pt x="-61" y="-214" on="1"/>
        <pt x="-75" y="-133" on="1"/>
        <pt x="14" y="-124" on="0"/>
      </contour>
    </TTGlyph>
    <TTGlyph name="cent" xMin="1" yMin="-37" xMax="546" yMax="678">
      <contour>
        <pt x="1" y="16" on="1"/>
        <pt x="73" y="117" on="1"/>
        <pt x="42" y="143" on="1"/>
        <pt x="23" y="383" on="0"/>
        <pt x="216" y="533" on="1"/>
        <pt x="281" y="583" on="0"/>
        <pt x="348" y="609" on="1"/>
        <pt x="400" y="576" on="1"/>
        <pt x="477" y="678" on="1"/>
        <pt x="546" y="625" on="1"/>
        <pt x="476" y="528" on="1"/>
        <pt x="523" y="499" on="1"/>
        <pt x="511" y="435" on="0"/>
        <pt x="465" y="337" on="1"/>
        <pt x="339" y="400" on="1"/>
        <pt x="367" y="443" on="0"/>
        <pt x="380" y="488" on="1"/>
        <pt x="332" y="468" on="0"/>
        <pt x="247" y="397" on="0"/>
        <pt x="222" y="351" on="1"/>
        <pt x="177" y="265" on="0"/>
        <pt x="184" y="167" on="1"/>
        <pt x="308" y="190" on="0"/>
        <pt x="390" y="220" on="1"/>
        <pt x="425" y="106" on="1"/>
        <pt x="306" y="52" on="0"/>
        <pt x="178" y="31" on="1"/>
        <pt x="143" y="59" on="1"/>
        <pt x="70" y="-37" on="1"/>
      </contour>
    </TTGlyph>
    <TTGlyph name="circumflex" xMin="71" yMin="493" xMax="469" yMax="795">
      <contour>
        <pt x="309" y="675" on="1"/>
        <pt x="193" y="636" on="0"/>
        <pt x="119" y="598" on="1"/>
        <pt x="71" y="687" on="1"/>
        <pt x="183" y="748" on="0"/>
        <pt x="302" y="795" on="1"/>
        <pt x="421" y="734" on="1"/>
        <pt x="448" y="634" on="0"/>
        <pt x="463" y="551" on="0"/>
        <pt x="469" y="518" on="1"/>
        <pt x="370" y="493" on="1"/>
        <pt x="341" y="602" on="0"/>
      </contour>
    </TTGlyph>
    <TTGlyph name="circumflex.cap" xMin="161" yMin="628" xMax="586" yMax="921">
      <contour>
        <pt x="487" y="628" on="1"/>
        <pt x="446" y="727" on="0"/>
        <pt x="402" y="804" on="1"/>
        <pt x="318" y="781" on="0"/>
        <pt x="238" y="746" on="0"/>
        <pt x="209" y="733" on="1"/>
        <pt x="161" y="822" on="1"/>
        <pt x="251" y="871" on="0"/>
        <pt x="354" y="909" on="0"/>
        <pt x="392" y="921" on="1"/>
        <pt x="511" y="860" on="1"/>
        <pt x="552" y="778" on="0"/>
        <pt x="586" y="653" on="1"/>
      </contour>
    </TTGlyph>
    <TTGlyph name="colon" xMin="0" yMin="-100" xMax="348" yMax="468">
      <component glyphName="period" x="0" y="0" flags="0x1004"/>
      <component glyphName="period" x="162" y="365" flags="0x1004"/>
    </TTGlyph>
    <TTGlyph name="comma" xMin="-88" yMin="-223" xMax="187" yMax="103">
      <contour>
        <pt x="-88" y="-165" on="1"/>
        <pt x="12" y="-4" on="0"/>
        <pt x="57" y="103" on="1"/>
        <pt x="187" y="26" on="1"/>
        <pt x="114" y="-104" on="0"/>
        <pt x="18" y="-223" on="1"/>
      </contour>
    </TTGlyph>
    <TTGlyph name="commaaccent" xMin="-55" yMin="-290" xMax="190" yMax="-4">
      <contour>
        <pt x="-55" y="-236" on="1"/>
        <pt x="6" y="-151" on="0"/>
        <pt x="68" y="-4" on="1"/>
        <pt x="190" y="-77" on="1"/>
        <pt x="126" y="-195" on="0"/>
        <pt x="43" y="-290" on="1"/>
      </contour>
    </TTGlyph>
    <TTGlyph name="copyright" xMin="85" yMin="-172" xMax="1063" yMax="783">
      <contour>
        <pt x="190" y="-44" on="1"/>
        <pt x="85" y="74" on="0"/>
        <pt x="85" y="246" on="1"/>
        <pt x="85" y="330" on="0"/>
        <pt x="138" y="495" on="0"/>
        <pt x="190" y="564" on="1"/>
        <pt x="308" y="520" on="1"/>
        <pt x="263" y="463" on="0"/>
        <pt x="211" y="311" on="0"/>
        <pt x="211" y="176" on="0"/>
        <pt x="246" y="69" on="0"/>
        <pt x="282" y="28" on="1"/>
        <pt x="363" y="-61" on="0"/>
        <pt x="510" y="-61" on="1"/>
        <pt x="588" y="-61" on="0"/>
        <pt x="741" y="8" on="0"/>
        <pt x="864" y="128" on="0"/>
        <pt x="940" y="290" on="0"/>
        <pt x="940" y="384" on="1"/>
        <pt x="940" y="506" on="0"/>
        <pt x="855" y="582" on="1"/>
        <pt x="725" y="699" on="0"/>
        <pt x="472" y="637" on="1"/>
        <pt x="385" y="616" on="0"/>
        <pt x="310" y="580" on="1"/>
        <pt x="275" y="678" on="1"/>
        <pt x="387" y="741" on="0"/>
        <pt x="543" y="762" on="1"/>
        <pt x="694" y="783" on="0"/>
        <pt x="812" y="740" on="1"/>
        <pt x="970" y="683" on="0"/>
        <pt x="1032" y="541" on="1"/>
        <pt x="1063" y="471" on="0"/>
        <pt x="1063" y="389" on="1"/>
        <pt x="1063" y="268" on="0"/>
        <pt x="968" y="63" on="0"/>
        <pt x="812" y="-87" on="0"/>
        <pt x="613" y="-172" on="0"/>
        <pt x="402" y="-172" on="0"/>
        <pt x="243" y="-102" on="0"/>
      </contour>
      <contour>
        <pt x="448" y="171" on="1"/>
        <pt x="583" y="187" on="0"/>
        <pt x="716" y="220" on="1"/>
        <pt x="738" y="117" on="1"/>
        <pt x="650" y="86" on="0"/>
        <pt x="596" y="75" on="1"/>
        <pt x="509" y="57" on="0"/>
        <pt x="402" y="45" on="1"/>
        <pt x="303" y="139" on="1"/>
        <pt x="358" y="373" on="0"/>
        <pt x="534" y="521" on="1"/>
        <pt x="594" y="572" on="0"/>
        <pt x="670" y="604" on="1"/>
        <pt x="813" y="500" on="1"/>
        <pt x="797" y="438" on="0"/>
        <pt x="750" y="359" on="1"/>
        <pt x="737" y="337" on="0"/>
        <pt x="724" y="319" on="1"/>
        <pt x="631" y="373" on="1"/>
        <pt x="667" y="438" on="0"/>
        <pt x="684" y="483" on="0"/>
        <pt x="689" y="501" on="1"/>
        <pt x="598" y="457" on="0"/>
        <pt x="528" y="362" on="1"/>
        <pt x="465" y="273" on="0"/>
      </contour>
    </TTGlyph>
    <TTGlyph name="currency" xMin="13" yMin="25" xMax="603" yMax="614">
      <contour>
        <pt x="162" y="179" on="1"/>
        <pt x="104" y="152" on="0"/>
        <pt x="67" y="130" on="1"/>
        <pt x="13" y="217" on="1"/>
        <pt x="63" y="252" on="0"/>
        <pt x="110" y="278" on="1"/>
        <pt x="106" y="298" on="0"/>
        <pt x="106" y="319" on="1"/>
        <pt x="106" y="405" on="0"/>
        <pt x="164" y="465" on="1"/>
        <pt x="146" y="507" on="0"/>
        <pt x="116" y="560" on="1"/>
        <pt x="204" y="614" on="1"/>
        <pt x="230" y="575" on="0"/>
        <pt x="263" y="520" on="1"/>
        <pt x="287" y="526" on="0"/>
        <pt x="313" y="526" on="1"/>
        <pt x="399" y="526" on="0"/>
        <pt x="457" y="466" on="1"/>
        <pt x="506" y="488" on="0"/>
        <pt x="550" y="515" on="1"/>
        <pt x="603" y="426" on="1"/>
        <pt x="550" y="391" on="0"/>
        <pt x="510" y="367" on="1"/>
        <pt x="516" y="344" on="0"/>
        <pt x="516" y="319" on="1"/>
        <pt x="516" y="233" on="0"/>
        <pt x="453" y="172" on="1"/>
        <pt x="480" y="113" on="0"/>
        <pt x="503" y="78" on="1"/>
        <pt x="415" y="25" on="1"/>
        <pt x="380" y="73" on="0"/>
        <pt x="353" y="121" on="1"/>
        <pt x="336" y="117" on="0"/>
        <pt x="313" y="117" on="1"/>
        <pt x="222" y="117" on="0"/>
      </contour>
      <contour>
        <pt x="214" y="280" on="0"/>
        <pt x="270" y="224" on="0"/>
        <pt x="311" y="224" on="1"/>
        <pt x="350" y="224" on="0"/>
        <pt x="378" y="252" on="1"/>
        <pt x="405" y="279" on="0"/>
        <pt x="405" y="360" on="0"/>
        <pt x="351" y="415" on="0"/>
        <pt x="270" y="415" on="0"/>
        <pt x="214" y="360" on="0"/>
        <pt x="214" y="319" on="1"/>
      </contour>
    </TTGlyph>
    <TTGlyph name="d" xMin="-34" yMin="-27" xMax="654" yMax="714">
      <contour>
        <pt x="272" y="63" on="1"/>
        <pt x="193" y="1" on="0"/>
        <pt x="90" y="-27" on="1"/>
        <pt x="-34" y="88" on="1"/>
        <pt x="-34" y="167" on="0"/>
        <pt x="14" y="319" on="0"/>
        <pt x="108" y="441" on="0"/>
        <pt x="247" y="522" on="0"/>
        <pt x="338" y="530" on="1"/>
        <pt x="393" y="446" on="1"/>
        <pt x="471" y="597" on="0"/>
        <pt x="557" y="714" on="1"/>
        <pt x="654" y="630" on="1"/>
        <pt x="555" y="504" on="0"/>
        <pt x="449" y="272" on="1"/>
        <pt x="417" y="202" on="0"/>
        <pt x="392" y="135" on="1"/>
        <pt x="499" y="167" on="0"/>
        <pt x="616" y="232" on="1"/>
        <pt x="638" y="131" on="1"/>
        <pt x="570" y="80" on="0"/>
        <pt x="418" y="6" on="1"/>
        <pt x="375" y="-14" on="0"/>
        <pt x="349" y="-23" on="1"/>
      </contour>
      <contour>
        <pt x="106" y="117" on="1"/>
        <pt x="213" y="146" on="0"/>
        <pt x="301" y="259" on="1"/>
        <pt x="327" y="316" on="0"/>
        <pt x="340" y="401" on="1"/>
        <pt x="237" y="391" on="0"/>
        <pt x="171" y="310" on="1"/>
        <pt x="106" y="230" on="0"/>
      </contour>
    </TTGlyph>
    <TTGlyph name="degree" xMin="94" yMin="448" xMax="328" yMax="682">
      <component glyphName="ring" x="1" y="-107" flags="0x1004"/>
    </TTGlyph>
    <TTGlyph name="dieresis" xMin="72" yMin="529" xMax="487" yMax="784">
      <contour>
        <pt x="151" y="625" on="1"/>
        <pt x="118" y="625" on="0"/>
        <pt x="72" y="672" on="0"/>
        <pt x="72" y="705" on="1"/>
        <pt x="72" y="738" on="0"/>
        <pt x="118" y="784" on="0"/>
        <pt x="151" y="784" on="1"/>
        <pt x="184" y="784" on="0"/>
        <pt x="230" y="738" on="0"/>
        <pt x="230" y="705" on="1"/>
        <pt x="230" y="672" on="0"/>
        <pt x="184" y="625" on="0"/>
      </contour>
      <contour>
        <pt x="351" y="552" on="1"/>
        <pt x="328" y="575" on="0"/>
        <pt x="328" y="608" on="1"/>
        <pt x="328" y="641" on="0"/>
        <pt x="375" y="688" on="0"/>
        <pt x="408" y="688" on="1"/>
        <pt x="441" y="688" on="0"/>
        <pt x="487" y="641" on="0"/>
        <pt x="487" y="608" on="1"/>
        <pt x="487" y="575" on="0"/>
        <pt x="441" y="529" on="0"/>
        <pt x="408" y="529" on="1"/>
        <pt x="375" y="529" on="0"/>
      </contour>
    </TTGlyph>
    <TTGlyph name="dieresis.cap" xMin="139" yMin="693" xMax="554" yMax="948">
      <contour>
        <pt x="162" y="812" on="1"/>
        <pt x="139" y="835" on="0"/>
        <pt x="139" y="868" on="1"/>
        <pt x="139" y="901" on="0"/>
        <pt x="186" y="948" on="0"/>
        <pt x="219" y="948" on="1"/>
        <pt x="252" y="948" on="0"/>
        <pt x="298" y="901" on="0"/>
        <pt x="298" y="868" on="1"/>
        <pt x="298" y="835" on="0"/>
        <pt x="252" y="789" on="0"/>
        <pt x="219" y="789" on="1"/>
        <pt x="186" y="789" on="0"/>
      </contour>
      <contour>
        <pt x="419" y="716" on="1"/>
        <pt x="396" y="739" on="0"/>
        <pt x="396" y="772" on="1"/>
        <pt x="396" y="805" on="0"/>
        <pt x="442" y="851" on="0"/>
        <pt x="475" y="851" on="1"/>
        <pt x="508" y="851" on="0"/>
        <pt x="554" y="805" on="0"/>
        <pt x="554" y="772" on="1"/>
        <pt x="554" y="739" on="0"/>
        <pt x="508" y="693" on="0"/>
        <pt x="475" y="693" on="1"/>
        <pt x="442" y="693" on="0"/>
      </contour>
    </TTGlyph>
    <TTGlyph name="divide" xMin="64" yMin="41" xMax="488" yMax="588">
      <contour>
        <pt x="284" y="443" on="1"/>
        <pt x="260" y="468" on="0"/>
        <pt x="260" y="539" on="0"/>
        <pt x="309" y="588" on="0"/>
        <pt x="344" y="588" on="1"/>
        <pt x="379" y="588" on="0"/>
        <pt x="428" y="539" on="0"/>
        <pt x="428" y="503" on="1"/>
        <pt x="428" y="468" on="0"/>
        <pt x="379" y="419" on="0"/>
        <pt x="309" y="419" on="0"/>
      </contour>
      <contour>
        <pt x="442" y="190" on="1"/>
        <pt x="249" y="273" on="0"/>
        <pt x="64" y="319" on="1"/>
        <pt x="110" y="433" on="1"/>
        <pt x="302" y="383" on="0"/>
        <pt x="488" y="301" on="1"/>
      </contour>
      <contour>
        <pt x="174" y="41" on="0"/>
        <pt x="125" y="90" on="0"/>
        <pt x="125" y="161" on="0"/>
        <pt x="174" y="210" on="0"/>
        <pt x="209" y="210" on="1"/>
        <pt x="244" y="210" on="0"/>
        <pt x="293" y="161" on="0"/>
        <pt x="293" y="125" on="1"/>
        <pt x="293" y="90" on="0"/>
        <pt x="244" y="41" on="0"/>
      </contour>
    </TTGlyph>
    <TTGlyph name="dollar" xMin="-15" yMin="-84" xMax="619" yMax="742">
      <contour>
        <pt x="182" y="29" on="1"/>
        <pt x="146" y="-16" on="0"/>
        <pt x="94" y="-84" on="1"/>
        <pt x="16" y="-23" on="1"/>
        <pt x="57" y="28" on="0"/>
        <pt x="87" y="71" on="1"/>
        <pt x="27" y="102" on="0"/>
        <pt x="-15" y="129" on="1"/>
        <pt x="47" y="251" on="1"/>
        <pt x="181" y="166" on="0"/>
        <pt x="306" y="133" on="1"/>
        <pt x="283" y="176" on="0"/>
        <pt x="232" y="248" on="0"/>
        <pt x="210" y="284" on="1"/>
        <pt x="155" y="372" on="0"/>
        <pt x="141" y="443" on="1"/>
        <pt x="240" y="551" on="0"/>
        <pt x="336" y="617" on="1"/>
        <pt x="370" y="640" on="0"/>
        <pt x="406" y="663" on="1"/>
        <pt x="460" y="629" on="1"/>
        <pt x="541" y="742" on="1"/>
        <pt x="619" y="684" on="1"/>
        <pt x="545" y="577" on="1"/>
        <pt x="603" y="542" on="1"/>
        <pt x="591" y="470" on="0"/>
        <pt x="541" y="360" on="1"/>
        <pt x="419" y="419" on="1"/>
        <pt x="433" y="451" on="0"/>
        <pt x="448" y="516" on="0"/>
        <pt x="455" y="548" on="1"/>
        <pt x="395" y="508" on="0"/>
        <pt x="350" y="461" on="1"/>
        <pt x="333" y="444" on="0"/>
        <pt x="311" y="420" on="1"/>
        <pt x="322" y="370" on="0"/>
        <pt x="374" y="289" on="1"/>
        <pt x="396" y="254" on="0"/>
        <pt x="448" y="175" on="0"/>
        <pt x="473" y="126" on="1"/>
        <pt x="393" y="-16" on="1"/>
        <pt x="283" y="-7" on="0"/>
      </contour>
    </TTGlyph>
    <TTGlyph name="dotlessi" xMin="-81" yMin="-27" xMax="358" yMax="518">
      <contour>
        <pt x="92" y="126" on="1"/>
        <pt x="194" y="157" on="0"/>
        <pt x="337" y="232" on="1"/>
        <pt x="358" y="131" on="1"/>
        <pt x="261" y="68" on="0"/>
        <pt x="124" y="8" on="1"/>
        <pt x="78" y="-12" on="0"/>
        <pt x="34" y="-27" on="1"/>
        <pt x="-81" y="79" on="1"/>
        <pt x="-32" y="213" on="0"/>
        <pt x="95" y="413" on="1"/>
        <pt x="133" y="473" on="0"/>
        <pt x="169" y="518" on="1"/>
        <pt x="268" y="445" on="1"/>
        <pt x="195" y="345" on="0"/>
        <pt x="126" y="204" on="1"/>
        <pt x="106" y="162" on="0"/>
      </contour>
    </TTGlyph>
    <TTGlyph name="dotlessj" xMin="-204" yMin="-294" xMax="358" yMax="518">
      <contour>
        <pt x="25" y="8" on="1"/>
        <pt x="-31" y="-113" on="0"/>
        <pt x="-88" y="-294" on="1"/>
        <pt x="-204" y="-221" on="1"/>
        <pt x="-81" y="160" on="0"/>
        <pt x="114" y="443" on="1"/>
        <pt x="143" y="485" on="0"/>
        <pt x="169" y="518" on="1"/>
        <pt x="268" y="445" on="1"/>
        <pt x="148" y="280" on="0"/>
        <pt x="83" y="124" on="1"/>
        <pt x="157" y="146" on="0"/>
        <pt x="280" y="203" on="0"/>
        <pt x="337" y="232" on="1"/>
        <pt x="358" y="131" on="1"/>
        <pt x="268" y="72" on="0"/>
        <pt x="140" y="16" on="1"/>
        <pt x="96" y="-3" on="0"/>
        <pt x="52" y="-18" on="1"/>
      </contour>
    </TTGlyph>
    <TTGlyph name="e" xMin="-35" yMin="-27" xMax="564" yMax="531">
      <contour>
        <pt x="201" y="193" on="1"/>
        <pt x="154" y="193" on="0"/>
        <pt x="127" y="200" on="1"/>
        <pt x="111" y="161" on="0"/>
        <pt x="107" y="103" on="1"/>
        <pt x="279" y="113" on="0"/>
        <pt x="439" y="180" on="1"/>
        <pt x="493" y="202" on="0"/>
        <pt x="543" y="232" on="1"/>
        <pt x="564" y="131" on="1"/>
        <pt x="471" y="72" on="0"/>
        <pt x="344" y="27" on="1"/>
        <pt x="209" y="-21" on="0"/>
        <pt x="89" y="-27" on="1"/>
        <pt x="-35" y="88" on="1"/>
        <pt x="-35" y="226" on="0"/>
        <pt x="40" y="340" on="1"/>
        <pt x="94" y="419" on="0"/>
        <pt x="231" y="511" on="0"/>
        <pt x="294" y="531" on="1"/>
        <pt x="463" y="391" on="1"/>
        <pt x="438" y="287" on="0"/>
        <pt x="298" y="193" on="0"/>
      </contour>
      <contour>
        <pt x="169" y="290" on="1"/>
        <pt x="227" y="290" on="0"/>
        <pt x="270" y="322" on="1"/>
        <pt x="320" y="360" on="0"/>
        <pt x="320" y="428" on="1"/>
        <pt x="219" y="373" on="0"/>
      </contour>
    </TTGlyph>
    <TTGlyph name="eacute" xMin="-35" yMin="-27" xMax="701" yMax="817">
      <component glyphName="e" x="0" y="0" flags="0x1204"/>
      <component glyphName="acute" x="301" y="0" flags="0x1004"/>
    </TTGlyph>
    <TTGlyph name="ecircumflex" xMin="-35" yMin="-27" xMax="597" yMax="795">
      <component glyphName="e" x="0" y="0" flags="0x1204"/>
      <component glyphName="circumflex" x="128" y="0" flags="0x1004"/>
    </TTGlyph>
    <TTGlyph name="edieresis" xMin="-35" yMin="-27" xMax="640" yMax="776">
      <component glyphName="e" x="0" y="0" flags="0x1204"/>
      <component glyphName="dieresis" x="153" y="-8" flags="0x1004"/>
    </TTGlyph>
    <TTGlyph name="egrave" xMin="-35" yMin="-27" xMax="564" yMax="859">
      <component glyphName="e" x="0" y="0" flags="0x1204"/>
      <component glyphName="grave" x="197" y="0" flags="0x1004"/>
    </TTGlyph>
    <TTGlyph name="eight" xMin="-27" yMin="-47" xMax="588" yMax="678">
      <contour>
        <pt x="181" y="387" on="1"/>
        <pt x="153" y="452" on="0"/>
        <pt x="153" y="537" on="0"/>
        <pt x="185" y="603" on="0"/>
        <pt x="214" y="626" on="1"/>
        <pt x="271" y="670" on="0"/>
        <pt x="369" y="678" on="1"/>
        <pt x="544" y="579" on="1"/>
        <pt x="561" y="547" on="0"/>
        <pt x="588" y="480" on="0"/>
        <pt x="588" y="445" on="1"/>
        <pt x="588" y="350" on="0"/>
        <pt x="475" y="314" on="1"/>
        <pt x="442" y="304" on="0"/>
        <pt x="407" y="300" on="1"/>
        <pt x="464" y="222" on="0"/>
        <pt x="464" y="148" on="1"/>
        <pt x="464" y="67" on="0"/>
        <pt x="387" y="10" on="1"/>
        <pt x="314" y="-43" on="0"/>
        <pt x="210" y="-47" on="1"/>
        <pt x="26" y="56" on="1"/>
        <pt x="6" y="88" on="0"/>
        <pt x="-27" y="161" on="0"/>
        <pt x="-27" y="249" on="0"/>
        <pt x="7" y="314" on="0"/>
        <pt x="36" y="336" on="1"/>
        <pt x="87" y="376" on="0"/>
      </contour>
      <contour>
        <pt x="457" y="483" on="1"/>
        <pt x="457" y="524" on="0"/>
        <pt x="422" y="575" on="1"/>
        <pt x="362" y="573" on="0"/>
        <pt x="296" y="524" on="0"/>
        <pt x="296" y="482" on="1"/>
        <pt x="296" y="450" on="0"/>
        <pt x="335" y="390" on="1"/>
        <pt x="457" y="407" on="0"/>
      </contour>
      <contour>
        <pt x="182" y="288" on="0"/>
        <pt x="108" y="244" on="0"/>
        <pt x="108" y="146" on="0"/>
        <pt x="161" y="77" on="1"/>
        <pt x="217" y="79" on="0"/>
        <pt x="285" y="115" on="0"/>
        <pt x="315" y="152" on="0"/>
        <pt x="315" y="179" on="1"/>
        <pt x="315" y="206" on="0"/>
        <pt x="274" y="263" on="0"/>
        <pt x="244" y="294" on="1"/>
      </contour>
    </TTGlyph>
    <TTGlyph name="ellipsis" xMin="0" yMin="-100" xMax="726" yMax="103">
      <component glyphName="period" x="0" y="0" flags="0x1004"/>
      <component glyphName="period" x="270" y="0" flags="0x1004"/>
      <component glyphName="period" x="540" y="0" flags="0x1004"/>
    </TTGlyph>
    <TTGlyph name="emdash" xMin="47" yMin="122" xMax="772" yMax="416">
      <contour>
        <pt x="735" y="122" on="1"/>
        <pt x="394" y="241" on="0"/>
        <pt x="47" y="299" on="1"/>
        <pt x="83" y="416" on="1"/>
        <pt x="401" y="358" on="0"/>
        <pt x="772" y="238" on="1"/>
      </contour>
    </TTGlyph>
    <TTGlyph name="endash" xMin="40" yMin="178" xMax="558" yMax="421">
      <contour>
        <pt x="517" y="178" on="1"/>
        <pt x="254" y="262" on="0"/>
        <pt x="40" y="306" on="1"/>
        <pt x="80" y="421" on="1"/>
        <pt x="296" y="376" on="0"/>
        <pt x="558" y="292" on="1"/>
      </contour>
    </TTGlyph>
    <TTGlyph name="equal" xMin="16" yMin="56" xMax="520" yMax="514">
      <component glyphName="hyphen" x="-21" y="-125" flags="0x1004"/>
      <component glyphName="hyphen" x="59" y="90" flags="0x1004"/>
    </TTGlyph>
    <TTGlyph name="eth" xMin="-51" yMin="-27" xMax="607" yMax="725">
      <contour>
        <pt x="422" y="212" on="1"/>
        <pt x="506" y="216" on="0"/>
        <pt x="586" y="232" on="1"/>
        <pt x="607" y="131" on="1"/>
        <pt x="491" y="82" on="0"/>
        <pt x="386" y="58" on="1"/>
        <pt x="345" y="106" on="1"/>
        <pt x="303" y="63" on="0"/>
        <pt x="176" y="-11" on="0"/>
        <pt x="91" y="-27" on="1"/>
        <pt x="-51" y="92" on="1"/>
        <pt x="-43" y="186" on="0"/>
        <pt x="2" y="278" on="1"/>
        <pt x="18" y="311" on="0"/>
        <pt x="39" y="338" on="1"/>
        <pt x="81" y="392" on="0"/>
        <pt x="182" y="454" on="0"/>
        <pt x="249" y="474" on="1"/>
        <pt x="340" y="382" on="1"/>
        <pt x="356" y="442" on="0"/>
        <pt x="358" y="526" on="1"/>
        <pt x="314" y="520" on="0"/>
        <pt x="267" y="510" on="1"/>
        <pt x="252" y="619" on="1"/>
        <pt x="302" y="629" on="0"/>
        <pt x="353" y="635" on="1"/>
        <pt x="343" y="705" on="1"/>
        <pt x="481" y="725" on="1"/>
        <pt x="488" y="684" on="0"/>
        <pt x="493" y="649" on="1"/>
        <pt x="519" y="651" on="0"/>
        <pt x="593" y="654" on="1"/>
        <pt x="599" y="545" on="1"/>
        <pt x="502" y="541" on="0"/>
        <pt x="499" y="541" on="1"/>
        <pt x="499" y="355" on="0"/>
      </contour>
      <contour>
        <pt x="89" y="108" on="1"/>
        <pt x="182" y="129" on="0"/>
        <pt x="248" y="207" on="1"/>
        <pt x="312" y="283" on="0"/>
        <pt x="336" y="366" on="1"/>
        <pt x="227" y="343" on="0"/>
        <pt x="162" y="272" on="1"/>
        <pt x="102" y="205" on="0"/>
      </contour>
    </TTGlyph>
    <TTGlyph name="exclam" xMin="0" yMin="-100" xMax="486" yMax="718">
      <contour>
        <pt x="99" y="246" on="1"/>
        <pt x="159" y="383" on="0"/>
        <pt x="203" y="458" on="1"/>
        <pt x="272" y="577" on="0"/>
        <pt x="374" y="718" on="1"/>
        <pt x="486" y="619" on="1"/>
        <pt x="384" y="478" on="0"/>
        <pt x="341" y="405" on="1"/>
        <pt x="270" y="284" on="0"/>
        <pt x="211" y="143" on="1"/>
      </contour>
      <contour>
        <pt x="0" y="49" on="0"/>
        <pt x="54" y="103" on="0"/>
        <pt x="93" y="103" on="1"/>
        <pt x="132" y="103" on="0"/>
        <pt x="186" y="49" on="0"/>
        <pt x="186" y="10" on="1"/>
        <pt x="186" y="-50" on="0"/>
        <pt x="129" y="-76" on="1"/>
        <pt x="73" y="-100" on="0"/>
        <pt x="27" y="-56" on="1"/>
        <pt x="0" y="-30" on="0"/>
      </contour>
    </TTGlyph>
    <TTGlyph name="exclamdown" xMin="-1" yMin="-86" xMax="532" yMax="715">
      <contour>
        <pt x="439" y="529" on="1"/>
        <pt x="402" y="529" on="0"/>
        <pt x="373" y="556" on="1"/>
        <pt x="346" y="583" on="0"/>
        <pt x="346" y="661" on="0"/>
        <pt x="400" y="715" on="0"/>
        <pt x="439" y="715" on="1"/>
        <pt x="478" y="715" on="0"/>
        <pt x="532" y="661" on="0"/>
        <pt x="532" y="622" on="1"/>
        <pt x="532" y="562" on="0"/>
        <pt x="475" y="536" on="1"/>
        <pt x="458" y="529" on="0"/>
      </contour>
      <contour>
        <pt x="-1" y="12" on="1"/>
        <pt x="83" y="188" on="0"/>
        <pt x="192" y="362" on="1"/>
        <pt x="229" y="421" on="0"/>
        <pt x="273" y="489" on="1"/>
        <pt x="382" y="388" on="1"/>
        <pt x="234" y="173" on="0"/>
        <pt x="110" y="-86" on="1"/>
      </contour>
    </TTGlyph>
    <TTGlyph name="f" xMin="-115" yMin="-284" xMax="579" yMax="762">
      <contour>
        <pt x="-115" y="-198" on="1"/>
        <pt x="-67" y="-41" on="0"/>
        <pt x="21" y="147" on="1"/>
        <pt x="-29" y="197" on="0"/>
        <pt x="-75" y="251" on="1"/>
        <pt x="-12" y="328" on="1"/>
        <pt x="30" y="286" on="1"/>
        <pt x="48" y="268" on="0"/>
        <pt x="65" y="253" on="1"/>
        <pt x="113" y="421" on="0"/>
        <pt x="210" y="562" on="1"/>
        <pt x="297" y="689" on="0"/>
        <pt x="402" y="762" on="1"/>
        <pt x="571" y="641" on="1"/>
        <pt x="545" y="498" on="0"/>
        <pt x="408" y="256" on="0"/>
        <pt x="303" y="171" on="1"/>
        <pt x="433" y="193" on="0"/>
        <pt x="558" y="232" on="1"/>
        <pt x="579" y="131" on="1"/>
        <pt x="401" y="74" on="0"/>
        <pt x="186" y="31" on="1"/>
        <pt x="125" y="70" on="1"/>
        <pt x="52" y="-108" on="0"/>
        <pt x="5" y="-284" on="1"/>
      </contour>
      <contour>
        <pt x="160" y="180" on="1"/>
        <pt x="262" y="266" on="0"/>
        <pt x="346" y="403" on="1"/>
        <pt x="427" y="537" on="0"/>
        <pt x="444" y="637" on="1"/>
        <pt x="233" y="426" on="0"/>
      </contour>
    </TTGlyph>
    <TTGlyph name="five" xMin="-61" yMin="-13" xMax="607" yMax="667">
      <contour>
        <pt x="553" y="442" on="1"/>
        <pt x="401" y="507" on="0"/>
        <pt x="292" y="533" on="1"/>
        <pt x="196" y="395" on="1"/>
        <pt x="314" y="361" on="0"/>
        <pt x="434" y="308" on="1"/>
        <pt x="482" y="176" on="1"/>
        <pt x="417" y="79" on="0"/>
        <pt x="234" y="-13" on="0"/>
        <pt x="41" y="-13" on="0"/>
        <pt x="-46" y="14" on="1"/>
        <pt x="-61" y="148" on="1"/>
        <pt x="89" y="95" on="0"/>
        <pt x="222" y="142" on="1"/>
        <pt x="282" y="164" on="0"/>
        <pt x="327" y="217" on="1"/>
        <pt x="205" y="266" on="0"/>
        <pt x="74" y="301" on="1"/>
        <pt x="67" y="423" on="1"/>
        <pt x="208" y="626" on="1"/>
        <pt x="276" y="655" on="0"/>
        <pt x="353" y="667" on="1"/>
        <pt x="449" y="642" on="0"/>
        <pt x="566" y="594" on="0"/>
        <pt x="607" y="577" on="1"/>
      </contour>
    </TTGlyph>
    <TTGlyph name="four" xMin="27" yMin="-29" xMax="645" yMax="680">
      <contour>
        <pt x="525" y="112" on="1"/>
        <pt x="479" y="130" on="0"/>
        <pt x="390" y="161" on="1"/>
        <pt x="331" y="43" on="0"/>
        <pt x="301" y="-29" on="1"/>
        <pt x="192" y="67" on="1"/>
        <pt x="225" y="144" on="0"/>
        <pt x="255" y="203" on="1"/>
        <pt x="180" y="224" on="0"/>
        <pt x="48" y="257" on="1"/>
        <pt x="27" y="402" on="1"/>
        <pt x="134" y="540" on="0"/>
        <pt x="322" y="680" on="1"/>
        <pt x="419" y="602" on="1"/>
        <pt x="347" y="542" on="0"/>
        <pt x="226" y="435" on="0"/>
        <pt x="168" y="372" on="1"/>
        <pt x="270" y="342" on="0"/>
        <pt x="323" y="324" on="1"/>
        <pt x="423" y="491" on="0"/>
        <pt x="550" y="651" on="1"/>
        <pt x="645" y="573" on="1"/>
        <pt x="544" y="439" on="0"/>
        <pt x="453" y="278" on="1"/>
        <pt x="540" y="246" on="0"/>
        <pt x="578" y="230" on="1"/>
      </contour>
    </TTGlyph>
    <TTGlyph name="g" xMin="-125" yMin="-294" xMax="646" yMax="512">
      <contour>
        <pt x="-125" y="-72" on="1"/>
        <pt x="-63" y="-16" on="0"/>
        <pt x="19" y="25" on="1"/>
        <pt x="-37" y="78" on="1"/>
        <pt x="-37" y="157" on="0"/>
        <pt x="14" y="307" on="0"/>
        <pt x="112" y="426" on="0"/>
        <pt x="254" y="504" on="0"/>
        <pt x="345" y="512" on="1"/>
        <pt x="401" y="418" on="1"/>
        <pt x="432" y="463" on="0"/>
        <pt x="459" y="495" on="1"/>
        <pt x="556" y="411" on="1"/>
        <pt x="498" y="334" on="0"/>
        <pt x="432" y="216" on="1"/>
        <pt x="412" y="180" on="0"/>
        <pt x="397" y="146" on="1"/>
        <pt x="550" y="190" on="0"/>
        <pt x="625" y="232" on="1"/>
        <pt x="646" y="131" on="1"/>
        <pt x="564" y="70" on="0"/>
        <pt x="468" y="22" on="1"/>
        <pt x="433" y="4" on="0"/>
        <pt x="407" y="-5" on="1"/>
        <pt x="364" y="43" on="1"/>
        <pt x="325" y="-131" on="0"/>
        <pt x="252" y="-228" on="1"/>
        <pt x="227" y="-262" on="0"/>
        <pt x="197" y="-294" on="1"/>
        <pt x="84" y="-291" on="0"/>
        <pt x="-44" y="-259" on="1"/>
        <pt x="-85" y="-249" on="0"/>
        <pt x="-120" y="-237" on="1"/>
      </contour>
      <contour>
        <pt x="103" y="103" on="1"/>
        <pt x="162" y="120" on="0"/>
        <pt x="193" y="138" on="1"/>
        <pt x="251" y="174" on="0"/>
        <pt x="293" y="229" on="1"/>
        <pt x="323" y="295" on="0"/>
        <pt x="337" y="382" on="1"/>
        <pt x="235" y="372" on="0"/>
        <pt x="168" y="294" on="1"/>
        <pt x="103" y="217" on="0"/>
      </contour>
      <contour>
        <pt x="-24" y="-145" on="1"/>
        <pt x="74" y="-168" on="0"/>
        <pt x="128" y="-168" on="1"/>
        <pt x="190" y="-115" on="0"/>
        <pt x="230" y="5" on="1"/>
        <pt x="73" y="-58" on="0"/>
      </contour>
    </TTGlyph>
    <TTGlyph name="germandbls" xMin="-87" yMin="-35" xMax="706" yMax="672">
      <contour>
        <pt x="461" y="495" on="1"/>
        <pt x="398" y="529" on="0"/>
        <pt x="304" y="561" on="1"/>
        <pt x="185" y="369" on="0"/>
        <pt x="86" y="126" on="1"/>
        <pt x="53" y="44" on="0"/>
        <pt x="31" y="-29" on="1"/>
        <pt x="-87" y="49" on="1"/>
        <pt x="-43" y="195" on="0"/>
        <pt x="98" y="460" on="1"/>
        <pt x="138" y="534" on="0"/>
        <pt x="175" y="598" on="1"/>
        <pt x="244" y="643" on="0"/>
        <pt x="336" y="672" on="1"/>
        <pt x="481" y="633" on="0"/>
        <pt x="590" y="559" on="1"/>
        <pt x="606" y="431" on="1"/>
        <pt x="476" y="377" on="0"/>
        <pt x="418" y="313" on="1"/>
        <pt x="439" y="281" on="0"/>
        <pt x="518" y="211" on="0"/>
        <pt x="560" y="171" on="1"/>
        <pt x="635" y="206" on="0"/>
        <pt x="684" y="232" on="1"/>
        <pt x="706" y="131" on="1"/>
        <pt x="537" y="12" on="0"/>
        <pt x="315" y="-35" on="1"/>
        <pt x="219" y="21" on="0"/>
        <pt x="153" y="87" on="1"/>
        <pt x="231" y="181" on="1"/>
        <pt x="284" y="130" on="0"/>
        <pt x="347" y="93" on="1"/>
        <pt x="387" y="103" on="0"/>
        <pt x="433" y="119" on="1"/>
        <pt x="327" y="222" on="1"/>
        <pt x="262" y="286" on="0"/>
        <pt x="245" y="312" on="1"/>
        <pt x="308" y="407" on="0"/>
      </contour>
    </TTGlyph>
    <TTGlyph name="grave" xMin="88" yMin="544" xMax="324" yMax="859">
      <contour>
        <pt x="226" y="544" on="1"/>
        <pt x="168" y="679" on="0"/>
        <pt x="88" y="797" on="1"/>
        <pt x="201" y="859" on="1"/>
        <pt x="267" y="739" on="0"/>
        <pt x="324" y="587" on="1"/>
      </contour>
    </TTGlyph>
    <TTGlyph name="grave.cap" xMin="101" yMin="666" xMax="394" yMax="950">
      <contour>
        <pt x="322" y="666" on="1"/>
        <pt x="227" y="766" on="0"/>
        <pt x="101" y="859" on="1"/>
        <pt x="181" y="950" on="1"/>
        <pt x="311" y="837" on="0"/>
        <pt x="394" y="741" on="1"/>
      </contour>
    </TTGlyph>
    <TTGlyph name="greater" xMin="36" yMin="79" xMax="403" yMax="521">
      <component glyphName="less" x="514" y="561" scale="-0.999938964844" flags="0x1004"/>
    </TTGlyph>
    <TTGlyph name="guillemotleft" xMin="64" yMin="90" xMax="679" yMax="531">
      <component glyphName="guilsinglleft" x="288" y="-8" flags="0x1004"/>
      <component glyphName="guilsinglleft" x="0" y="18" flags="0x1004"/>
    </TTGlyph>
    <TTGlyph name="guillemotright" xMin="63" yMin="72" xMax="679" yMax="513">
      <component glyphName="guilsinglright" x="0" y="9" flags="0x1004"/>
      <component glyphName="guilsinglright" x="288" y="-17" flags="0x1004"/>
    </TTGlyph>
    <TTGlyph name="guilsinglleft" xMin="64" yMin="98" xMax="391" yMax="513">
      <contour>
        <pt x="222" y="98" on="1"/>
        <pt x="152" y="177" on="0"/>
        <pt x="64" y="316" on="1"/>
        <pt x="121" y="416" on="1"/>
        <pt x="214" y="471" on="0"/>
        <pt x="341" y="513" on="1"/>
        <pt x="391" y="426" on="1"/>
        <pt x="272" y="368" on="0"/>
        <pt x="202" y="323" on="1"/>
        <pt x="246" y="239" on="0"/>
        <pt x="300" y="157" on="1"/>
      </contour>
    </TTGlyph>
    <TTGlyph name="guilsinglright" xMin="63" yMin="89" xMax="391" yMax="504">
      <contour>
        <pt x="232" y="504" on="1"/>
        <pt x="323" y="401" on="0"/>
        <pt x="391" y="293" on="1"/>
        <pt x="334" y="193" on="1"/>
        <pt x="227" y="131" on="0"/>
        <pt x="113" y="89" on="1"/>
        <pt x="63" y="176" on="1"/>
        <pt x="174" y="232" on="0"/>
        <pt x="251" y="285" on="1"/>
        <pt x="224" y="337" on="0"/>
        <pt x="155" y="445" on="1"/>
      </contour>
    </TTGlyph>
    <TTGlyph name="h" xMin="-81" yMin="-27" xMax="655" yMax="714">
      <contour>
        <pt x="188" y="349" on="1"/>
        <pt x="281" y="420" on="0"/>
        <pt x="402" y="484" on="1"/>
        <pt x="523" y="389" on="1"/>
        <pt x="490" y="247" on="0"/>
        <pt x="407" y="133" on="1"/>
        <pt x="507" y="167" on="0"/>
        <pt x="634" y="232" on="1"/>
        <pt x="655" y="131" on="1"/>
        <pt x="614" y="104" on="0"/>
        <pt x="530" y="62" on="1"/>
        <pt x="386" y="-9" on="0"/>
        <pt x="331" y="-27" on="1"/>
        <pt x="207" y="61" on="1"/>
        <pt x="267" y="133" on="0"/>
        <pt x="348" y="274" on="0"/>
        <pt x="360" y="327" on="1"/>
        <pt x="229" y="262" on="0"/>
        <pt x="146" y="208" on="0"/>
        <pt x="113" y="185" on="1"/>
        <pt x="64" y="64" on="0"/>
        <pt x="38" y="-27" on="1"/>
        <pt x="-81" y="50" on="1"/>
        <pt x="-48" y="163" on="0"/>
        <pt x="64" y="388" on="1"/>
        <pt x="166" y="594" on="0"/>
        <pt x="247" y="714" on="1"/>
        <pt x="349" y="637" on="1"/>
        <pt x="265" y="501" on="0"/>
      </contour>
    </TTGlyph>
    <TTGlyph name="hbar" xMin="-81" yMin="-27" xMax="655" yMax="714">
      <contour>
        <pt x="188" y="349" on="1"/>
        <pt x="281" y="420" on="0"/>
        <pt x="402" y="484" on="1"/>
        <pt x="523" y="389" on="1"/>
        <pt x="490" y="247" on="0"/>
        <pt x="407" y="133" on="1"/>
        <pt x="507" y="167" on="0"/>
        <pt x="634" y="232" on="1"/>
        <pt x="655" y="131" on="1"/>
        <pt x="614" y="104" on="0"/>
        <pt x="530" y="62" on="1"/>
        <pt x="386" y="-9" on="0"/>
        <pt x="331" y="-27" on="1"/>
        <pt x="207" y="61" on="1"/>
        <pt x="267" y="133" on="0"/>
        <pt x="348" y="274" on="0"/>
        <pt x="360" y="327" on="1"/>
        <pt x="229" y="262" on="0"/>
        <pt x="146" y="208" on="0"/>
        <pt x="113" y="185" on="1"/>
        <pt x="64" y="64" on="0"/>
        <pt x="38" y="-27" on="1"/>
        <pt x="-81" y="50" on="1"/>
        <pt x="-48" y="163" on="0"/>
        <pt x="64" y="388" on="1"/>
        <pt x="111" y="483" on="0"/>
        <pt x="155" y="561" on="1"/>
        <pt x="123" y="577" on="0"/>
        <pt x="91" y="591" on="1"/>
        <pt x="139" y="677" on="1"/>
        <pt x="171" y="664" on="0"/>
        <pt x="205" y="648" on="1"/>
        <pt x="228" y="685" on="0"/>
        <pt x="247" y="714" on="1"/>
        <pt x="349" y="637" on="1"/>
        <pt x="333" y="612" on="0"/>
        <pt x="318" y="586" on="1"/>
        <pt x="349" y="567" on="0"/>
        <pt x="379" y="547" on="1"/>
        <pt x="325" y="463" on="1"/>
        <pt x="297" y="482" on="0"/>
        <pt x="268" y="500" on="1"/>
        <pt x="267" y="498" on="0"/>
        <pt x="226" y="424" on="0"/>
      </contour>
    </TTGlyph>
    <TTGlyph name="hyphen" xMin="37" yMin="181" xMax="461" yMax="424">
      <contour>
        <pt x="415" y="181" on="1"/>
        <pt x="222" y="264" on="0"/>
        <pt x="37" y="310" on="1"/>
        <pt x="83" y="424" on="1"/>
        <pt x="275" y="374" on="0"/>
        <pt x="461" y="292" on="1"/>
      </contour>
    </TTGlyph>
    <TTGlyph name="i" xMin="-81" yMin="-27" xMax="382" yMax="705">
      <contour>
        <pt x="243" y="566" on="1"/>
        <pt x="220" y="590" on="0"/>
        <pt x="220" y="624" on="1"/>
        <pt x="220" y="658" on="0"/>
        <pt x="267" y="705" on="0"/>
        <pt x="301" y="705" on="1"/>
        <pt x="335" y="705" on="0"/>
        <pt x="382" y="658" on="0"/>
        <pt x="382" y="624" on="1"/>
        <pt x="382" y="590" on="0"/>
        <pt x="335" y="543" on="0"/>
        <pt x="301" y="543" on="1"/>
        <pt x="267" y="543" on="0"/>
      </contour>
      <contour>
        <pt x="92" y="126" on="1"/>
        <pt x="194" y="157" on="0"/>
        <pt x="337" y="232" on="1"/>
        <pt x="358" y="131" on="1"/>
        <pt x="261" y="68" on="0"/>
        <pt x="124" y="8" on="1"/>
        <pt x="78" y="-12" on="0"/>
        <pt x="34" y="-27" on="1"/>
        <pt x="-81" y="79" on="1"/>
        <pt x="-32" y="213" on="0"/>
        <pt x="95" y="413" on="1"/>
        <pt x="133" y="473" on="0"/>
        <pt x="169" y="518" on="1"/>
        <pt x="268" y="445" on="1"/>
        <pt x="195" y="345" on="0"/>
        <pt x="126" y="204" on="1"/>
        <pt x="106" y="162" on="0"/>
      </contour>
    </TTGlyph>
    <TTGlyph name="iacute" xMin="-81" yMin="-27" xMax="574" yMax="817">
      <component glyphName="dotlessi" x="0" y="0" flags="0x1204"/>
      <component glyphName="acute" x="174" y="0" flags="0x1004"/>
    </TTGlyph>
    <TTGlyph name="icircumflex" xMin="-81" yMin="-27" xMax="473" yMax="795">
      <component glyphName="dotlessi" x="0" y="0" flags="0x1204"/>
      <component glyphName="circumflex" x="4" y="0" flags="0x1004"/>
    </TTGlyph>
    <TTGlyph name="idieresis" xMin="-81" yMin="-27" xMax="521" yMax="784">
      <component glyphName="dotlessi" x="0" y="0" flags="0x1204"/>
      <component glyphName="dieresis" x="34" y="0" flags="0x1004"/>
    </TTGlyph>
    <TTGlyph name="igrave" xMin="-81" yMin="-27" xMax="378" yMax="859">
      <component glyphName="dotlessi" x="0" y="0" flags="0x1204"/>
      <component glyphName="grave" x="54" y="0" flags="0x1004"/>
    </TTGlyph>
    <TTGlyph name="ij" xMin="-81" yMin="-294" xMax="713" yMax="705">
      <contour>
        <pt x="551" y="624" on="1"/>
        <pt x="551" y="658" on="0"/>
        <pt x="598" y="705" on="0"/>
        <pt x="632" y="705" on="1"/>
        <pt x="666" y="705" on="0"/>
        <pt x="713" y="658" on="0"/>
        <pt x="713" y="624" on="1"/>
        <pt x="713" y="590" on="0"/>
        <pt x="666" y="543" on="0"/>
        <pt x="632" y="543" on="1"/>
        <pt x="598" y="543" on="0"/>
        <pt x="551" y="590" on="0"/>
      </contour>
      <contour>
        <pt x="243" y="566" on="1"/>
        <pt x="220" y="590" on="0"/>
        <pt x="220" y="624" on="1"/>
        <pt x="220" y="658" on="0"/>
        <pt x="267" y="705" on="0"/>
        <pt x="301" y="705" on="1"/>
        <pt x="335" y="705" on="0"/>
        <pt x="382" y="658" on="0"/>
        <pt x="382" y="624" on="1"/>
        <pt x="382" y="590" on="0"/>
        <pt x="335" y="543" on="0"/>
        <pt x="301" y="543" on="1"/>
        <pt x="267" y="543" on="0"/>
      </contour>
      <contour>
        <pt x="234" y="60" on="1"/>
        <pt x="119" y="2" on="0"/>
        <pt x="34" y="-27" on="1"/>
        <pt x="-81" y="79" on="1"/>
        <pt x="-32" y="213" on="0"/>
        <pt x="95" y="413" on="1"/>
        <pt x="133" y="473" on="0"/>
        <pt x="169" y="518" on="1"/>
        <pt x="268" y="445" on="1"/>
        <pt x="195" y="345" on="0"/>
        <pt x="126" y="204" on="1"/>
        <pt x="106" y="162" on="0"/>
        <pt x="92" y="126" on="1"/>
        <pt x="191" y="157" on="0"/>
        <pt x="309" y="217" on="1"/>
        <pt x="396" y="382" on="0"/>
        <pt x="500" y="518" on="1"/>
        <pt x="599" y="445" on="1"/>
        <pt x="479" y="280" on="0"/>
        <pt x="414" y="124" on="1"/>
        <pt x="488" y="146" on="0"/>
        <pt x="611" y="203" on="0"/>
        <pt x="668" y="232" on="1"/>
        <pt x="689" y="131" on="1"/>
        <pt x="599" y="72" on="0"/>
        <pt x="470" y="16" on="1"/>
        <pt x="427" y="-3" on="0"/>
        <pt x="383" y="-18" on="1"/>
        <pt x="356" y="8" on="1"/>
        <pt x="300" y="-113" on="0"/>
        <pt x="243" y="-294" on="1"/>
        <pt x="127" y="-221" on="1"/>
        <pt x="165" y="-100" on="0"/>
      </contour>
    </TTGlyph>
    <TTGlyph name="itilde" xMin="-81" yMin="-27" xMax="506" yMax="756">
      <component glyphName="dotlessi" x="0" y="0" flags="0x1204"/>
      <component glyphName="tilde" x="17" y="0" flags="0x1004"/>
    </TTGlyph>
    <TTGlyph name="j" xMin="-204" yMin="-294" xMax="382" yMax="705">
      <contour>
        <pt x="243" y="566" on="1"/>
        <pt x="220" y="590" on="0"/>
        <pt x="220" y="624" on="1"/>
        <pt x="220" y="658" on="0"/>
        <pt x="267" y="705" on="0"/>
        <pt x="301" y="705" on="1"/>
        <pt x="335" y="705" on="0"/>
        <pt x="382" y="658" on="0"/>
        <pt x="382" y="624" on="1"/>
        <pt x="382" y="590" on="0"/>
        <pt x="335" y="543" on="0"/>
        <pt x="301" y="543" on="1"/>
        <pt x="267" y="543" on="0"/>
      </contour>
      <contour>
        <pt x="25" y="8" on="1"/>
        <pt x="-31" y="-113" on="0"/>
        <pt x="-88" y="-294" on="1"/>
        <pt x="-204" y="-221" on="1"/>
        <pt x="-81" y="160" on="0"/>
        <pt x="114" y="443" on="1"/>
        <pt x="143" y="485" on="0"/>
        <pt x="169" y="518" on="1"/>
        <pt x="268" y="445" on="1"/>
        <pt x="148" y="280" on="0"/>
        <pt x="83" y="124" on="1"/>
        <pt x="157" y="146" on="0"/>
        <pt x="280" y="203" on="0"/>
        <pt x="337" y="232" on="1"/>
        <pt x="358" y="131" on="1"/>
        <pt x="268" y="72" on="0"/>
        <pt x="140" y="16" on="1"/>
        <pt x="96" y="-3" on="0"/>
        <pt x="52" y="-18" on="1"/>
      </contour>
    </TTGlyph>
    <TTGlyph name="jcircumflex" xMin="-204" yMin="-294" xMax="478" yMax="795">
      <component glyphName="dotlessj" x="0" y="0" flags="0x1204"/>
      <component glyphName="circumflex" x="9" y="0" flags="0x1004"/>
    </TTGlyph>
    <TTGlyph name="k" xMin="-86" yMin="-27" xMax="579" yMax="714">
      <contour>
        <pt x="579" y="131" on="1"/>
        <pt x="443" y="40" on="0"/>
        <pt x="300" y="-27" on="1"/>
        <pt x="175" y="61" on="1"/>
        <pt x="144" y="149" on="0"/>
        <pt x="134" y="231" on="1"/>
        <pt x="83" y="115" on="0"/>
        <pt x="33" y="-27" on="1"/>
        <pt x="-86" y="50" on="1"/>
        <pt x="1" y="284" on="0"/>
        <pt x="153" y="552" on="1"/>
        <pt x="201" y="636" on="0"/>
        <pt x="251" y="714" on="1"/>
        <pt x="354" y="637" on="1"/>
        <pt x="253" y="488" on="0"/>
        <pt x="165" y="301" on="1"/>
        <pt x="299" y="426" on="0"/>
        <pt x="443" y="529" on="1"/>
        <pt x="545" y="434" on="1"/>
        <pt x="361" y="317" on="0"/>
        <pt x="261" y="245" on="1"/>
        <pt x="278" y="197" on="0"/>
        <pt x="312" y="128" on="1"/>
        <pt x="439" y="171" on="0"/>
        <pt x="557" y="232" on="1"/>
      </contour>
    </TTGlyph>
    <TTGlyph name="kcommaaccent" xMin="-86" yMin="-293" xMax="579" yMax="714">
      <component glyphName="k" x="0" y="0" flags="0x1204"/>
      <component glyphName="commaaccent" x="41" y="-3" flags="0x1004"/>
    </TTGlyph>
    <TTGlyph name="kgreenlandic" xMin="-81" yMin="-27" xMax="579" yMax="568">
      <contour>
        <pt x="579" y="131" on="1"/>
        <pt x="443" y="40" on="0"/>
        <pt x="300" y="-27" on="1"/>
        <pt x="175" y="61" on="1"/>
        <pt x="142" y="157" on="0"/>
        <pt x="132" y="237" on="1"/>
        <pt x="92" y="146" on="0"/>
        <pt x="38" y="-27" on="1"/>
        <pt x="-81" y="50" on="1"/>
        <pt x="-23" y="245" on="0"/>
        <pt x="90" y="440" on="1"/>
        <pt x="128" y="506" on="0"/>
        <pt x="172" y="568" on="1"/>
        <pt x="282" y="491" on="1"/>
        <pt x="213" y="402" on="0"/>
        <pt x="160" y="296" on="1"/>
        <pt x="314" y="438" on="0"/>
        <pt x="443" y="529" on="1"/>
        <pt x="545" y="434" on="1"/>
        <pt x="361" y="317" on="0"/>
        <pt x="261" y="245" on="1"/>
        <pt x="278" y="197" on="0"/>
        <pt x="312" y="128" on="1"/>
        <pt x="439" y="171" on="0"/>
        <pt x="557" y="232" on="1"/>
      </contour>
    </TTGlyph>
    <TTGlyph name="l" xMin="-63" yMin="-27" xMax="518" yMax="756">
      <contour>
        <pt x="-63" y="88" on="1"/>
        <pt x="-20" y="243" on="0"/>
        <pt x="90" y="439" on="1"/>
        <pt x="163" y="569" on="0"/>
        <pt x="254" y="670" on="1"/>
        <pt x="300" y="721" on="0"/>
        <pt x="349" y="756" on="1"/>
        <pt x="518" y="637" on="1"/>
        <pt x="484" y="364" on="0"/>
        <pt x="270" y="252" on="1"/>
        <pt x="201" y="216" on="0"/>
        <pt x="116" y="195" on="1"/>
        <pt x="92" y="136" on="0"/>
        <pt x="79" y="94" on="1"/>
        <pt x="203" y="111" on="0"/>
        <pt x="272" y="132" on="1"/>
        <pt x="407" y="172" on="0"/>
        <pt x="497" y="232" on="1"/>
        <pt x="518" y="131" on="1"/>
        <pt x="371" y="29" on="0"/>
        <pt x="184" y="-11" on="1"/>
        <pt x="122" y="-24" on="0"/>
        <pt x="61" y="-27" on="1"/>
      </contour>
      <contour>
        <pt x="174" y="320" on="1"/>
        <pt x="265" y="363" on="0"/>
        <pt x="373" y="525" on="0"/>
        <pt x="391" y="634" on="1"/>
        <pt x="312" y="563" on="0"/>
        <pt x="222" y="408" on="1"/>
        <pt x="196" y="364" on="0"/>
      </contour>
    </TTGlyph>
    <TTGlyph name="ldot" xMin="-63" yMin="-27" xMax="491" yMax="736">
      <contour>
        <pt x="-63" y="88" on="1"/>
        <pt x="-28" y="218" on="0"/>
        <pt x="71" y="402" on="1"/>
        <pt x="182" y="607" on="0"/>
        <pt x="292" y="736" on="1"/>
        <pt x="394" y="661" on="1"/>
        <pt x="291" y="539" on="0"/>
        <pt x="194" y="357" on="1"/>
        <pt x="111" y="204" on="0"/>
        <pt x="83" y="97" on="1"/>
        <pt x="219" y="107" on="0"/>
        <pt x="368" y="176" on="1"/>
        <pt x="420" y="199" on="0"/>
        <pt x="470" y="232" on="1"/>
        <pt x="491" y="131" on="1"/>
        <pt x="343" y="28" on="0"/>
        <pt x="172" y="-11" on="1"/>
        <pt x="115" y="-24" on="0"/>
        <pt x="61" y="-27" on="1"/>
      </contour>
      <contour>
        <pt x="286" y="218" on="0"/>
        <pt x="238" y="266" on="0"/>
        <pt x="238" y="335" on="0"/>
        <pt x="286" y="383" on="0"/>
        <pt x="321" y="383" on="1"/>
        <pt x="356" y="383" on="0"/>
        <pt x="404" y="335" on="0"/>
        <pt x="404" y="266" on="0"/>
        <pt x="356" y="218" on="0"/>
        <pt x="321" y="218" on="1"/>
      </contour>
    </TTGlyph>
    <TTGlyph name="less" xMin="111" yMin="40" xMax="478" yMax="482">
      <contour>
        <pt x="277" y="40" on="1"/>
        <pt x="178" y="166" on="0"/>
        <pt x="111" y="294" on="1"/>
        <pt x="153" y="389" on="1"/>
        <pt x="248" y="436" on="0"/>
        <pt x="438" y="482" on="1"/>
        <pt x="478" y="381" on="1"/>
        <pt x="323" y="335" on="0"/>
        <pt x="251" y="298" on="1"/>
        <pt x="264" y="272" on="0"/>
        <pt x="296" y="218" on="0"/>
        <pt x="312" y="191" on="1"/>
        <pt x="350" y="127" on="0"/>
        <pt x="373" y="94" on="1"/>
      </contour>
    </TTGlyph>
    <TTGlyph name="logicalnot" xMin="55" yMin="66" xMax="479" yMax="424">
      <contour>
        <pt x="479" y="292" on="1"/>
        <pt x="417" y="137" on="0"/>
        <pt x="385" y="66" on="1"/>
        <pt x="269" y="117" on="1"/>
        <pt x="298" y="173" on="0"/>
        <pt x="321" y="226" on="1"/>
        <pt x="185" y="278" on="0"/>
        <pt x="55" y="310" on="1"/>
        <pt x="101" y="424" on="1"/>
        <pt x="293" y="374" on="0"/>
      </contour>
    </TTGlyph>
    <TTGlyph name="lslash" xMin="-63" yMin="-27" xMax="530" yMax="810">
      <contour>
        <pt x="255" y="703" on="1"/>
        <pt x="201" y="694" on="0"/>
        <pt x="141" y="673" on="1"/>
        <pt x="98" y="735" on="1"/>
        <pt x="193" y="792" on="0"/>
        <pt x="274" y="810" on="1"/>
        <pt x="412" y="735" on="0"/>
        <pt x="530" y="635" on="1"/>
        <pt x="487" y="550" on="1"/>
        <pt x="377" y="640" on="0"/>
      </contour>
      <contour>
        <pt x="-63" y="88" on="1"/>
        <pt x="-30" y="206" on="0"/>
        <pt x="55" y="362" on="1"/>
        <pt x="142" y="524" on="0"/>
        <pt x="250" y="655" on="1"/>
        <pt x="362" y="579" on="1"/>
        <pt x="263" y="457" on="0"/>
        <pt x="180" y="313" on="1"/>
        <pt x="107" y="185" on="0"/>
        <pt x="81" y="99" on="1"/>
        <pt x="222" y="110" on="0"/>
        <pt x="368" y="176" on="1"/>
        <pt x="420" y="199" on="0"/>
        <pt x="470" y="232" on="1"/>
        <pt x="491" y="131" on="1"/>
        <pt x="343" y="28" on="0"/>
        <pt x="172" y="-11" on="1"/>
        <pt x="115" y="-24" on="0"/>
        <pt x="61" y="-27" on="1"/>
      </contour>
    </TTGlyph>
    <TTGlyph name="m" xMin="-81" yMin="-27" xMax="943" yMax="527">
      <contour>
        <pt x="501" y="339" on="1"/>
        <pt x="582" y="404" on="0"/>
        <pt x="681" y="457" on="1"/>
        <pt x="802" y="362" on="1"/>
        <pt x="770" y="229" on="0"/>
        <pt x="696" y="133" on="1"/>
        <pt x="793" y="166" on="0"/>
        <pt x="922" y="232" on="1"/>
        <pt x="943" y="131" on="1"/>
        <pt x="902" y="104" on="0"/>
        <pt x="818" y="62" on="1"/>
        <pt x="674" y="-9" on="0"/>
        <pt x="619" y="-27" on="1"/>
        <pt x="495" y="61" on="1"/>
        <pt x="619" y="210" on="0"/>
        <pt x="641" y="303" on="1"/>
        <pt x="536" y="252" on="0"/>
        <pt x="443" y="185" on="1"/>
        <pt x="394" y="75" on="0"/>
        <pt x="322" y="-27" on="1"/>
        <pt x="207" y="52" on="1"/>
        <pt x="255" y="116" on="0"/>
        <pt x="288" y="176" on="1"/>
        <pt x="341" y="274" on="0"/>
        <pt x="353" y="330" on="1"/>
        <pt x="257" y="285" on="0"/>
        <pt x="176" y="228" on="1"/>
        <pt x="148" y="209" on="0"/>
        <pt x="117" y="187" on="1"/>
        <pt x="72" y="81" on="0"/>
        <pt x="38" y="-27" on="1"/>
        <pt x="-81" y="50" on="1"/>
        <pt x="-47" y="165" on="0"/>
        <pt x="25" y="309" on="1"/>
        <pt x="90" y="438" on="0"/>
        <pt x="161" y="527" on="1"/>
        <pt x="262" y="454" on="1"/>
        <pt x="226" y="405" on="0"/>
        <pt x="198" y="353" on="1"/>
        <pt x="289" y="428" on="0"/>
        <pt x="393" y="484" on="1"/>
        <pt x="514" y="389" on="1"/>
      </contour>
    </TTGlyph>
    <TTGlyph name="macron" xMin="61" yMin="608" xMax="434" yMax="834">
      <contour>
        <pt x="387" y="608" on="1"/>
        <pt x="234" y="677" on="0"/>
        <pt x="61" y="720" on="1"/>
        <pt x="103" y="834" on="1"/>
        <pt x="267" y="793" on="0"/>
        <pt x="434" y="720" on="1"/>
      </contour>
    </TTGlyph>
    <TTGlyph name="macron.cap" xMin="142" yMin="730" xMax="515" yMax="956">
      <contour>
        <pt x="468" y="730" on="1"/>
        <pt x="315" y="799" on="0"/>
        <pt x="142" y="842" on="1"/>
        <pt x="184" y="956" on="1"/>
        <pt x="348" y="915" on="0"/>
        <pt x="515" y="842" on="1"/>
      </contour>
    </TTGlyph>
    <TTGlyph name="minus" xMin="46" yMin="181" xMax="470" yMax="424">
      <component glyphName="hyphen" x="9" y="0" flags="0x1204"/>
    </TTGlyph>
    <TTGlyph name="mu" xMin="-95" yMin="-205" xMax="565" yMax="540">
      <contour>
        <pt x="399" y="133" on="1"/>
        <pt x="454" y="148" on="0"/>
        <pt x="537" y="185" on="1"/>
        <pt x="565" y="75" on="1"/>
        <pt x="432" y="-2" on="0"/>
        <pt x="364" y="-23" on="1"/>
        <pt x="284" y="66" on="1"/>
        <pt x="235" y="21" on="0"/>
        <pt x="168" y="-15" on="0"/>
        <pt x="140" y="-27" on="1"/>
        <pt x="82" y="22" on="1"/>
        <pt x="47" y="-80" on="0"/>
        <pt x="13" y="-205" on="1"/>
        <pt x="-95" y="-125" on="1"/>
        <pt x="-39" y="68" on="0"/>
        <pt x="12" y="186" on="1"/>
        <pt x="94" y="379" on="0"/>
        <pt x="194" y="540" on="1"/>
        <pt x="298" y="461" on="1"/>
        <pt x="187" y="289" on="0"/>
        <pt x="118" y="118" on="1"/>
        <pt x="227" y="146" on="0"/>
        <pt x="316" y="259" on="1"/>
        <pt x="386" y="401" on="0"/>
        <pt x="450" y="491" on="1"/>
        <pt x="556" y="408" on="1"/>
        <pt x="463" y="268" on="0"/>
        <pt x="403" y="135" on="1"/>
      </contour>
    </TTGlyph>
    <TTGlyph name="multiply" xMin="43" yMin="73" xMax="485" yMax="497">
      <contour>
        <pt x="237" y="205" on="1"/>
        <pt x="119" y="136" on="0"/>
        <pt x="102" y="126" on="1"/>
        <pt x="43" y="233" on="1"/>
        <pt x="111" y="276" on="0"/>
        <pt x="180" y="313" on="1"/>
        <pt x="147" y="378" on="0"/>
        <pt x="117" y="446" on="1"/>
        <pt x="225" y="497" on="1"/>
        <pt x="237" y="468" on="0"/>
        <pt x="253" y="436" on="1"/>
        <pt x="286" y="370" on="1"/>
        <pt x="411" y="433" on="0"/>
        <pt x="432" y="442" on="1"/>
        <pt x="485" y="335" on="1"/>
        <pt x="455" y="322" on="0"/>
        <pt x="344" y="263" on="1"/>
        <pt x="402" y="163" on="0"/>
        <pt x="426" y="130" on="1"/>
        <pt x="318" y="73" on="1"/>
        <pt x="287" y="118" on="0"/>
      </contour>
    </TTGlyph>
    <TTGlyph name="n" xMin="-81" yMin="-27" xMax="655" yMax="527">
      <contour>
        <pt x="195" y="348" on="1"/>
        <pt x="295" y="427" on="0"/>
        <pt x="402" y="484" on="1"/>
        <pt x="523" y="389" on="1"/>
        <pt x="490" y="247" on="0"/>
        <pt x="407" y="133" on="1"/>
        <pt x="507" y="167" on="0"/>
        <pt x="634" y="232" on="1"/>
        <pt x="655" y="131" on="1"/>
        <pt x="614" y="104" on="0"/>
        <pt x="530" y="62" on="1"/>
        <pt x="386" y="-9" on="0"/>
        <pt x="331" y="-27" on="1"/>
        <pt x="207" y="61" on="1"/>
        <pt x="267" y="133" on="0"/>
        <pt x="348" y="274" on="0"/>
        <pt x="360" y="327" on="1"/>
        <pt x="232" y="267" on="0"/>
        <pt x="116" y="187" on="1"/>
        <pt x="70" y="77" on="0"/>
        <pt x="38" y="-27" on="1"/>
        <pt x="-81" y="50" on="1"/>
        <pt x="-47" y="165" on="0"/>
        <pt x="25" y="309" on="1"/>
        <pt x="90" y="438" on="0"/>
        <pt x="161" y="527" on="1"/>
        <pt x="262" y="454" on="1"/>
        <pt x="227" y="407" on="0"/>
      </contour>
    </TTGlyph>
    <TTGlyph name="nacute" xMin="-81" yMin="-27" xMax="659" yMax="817">
      <component glyphName="n" x="0" y="0" flags="0x1204"/>
      <component glyphName="acute" x="259" y="0" flags="0x1004"/>
    </TTGlyph>
    <TTGlyph name="nine" xMin="11" yMin="-38" xMax="547" yMax="669">
      <contour>
        <pt x="11" y="58" on="1"/>
        <pt x="230" y="117" on="0"/>
        <pt x="317" y="240" on="1"/>
        <pt x="240" y="207" on="0"/>
        <pt x="139" y="218" on="1"/>
        <pt x="19" y="320" on="1"/>
        <pt x="43" y="466" on="0"/>
        <pt x="140" y="558" on="1"/>
        <pt x="236" y="649" on="0"/>
        <pt x="388" y="669" on="1"/>
        <pt x="547" y="547" on="1"/>
        <pt x="547" y="221" on="0"/>
        <pt x="326" y="58" on="1"/>
        <pt x="246" y="-1" on="0"/>
        <pt x="127" y="-38" on="1"/>
      </contour>
      <contour>
        <pt x="169" y="338" on="1"/>
        <pt x="178" y="337" on="0"/>
        <pt x="186" y="337" on="1"/>
        <pt x="204" y="337" on="1"/>
        <pt x="300" y="337" on="0"/>
        <pt x="375" y="362" on="1"/>
        <pt x="395" y="432" on="0"/>
        <pt x="404" y="549" on="1"/>
        <pt x="282" y="536" on="0"/>
        <pt x="206" y="422" on="1"/>
        <pt x="182" y="385" on="0"/>
      </contour>
    </TTGlyph>
    <TTGlyph name="nonbreakingspace" xMin="0" yMin="0" xMax="0" yMax="0">
      <component glyphName="space" x="0" y="0" flags="0x1204"/>
    </TTGlyph>
    <TTGlyph name="ntilde" xMin="-81" yMin="-27" xMax="655" yMax="756">
      <component glyphName="n" x="0" y="0" flags="0x1204"/>
      <component glyphName="tilde" x="148" y="0" flags="0x1004"/>
    </TTGlyph>
    <TTGlyph name="numbersign" xMin="37" yMin="22" xMax="598" yMax="641">
      <contour>
        <pt x="295" y="187" on="1"/>
        <pt x="266" y="199" on="0"/>
        <pt x="219" y="218" on="1"/>
        <pt x="174" y="94" on="1"/>
        <pt x="71" y="139" on="1"/>
        <pt x="116" y="256" on="1"/>
        <pt x="37" y="283" on="1"/>
        <pt x="78" y="380" on="1"/>
        <pt x="157" y="354" on="1"/>
        <pt x="195" y="438" on="1"/>
        <pt x="176" y="445" on="0"/>
        <pt x="138" y="457" on="0"/>
        <pt x="119" y="463" on="1"/>
        <pt x="159" y="562" on="1"/>
        <pt x="214" y="544" on="0"/>
        <pt x="242" y="533" on="1"/>
        <pt x="297" y="641" on="1"/>
        <pt x="395" y="595" on="1"/>
        <pt x="360" y="530" on="0"/>
        <pt x="343" y="496" on="1"/>
        <pt x="421" y="465" on="1"/>
        <pt x="474" y="566" on="1"/>
        <pt x="571" y="522" on="1"/>
        <pt x="519" y="422" on="1"/>
        <pt x="598" y="385" on="1"/>
        <pt x="553" y="289" on="1"/>
        <pt x="473" y="327" on="1"/>
        <pt x="463" y="306" on="0"/>
        <pt x="445" y="264" on="0"/>
        <pt x="436" y="243" on="1"/>
        <pt x="517" y="204" on="1"/>
        <pt x="472" y="107" on="1"/>
        <pt x="396" y="144" on="1"/>
        <pt x="360" y="50" on="0"/>
        <pt x="351" y="22" on="1"/>
        <pt x="248" y="65" on="1"/>
      </contour>
      <contour>
        <pt x="374" y="369" on="1"/>
        <pt x="296" y="401" on="1"/>
        <pt x="286" y="380" on="0"/>
        <pt x="268" y="338" on="0"/>
        <pt x="259" y="317" on="1"/>
        <pt x="336" y="286" on="1"/>
      </contour>
    </TTGlyph>
    <TTGlyph name="o" xMin="-34" yMin="-27" xMax="613" yMax="536">
      <contour>
        <pt x="361" y="113" on="1"/>
        <pt x="265" y="2" on="0"/>
        <pt x="108" y="-27" on="1"/>
        <pt x="-34" y="92" on="1"/>
        <pt x="-34" y="188" on="0"/>
        <pt x="4" y="282" on="1"/>
        <pt x="52" y="400" on="0"/>
        <pt x="162" y="473" on="1"/>
        <pt x="238" y="524" on="0"/>
        <pt x="327" y="536" on="1"/>
        <pt x="486" y="400" on="1"/>
        <pt x="469" y="292" on="0"/>
        <pt x="428" y="212" on="1"/>
        <pt x="500" y="216" on="0"/>
        <pt x="591" y="232" on="1"/>
        <pt x="613" y="131" on="1"/>
        <pt x="483" y="77" on="0"/>
        <pt x="409" y="58" on="1"/>
      </contour>
      <contour>
        <pt x="100" y="109" on="1"/>
        <pt x="214" y="135" on="0"/>
        <pt x="290" y="250" on="1"/>
        <pt x="322" y="299" on="0"/>
        <pt x="350" y="389" on="0"/>
        <pt x="351" y="416" on="1"/>
        <pt x="270" y="405" on="0"/>
        <pt x="197" y="330" on="1"/>
        <pt x="106" y="237" on="0"/>
      </contour>
    </TTGlyph>
    <TTGlyph name="oacute" xMin="-34" yMin="-27" xMax="731" yMax="817">
      <component glyphName="o" x="0" y="0" flags="0x1204"/>
      <component glyphName="acute" x="331" y="0" flags="0x1004"/>
    </TTGlyph>
    <TTGlyph name="ocircumflex" xMin="-34" yMin="-27" xMax="635" yMax="795">
      <component glyphName="o" x="0" y="0" flags="0x1204"/>
      <component glyphName="circumflex" x="166" y="0" flags="0x1004"/>
    </TTGlyph>
    <TTGlyph name="odieresis" xMin="-34" yMin="-27" xMax="688" yMax="784">
      <component glyphName="o" x="0" y="0" flags="0x1204"/>
      <component glyphName="dieresis" x="201" y="0" flags="0x1004"/>
    </TTGlyph>
    <TTGlyph name="oe" xMin="-34" yMin="-27" xMax="857" yMax="536">
      <contour>
        <pt x="289" y="62" on="1"/>
        <pt x="206" y="-1" on="0"/>
        <pt x="108" y="-27" on="1"/>
        <pt x="-34" y="92" on="1"/>
        <pt x="-34" y="188" on="0"/>
        <pt x="4" y="282" on="1"/>
        <pt x="52" y="400" on="0"/>
        <pt x="162" y="473" on="1"/>
        <pt x="238" y="524" on="0"/>
        <pt x="327" y="536" on="1"/>
        <pt x="436" y="442" on="1"/>
        <pt x="506" y="503" on="0"/>
        <pt x="591" y="531" on="1"/>
        <pt x="760" y="391" on="1"/>
        <pt x="735" y="287" on="0"/>
        <pt x="595" y="193" on="0"/>
        <pt x="498" y="193" on="1"/>
        <pt x="442" y="193" on="0"/>
        <pt x="415" y="200" on="1"/>
        <pt x="399" y="161" on="0"/>
        <pt x="395" y="103" on="1"/>
        <pt x="568" y="113" on="0"/>
        <pt x="731" y="180" on="1"/>
        <pt x="786" y="202" on="0"/>
        <pt x="835" y="232" on="1"/>
        <pt x="857" y="131" on="1"/>
        <pt x="764" y="72" on="0"/>
        <pt x="640" y="27" on="1"/>
        <pt x="507" y="-21" on="0"/>
        <pt x="386" y="-27" on="1"/>
      </contour>
      <contour>
        <pt x="457" y="290" on="1"/>
        <pt x="515" y="290" on="0"/>
        <pt x="562" y="322" on="1"/>
        <pt x="617" y="360" on="0"/>
        <pt x="617" y="428" on="1"/>
        <pt x="566" y="404" on="0"/>
        <pt x="480" y="331" on="0"/>
      </contour>
      <contour>
        <pt x="100" y="109" on="1"/>
        <pt x="214" y="135" on="0"/>
        <pt x="290" y="250" on="1"/>
        <pt x="322" y="299" on="0"/>
        <pt x="350" y="389" on="0"/>
        <pt x="351" y="416" on="1"/>
        <pt x="270" y="405" on="0"/>
        <pt x="197" y="330" on="1"/>
        <pt x="106" y="237" on="0"/>
      </contour>
    </TTGlyph>
    <TTGlyph name="ograve" xMin="-34" yMin="-27" xMax="613" yMax="859">
      <component glyphName="o" x="0" y="0" flags="0x1204"/>
      <component glyphName="grave" x="210" y="0" flags="0x1004"/>
    </TTGlyph>
    <TTGlyph name="one" xMin="22" yMin="-29" xMax="476" yMax="667">
      <contour>
        <pt x="90" y="552" on="1"/>
        <pt x="190" y="610" on="0"/>
        <pt x="359" y="667" on="1"/>
        <pt x="476" y="544" on="1"/>
        <pt x="271" y="252" on="0"/>
        <pt x="131" y="-29" on="1"/>
        <pt x="22" y="68" on="1"/>
        <pt x="133" y="279" on="0"/>
        <pt x="293" y="499" on="1"/>
        <pt x="223" y="471" on="0"/>
        <pt x="141" y="428" on="1"/>
      </contour>
    </TTGlyph>
    <TTGlyph name="onehalf" xMin="25" yMin="-91" xMax="792" yMax="795">
      <component glyphName="slash" x="44" y="0" flags="0x1004"/>
      <component glyphName="onesuperior" x="-8" y="0" flags="0x1004"/>
      <component glyphName="twosuperior" x="324" y="-449" flags="0x1004"/>
    </TTGlyph>
    <TTGlyph name="onequarter" xMin="25" yMin="-96" xMax="801" yMax="795">
      <contour>
        <pt x="95" y="707" on="1"/>
        <pt x="198" y="761" on="0"/>
        <pt x="293" y="795" on="1"/>
        <pt x="376" y="709" on="1"/>
        <pt x="259" y="543" on="0"/>
        <pt x="169" y="365" on="1"/>
        <pt x="75" y="449" on="1"/>
        <pt x="126" y="541" on="0"/>
        <pt x="208" y="659" on="1"/>
        <pt x="167" y="641" on="0"/>
        <pt x="129" y="621" on="1"/>
      </contour>
      <contour>
        <pt x="25" y="67" on="1"/>
        <pt x="270" y="330" on="0"/>
        <pt x="484" y="526" on="1"/>
        <pt x="560" y="597" on="0"/>
        <pt x="644" y="671" on="1"/>
        <pt x="703" y="603" on="1"/>
        <pt x="512" y="435" on="0"/>
        <pt x="417" y="340" on="1"/>
        <pt x="250" y="175" on="0"/>
        <pt x="92" y="-5" on="1"/>
      </contour>
      <contour>
        <pt x="524" y="168" on="1"/>
        <pt x="596" y="152" on="0"/>
        <pt x="600" y="151" on="1"/>
        <pt x="654" y="239" on="0"/>
        <pt x="725" y="329" on="1"/>
        <pt x="801" y="265" on="1"/>
        <pt x="754" y="203" on="0"/>
        <pt x="705" y="122" on="1"/>
        <pt x="766" y="101" on="1"/>
        <pt x="724" y="12" on="1"/>
        <pt x="707" y="17" on="0"/>
        <pt x="673" y="27" on="0"/>
        <pt x="655" y="32" on="1"/>
        <pt x="627" y="-21" on="0"/>
        <pt x="594" y="-96" on="1"/>
        <pt x="510" y="-21" on="1"/>
        <pt x="528" y="23" on="0"/>
        <pt x="547" y="60" on="1"/>
        <pt x="506" y="69" on="0"/>
        <pt x="412" y="87" on="1"/>
        <pt x="400" y="175" on="1"/>
        <pt x="475" y="282" on="0"/>
        <pt x="586" y="368" on="1"/>
        <pt x="662" y="303" on="1"/>
        <pt x="583" y="238" on="0"/>
      </contour>
    </TTGlyph>
    <TTGlyph name="onesuperior" xMin="84" yMin="365" xMax="385" yMax="795">
      <contour>
        <pt x="104" y="707" on="1"/>
        <pt x="207" y="761" on="0"/>
        <pt x="302" y="795" on="1"/>
        <pt x="385" y="709" on="1"/>
        <pt x="268" y="543" on="0"/>
        <pt x="178" y="365" on="1"/>
        <pt x="84" y="449" on="1"/>
        <pt x="135" y="541" on="0"/>
        <pt x="217" y="659" on="1"/>
        <pt x="176" y="641" on="0"/>
        <pt x="138" y="621" on="1"/>
      </contour>
    </TTGlyph>
    <TTGlyph name="ordfeminine" xMin="103" yMin="367" xMax="597" yMax="791">
      <contour>
        <pt x="333" y="434" on="1"/>
        <pt x="276" y="392" on="0"/>
        <pt x="198" y="368" on="1"/>
        <pt x="103" y="455" on="1"/>
        <pt x="103" y="583" on="0"/>
        <pt x="176" y="678" on="1"/>
        <pt x="255" y="780" on="0"/>
        <pt x="387" y="791" on="1"/>
        <pt x="436" y="716" on="1"/>
        <pt x="442" y="725" on="0"/>
        <pt x="476" y="764" on="1"/>
        <pt x="550" y="705" on="1"/>
        <pt x="474" y="604" on="0"/>
        <pt x="422" y="491" on="1"/>
        <pt x="473" y="507" on="0"/>
        <pt x="566" y="550" on="0"/>
        <pt x="580" y="558" on="1"/>
        <pt x="597" y="474" on="1"/>
        <pt x="547" y="438" on="0"/>
        <pt x="411" y="373" on="0"/>
        <pt x="393" y="367" on="1"/>
      </contour>
      <contour>
        <pt x="215" y="478" on="1"/>
        <pt x="296" y="499" on="0"/>
        <pt x="336" y="550" on="1"/>
        <pt x="370" y="596" on="0"/>
        <pt x="387" y="684" on="1"/>
        <pt x="260" y="658" on="0"/>
        <pt x="226" y="549" on="1"/>
        <pt x="216" y="515" on="0"/>
      </contour>
    </TTGlyph>
    <TTGlyph name="ordmasculine" xMin="121" yMin="368" xMax="523" yMax="791">
      <contour>
        <pt x="121" y="457" on="1"/>
        <pt x="121" y="524" on="0"/>
        <pt x="152" y="602" on="1"/>
        <pt x="191" y="696" on="0"/>
        <pt x="276" y="746" on="1"/>
        <pt x="337" y="781" on="0"/>
        <pt x="400" y="791" on="1"/>
        <pt x="523" y="688" on="1"/>
        <pt x="503" y="554" on="0"/>
        <pt x="424" y="467" on="1"/>
        <pt x="352" y="391" on="0"/>
        <pt x="229" y="368" on="1"/>
      </contour>
      <contour>
        <pt x="235" y="480" on="1"/>
        <pt x="307" y="497" on="0"/>
        <pt x="345" y="542" on="1"/>
        <pt x="384" y="589" on="0"/>
        <pt x="404" y="651" on="1"/>
        <pt x="410" y="672" on="0"/>
        <pt x="410" y="690" on="1"/>
        <pt x="375" y="688" on="0"/>
        <pt x="334" y="660" on="1"/>
        <pt x="298" y="635" on="0"/>
        <pt x="274" y="597" on="1"/>
        <pt x="240" y="547" on="0"/>
      </contour>
    </TTGlyph>
    <TTGlyph name="oslash" xMin="-77" yMin="-77" xMax="613" yMax="580">
      <contour>
        <pt x="-77" y="-22" on="1"/>
        <pt x="-1" y="64" on="1"/>
        <pt x="-34" y="92" on="1"/>
        <pt x="-34" y="188" on="0"/>
        <pt x="4" y="282" on="1"/>
        <pt x="52" y="400" on="0"/>
        <pt x="162" y="473" on="1"/>
        <pt x="238" y="524" on="0"/>
        <pt x="327" y="536" on="1"/>
        <pt x="376" y="494" on="1"/>
        <pt x="445" y="580" on="1"/>
        <pt x="511" y="526" on="1"/>
        <pt x="494" y="506" on="0"/>
        <pt x="440" y="439" on="1"/>
        <pt x="486" y="400" on="1"/>
        <pt x="469" y="292" on="0"/>
        <pt x="428" y="212" on="1"/>
        <pt x="500" y="216" on="0"/>
        <pt x="591" y="232" on="1"/>
        <pt x="613" y="131" on="1"/>
        <pt x="483" y="77" on="0"/>
        <pt x="409" y="58" on="1"/>
        <pt x="361" y="113" on="1"/>
        <pt x="265" y="2" on="0"/>
        <pt x="108" y="-27" on="1"/>
        <pt x="64" y="10" on="1"/>
        <pt x="-13" y="-77" on="1"/>
      </contour>
      <contour>
        <pt x="100" y="109" on="1"/>
        <pt x="214" y="135" on="0"/>
        <pt x="290" y="250" on="1"/>
        <pt x="322" y="299" on="0"/>
        <pt x="350" y="389" on="0"/>
        <pt x="351" y="416" on="1"/>
        <pt x="270" y="405" on="0"/>
        <pt x="197" y="330" on="1"/>
        <pt x="106" y="237" on="0"/>
      </contour>
    </TTGlyph>
    <TTGlyph name="otilde" xMin="-34" yMin="-27" xMax="682" yMax="756">
      <component glyphName="o" x="0" y="0" flags="0x1204"/>
      <component glyphName="tilde" x="193" y="0" flags="0x1004"/>
    </TTGlyph>
    <TTGlyph name="p" xMin="-194" yMin="-284" xMax="636" yMax="537">
      <contour>
        <pt x="199" y="364" on="1"/>
        <pt x="265" y="423" on="0"/>
        <pt x="374" y="484" on="1"/>
        <pt x="495" y="389" on="1"/>
        <pt x="487" y="309" on="0"/>
        <pt x="451" y="193" on="0"/>
        <pt x="410" y="151" on="1"/>
        <pt x="518" y="186" on="0"/>
        <pt x="615" y="232" on="1"/>
        <pt x="636" y="131" on="1"/>
        <pt x="509" y="60" on="0"/>
        <pt x="282" y="4" on="1"/>
        <pt x="212" y="-14" on="0"/>
        <pt x="141" y="-27" on="1"/>
        <pt x="48" y="58" on="1"/>
        <pt x="-38" y="-136" on="0"/>
        <pt x="-80" y="-284" on="1"/>
        <pt x="-194" y="-207" on="1"/>
        <pt x="-71" y="163" on="0"/>
        <pt x="151" y="537" on="1"/>
        <pt x="252" y="463" on="1"/>
      </contour>
      <contour>
        <pt x="60" y="85" on="1"/>
        <pt x="168" y="102" on="0"/>
        <pt x="218" y="122" on="1"/>
        <pt x="290" y="156" on="0"/>
        <pt x="332" y="266" on="1"/>
        <pt x="346" y="300" on="0"/>
        <pt x="351" y="336" on="1"/>
        <pt x="249" y="282" on="0"/>
        <pt x="164" y="220" on="1"/>
        <pt x="135" y="199" on="0"/>
        <pt x="102" y="174" on="1"/>
      </contour>
    </TTGlyph>
    <TTGlyph name="paragraph" xMin="94" yMin="-185" xMax="783" yMax="755">
      <contour>
        <pt x="783" y="466" on="1"/>
        <pt x="728" y="492" on="0"/>
        <pt x="650" y="524" on="1"/>
        <pt x="544" y="364" on="0"/>
        <pt x="345" y="16" on="0"/>
        <pt x="258" y="-185" on="1"/>
        <pt x="144" y="-83" on="1"/>
        <pt x="216" y="74" on="0"/>
        <pt x="310" y="240" on="1"/>
        <pt x="161" y="385" on="0"/>
        <pt x="94" y="594" on="1"/>
        <pt x="234" y="747" on="1"/>
        <pt x="310" y="755" on="0"/>
        <pt x="476" y="735" on="0"/>
        <pt x="534" y="718" on="1"/>
        <pt x="643" y="686" on="0"/>
        <pt x="779" y="604" on="1"/>
      </contour>
      <contour>
        <pt x="514" y="573" on="1"/>
        <pt x="396" y="607" on="0"/>
        <pt x="281" y="607" on="1"/>
        <pt x="264" y="607" on="1"/>
        <pt x="255" y="607" on="0"/>
        <pt x="246" y="606" on="1"/>
        <pt x="291" y="477" on="0"/>
        <pt x="386" y="368" on="1"/>
        <pt x="476" y="515" on="0"/>
      </contour>
    </TTGlyph>
    <TTGlyph name="parenleft" xMin="43" yMin="-173" xMax="581" yMax="756">
      <contour>
        <pt x="58" y="-100" on="1"/>
        <pt x="43" y="205" on="0"/>
        <pt x="139" y="402" on="1"/>
        <pt x="246" y="620" on="0"/>
        <pt x="508" y="756" on="1"/>
        <pt x="581" y="683" on="1"/>
        <pt x="458" y="615" on="0"/>
        <pt x="377" y="532" on="1"/>
        <pt x="220" y="371" on="0"/>
        <pt x="182" y="114" on="1"/>
        <pt x="164" y="-14" on="0"/>
        <pt x="166" y="-173" on="1"/>
      </contour>
    </TTGlyph>
    <TTGlyph name="parenright" xMin="-199" yMin="-218" xMax="339" yMax="711">
      <component glyphName="parenleft" x="382" y="538" scale="-0.999938964844" flags="0x1004"/>
    </TTGlyph>
    <TTGlyph name="percent" xMin="40" yMin="-22" xMax="735" yMax="666">
      <contour>
        <pt x="101" y="535" on="1"/>
        <pt x="101" y="590" on="0"/>
        <pt x="177" y="666" on="0"/>
        <pt x="233" y="666" on="1"/>
        <pt x="287" y="666" on="0"/>
        <pt x="363" y="590" on="0"/>
        <pt x="363" y="535" on="1"/>
        <pt x="363" y="479" on="0"/>
        <pt x="325" y="442" on="1"/>
        <pt x="285" y="404" on="0"/>
        <pt x="179" y="404" on="0"/>
        <pt x="101" y="479" on="0"/>
      </contour>
      <contour>
        <pt x="40" y="85" on="1"/>
        <pt x="208" y="249" on="0"/>
        <pt x="424" y="430" on="0"/>
        <pt x="584" y="548" on="0"/>
        <pt x="681" y="614" on="1"/>
        <pt x="735" y="546" on="1"/>
        <pt x="544" y="417" on="0"/>
        <pt x="333" y="243" on="0"/>
        <pt x="186" y="106" on="0"/>
        <pt x="103" y="22" on="1"/>
      </contour>
      <contour>
        <pt x="170" y="509" on="0"/>
        <pt x="206" y="473" on="0"/>
        <pt x="257" y="473" on="0"/>
        <pt x="293" y="509" on="0"/>
        <pt x="293" y="535" on="1"/>
        <pt x="293" y="561" on="0"/>
        <pt x="257" y="597" on="0"/>
        <pt x="206" y="597" on="0"/>
        <pt x="170" y="561" on="0"/>
        <pt x="170" y="535" on="1"/>
      </contour>
      <contour>
        <pt x="401" y="22" on="0"/>
        <pt x="360" y="121" on="0"/>
        <pt x="402" y="221" on="0"/>
        <pt x="503" y="264" on="0"/>
        <pt x="603" y="221" on="0"/>
        <pt x="644" y="121" on="0"/>
        <pt x="603" y="23" on="0"/>
        <pt x="503" y="-22" on="0"/>
      </contour>
      <contour>
        <pt x="458" y="77" on="1"/>
        <pt x="476" y="59" on="0"/>
        <pt x="527" y="59" on="0"/>
        <pt x="563" y="95" on="0"/>
        <pt x="563" y="121" on="1"/>
        <pt x="563" y="147" on="0"/>
        <pt x="527" y="183" on="0"/>
        <pt x="476" y="183" on="0"/>
        <pt x="440" y="147" on="0"/>
        <pt x="440" y="121" on="1"/>
        <pt x="440" y="95" on="0"/>
      </contour>
    </TTGlyph>
    <TTGlyph name="period" xMin="0" yMin="-100" xMax="186" yMax="103">
      <contour>
        <pt x="0" y="49" on="0"/>
        <pt x="54" y="103" on="0"/>
        <pt x="93" y="103" on="1"/>
        <pt x="132" y="103" on="0"/>
        <pt x="186" y="49" on="0"/>
        <pt x="186" y="10" on="1"/>
        <pt x="186" y="-50" on="0"/>
        <pt x="129" y="-76" on="1"/>
        <pt x="73" y="-100" on="0"/>
        <pt x="27" y="-56" on="1"/>
        <pt x="0" y="-30" on="0"/>
      </contour>
    </TTGlyph>
    <TTGlyph name="periodcentered" xMin="58" yMin="197" xMax="244" yMax="400">
      <component glyphName="period" x="58" y="297" flags="0x1004"/>
    </TTGlyph>
    <TTGlyph name="plus" xMin="58" yMin="100" xMax="481" yMax="518">
      <contour>
        <pt x="148" y="140" on="1"/>
        <pt x="164" y="193" on="0"/>
        <pt x="191" y="272" on="1"/>
        <pt x="126" y="293" on="0"/>
        <pt x="58" y="310" on="1"/>
        <pt x="103" y="424" on="1"/>
        <pt x="151" y="411" on="0"/>
        <pt x="233" y="385" on="1"/>
        <pt x="268" y="476" on="0"/>
        <pt x="288" y="518" on="1"/>
        <pt x="399" y="473" on="1"/>
        <pt x="376" y="421" on="0"/>
        <pt x="347" y="346" on="1"/>
        <pt x="457" y="303" on="0"/>
        <pt x="481" y="292" on="1"/>
        <pt x="436" y="181" on="1"/>
        <pt x="382" y="204" on="0"/>
        <pt x="305" y="233" on="1"/>
        <pt x="274" y="141" on="0"/>
        <pt x="263" y="100" on="1"/>
      </contour>
    </TTGlyph>
    <TTGlyph name="plusminus" xMin="-23" yMin="-71" xMax="503" yMax="572">
      <component glyphName="plus" x="22" y="54" flags="0x1204"/>
      <component glyphName="hyphen" x="-60" y="-252" flags="0x1004"/>
    </TTGlyph>
    <TTGlyph name="q" xMin="-34" yMin="-284" xMax="643" yMax="530">
      <contour>
        <pt x="175" y="3" on="1"/>
        <pt x="137" y="-14" on="0"/>
        <pt x="90" y="-27" on="1"/>
        <pt x="-34" y="88" on="1"/>
        <pt x="-34" y="167" on="0"/>
        <pt x="14" y="319" on="0"/>
        <pt x="108" y="441" on="0"/>
        <pt x="247" y="522" on="0"/>
        <pt x="338" y="530" on="1"/>
        <pt x="404" y="429" on="1"/>
        <pt x="416" y="448" on="0"/>
        <pt x="455" y="495" on="1"/>
        <pt x="553" y="411" on="1"/>
        <pt x="454" y="282" on="0"/>
        <pt x="389" y="135" on="1"/>
        <pt x="386" y="133" on="1"/>
        <pt x="444" y="148" on="0"/>
        <pt x="600" y="221" on="0"/>
        <pt x="621" y="232" on="1"/>
        <pt x="643" y="131" on="1"/>
        <pt x="584" y="88" on="0"/>
        <pt x="447" y="20" on="1"/>
        <pt x="393" y="-7" on="0"/>
        <pt x="349" y="-23" on="1"/>
        <pt x="318" y="11" on="1"/>
        <pt x="248" y="-150" on="0"/>
        <pt x="206" y="-284" on="1"/>
        <pt x="92" y="-207" on="1"/>
        <pt x="130" y="-98" on="0"/>
      </contour>
      <contour>
        <pt x="106" y="117" on="1"/>
        <pt x="213" y="146" on="0"/>
        <pt x="301" y="259" on="1"/>
        <pt x="327" y="316" on="0"/>
        <pt x="340" y="401" on="1"/>
        <pt x="237" y="391" on="0"/>
        <pt x="171" y="310" on="1"/>
        <pt x="106" y="230" on="0"/>
      </contour>
    </TTGlyph>
    <TTGlyph name="question" xMin="9" yMin="-100" xMax="587" yMax="740">
      <contour>
        <pt x="116" y="643" on="1"/>
        <pt x="330" y="740" on="0"/>
        <pt x="497" y="701" on="1"/>
        <pt x="587" y="562" on="1"/>
        <pt x="575" y="448" on="0"/>
        <pt x="500" y="372" on="1"/>
        <pt x="467" y="339" on="0"/>
        <pt x="390" y="287" on="0"/>
        <pt x="316" y="236" on="0"/>
        <pt x="253" y="176" on="0"/>
        <pt x="235" y="135" on="1"/>
        <pt x="117" y="222" on="1"/>
        <pt x="146" y="289" on="0"/>
        <pt x="226" y="348" on="1"/>
        <pt x="260" y="372" on="0"/>
        <pt x="330" y="416" on="0"/>
        <pt x="360" y="440" on="1"/>
        <pt x="427" y="496" on="0"/>
        <pt x="439" y="571" on="1"/>
        <pt x="331" y="586" on="0"/>
        <pt x="156" y="517" on="1"/>
      </contour>
      <contour>
        <pt x="9" y="49" on="0"/>
        <pt x="63" y="103" on="0"/>
        <pt x="102" y="103" on="1"/>
        <pt x="141" y="103" on="0"/>
        <pt x="195" y="49" on="0"/>
        <pt x="195" y="10" on="1"/>
        <pt x="195" y="-50" on="0"/>
        <pt x="138" y="-76" on="1"/>
        <pt x="82" y="-100" on="0"/>
        <pt x="36" y="-56" on="1"/>
        <pt x="9" y="-30" on="0"/>
      </contour>
    </TTGlyph>
    <TTGlyph name="questiondown" xMin="-8" yMin="-89" xMax="570" yMax="751">
      <component glyphName="question" x="579" y="651" scale="-0.999938964844" flags="0x1004"/>
    </TTGlyph>
    <TTGlyph name="quotedbl" xMin="66" yMin="407" xMax="574" yMax="726">
      <component glyphName="quotesingle" x="0" y="0" flags="0x1004"/>
      <component glyphName="quotesingle" x="243" y="0" flags="0x1004"/>
    </TTGlyph>
    <TTGlyph name="quotedblbase" xMin="-84" yMin="-217" xMax="431" yMax="102">
      <component glyphName="quotesinglbase" x="0" y="0" flags="0x1004"/>
      <component glyphName="quotesinglbase" x="243" y="0" flags="0x1004"/>
    </TTGlyph>
    <TTGlyph name="quotedblleft" xMin="81" yMin="411" xMax="596" yMax="730">
      <component glyphName="quoteleft" x="0" y="0" flags="0x1004"/>
      <component glyphName="quoteleft" x="243" y="0" flags="0x1004"/>
    </TTGlyph>
    <TTGlyph name="quotedblright" xMin="71" yMin="413" xMax="586" yMax="732">
      <component glyphName="quoteright" x="0" y="0" flags="0x1004"/>
      <component glyphName="quoteright" x="243" y="0" flags="0x1004"/>
    </TTGlyph>
    <TTGlyph name="quoteleft" xMin="81" yMin="411" xMax="353" yMax="730">
      <contour>
        <pt x="353" y="670" on="1"/>
        <pt x="272" y="548" on="0"/>
        <pt x="206" y="411" on="1"/>
        <pt x="81" y="490" on="1"/>
        <pt x="161" y="612" on="0"/>
        <pt x="257" y="730" on="1"/>
      </contour>
    </TTGlyph>
    <TTGlyph name="quoteright" xMin="71" yMin="413" xMax="343" yMax="732">
      <contour>
        <pt x="343" y="653" on="1"/>
        <pt x="263" y="531" on="0"/>
        <pt x="167" y="413" on="1"/>
        <pt x="71" y="473" on="1"/>
        <pt x="152" y="596" on="0"/>
        <pt x="218" y="732" on="1"/>
      </contour>
    </TTGlyph>
    <TTGlyph name="quotesinglbase" xMin="-84" yMin="-217" xMax="188" yMax="102">
      <contour>
        <pt x="-84" y="-157" on="1"/>
        <pt x="-3" y="-34" on="0"/>
        <pt x="63" y="102" on="1"/>
        <pt x="188" y="23" on="1"/>
        <pt x="108" y="-99" on="0"/>
        <pt x="12" y="-217" on="1"/>
      </contour>
    </TTGlyph>
    <TTGlyph name="quotesingle" xMin="66" yMin="407" xMax="331" yMax="726">
      <contour>
        <pt x="66" y="465" on="1"/>
        <pt x="163" y="624" on="0"/>
        <pt x="217" y="726" on="1"/>
        <pt x="331" y="662" on="1"/>
        <pt x="270" y="554" on="0"/>
        <pt x="195" y="442" on="0"/>
        <pt x="172" y="407" on="1"/>
      </contour>
    </TTGlyph>
    <TTGlyph name="r" xMin="-68" yMin="-27" xMax="611" yMax="583">
      <contour>
        <pt x="38" y="448" on="1"/>
        <pt x="86" y="513" on="0"/>
        <pt x="158" y="583" on="1"/>
        <pt x="251" y="511" on="1"/>
        <pt x="240" y="465" on="0"/>
        <pt x="232" y="444" on="1"/>
        <pt x="361" y="458" on="0"/>
        <pt x="475" y="486" on="0"/>
        <pt x="517" y="497" on="1"/>
        <pt x="545" y="378" on="1"/>
        <pt x="504" y="366" on="0"/>
        <pt x="459" y="357" on="1"/>
        <pt x="390" y="248" on="0"/>
        <pt x="344" y="126" on="1"/>
        <pt x="510" y="183" on="0"/>
        <pt x="589" y="232" on="1"/>
        <pt x="611" y="131" on="1"/>
        <pt x="519" y="71" on="0"/>
        <pt x="370" y="8" on="1"/>
        <pt x="322" y="-12" on="0"/>
        <pt x="278" y="-27" on="1"/>
        <pt x="172" y="79" on="1"/>
        <pt x="237" y="228" on="0"/>
        <pt x="311" y="336" on="1"/>
        <pt x="241" y="330" on="0"/>
        <pt x="187" y="328" on="1"/>
        <pt x="171" y="298" on="0"/>
        <pt x="101" y="178" on="1"/>
        <pt x="27" y="131" on="1"/>
        <pt x="-68" y="187" on="1"/>
        <pt x="15" y="277" on="0"/>
        <pt x="73" y="349" on="0"/>
        <pt x="94" y="375" on="1"/>
        <pt x="65" y="407" on="0"/>
      </contour>
    </TTGlyph>
    <TTGlyph name="rcaron" xMin="-68" yMin="-27" xMax="624" yMax="857">
      <component glyphName="r" x="0" y="0" flags="0x1204"/>
      <component glyphName="caron" x="155" y="0" flags="0x1004"/>
    </TTGlyph>
    <TTGlyph name="rcommaaccent" xMin="-95" yMin="-248" xMax="611" yMax="583">
      <component glyphName="r" x="0" y="0" flags="0x1204"/>
      <component glyphName="commaaccent" x="-40" y="42" flags="0x1004"/>
    </TTGlyph>
    <TTGlyph name="registered" xMin="85" yMin="-172" xMax="1063" yMax="783">
      <contour>
        <pt x="190" y="-44" on="1"/>
        <pt x="85" y="74" on="0"/>
        <pt x="85" y="246" on="1"/>
        <pt x="85" y="330" on="0"/>
        <pt x="138" y="495" on="0"/>
        <pt x="190" y="564" on="1"/>
        <pt x="308" y="520" on="1"/>
        <pt x="263" y="463" on="0"/>
        <pt x="211" y="311" on="0"/>
        <pt x="211" y="176" on="0"/>
        <pt x="246" y="69" on="0"/>
        <pt x="282" y="28" on="1"/>
        <pt x="363" y="-61" on="0"/>
        <pt x="510" y="-61" on="1"/>
        <pt x="588" y="-61" on="0"/>
        <pt x="741" y="8" on="0"/>
        <pt x="864" y="128" on="0"/>
        <pt x="940" y="290" on="0"/>
        <pt x="940" y="384" on="1"/>
        <pt x="940" y="506" on="0"/>
        <pt x="855" y="582" on="1"/>
        <pt x="725" y="699" on="0"/>
        <pt x="472" y="637" on="1"/>
        <pt x="385" y="616" on="0"/>
        <pt x="310" y="580" on="1"/>
        <pt x="275" y="678" on="1"/>
        <pt x="387" y="741" on="0"/>
        <pt x="543" y="762" on="1"/>
        <pt x="694" y="783" on="0"/>
        <pt x="812" y="740" on="1"/>
        <pt x="970" y="683" on="0"/>
        <pt x="1032" y="541" on="1"/>
        <pt x="1063" y="471" on="0"/>
        <pt x="1063" y="389" on="1"/>
        <pt x="1063" y="268" on="0"/>
        <pt x="968" y="63" on="0"/>
        <pt x="812" y="-87" on="0"/>
        <pt x="613" y="-172" on="0"/>
        <pt x="402" y="-172" on="0"/>
        <pt x="243" y="-102" on="0"/>
      </contour>
      <contour>
        <pt x="842" y="381" on="1"/>
        <pt x="772" y="284" on="0"/>
        <pt x="614" y="220" on="1"/>
        <pt x="703" y="91" on="1"/>
        <pt x="588" y="23" on="1"/>
        <pt x="476" y="226" on="1"/>
        <pt x="424" y="135" on="0"/>
        <pt x="380" y="31" on="1"/>
        <pt x="287" y="116" on="1"/>
        <pt x="337" y="226" on="0"/>
        <pt x="374" y="287" on="1"/>
        <pt x="439" y="395" on="0"/>
        <pt x="501" y="469" on="1"/>
        <pt x="452" y="476" on="0"/>
        <pt x="424" y="476" on="1"/>
        <pt x="459" y="577" on="1"/>
        <pt x="656" y="568" on="0"/>
        <pt x="785" y="510" on="1"/>
      </contour>
      <contour>
        <pt x="510" y="284" on="1"/>
        <pt x="599" y="320" on="0"/>
        <pt x="674" y="374" on="1"/>
        <pt x="698" y="391" on="0"/>
        <pt x="717" y="409" on="1"/>
        <pt x="644" y="444" on="0"/>
        <pt x="540" y="463" on="1"/>
        <pt x="602" y="412" on="1"/>
        <pt x="557" y="354" on="0"/>
      </contour>
    </TTGlyph>
    <TTGlyph name="ring" xMin="93" yMin="555" xMax="327" yMax="789">
      <contour>
        <pt x="161" y="555" on="0"/>
        <pt x="93" y="623" on="0"/>
        <pt x="93" y="722" on="0"/>
        <pt x="160" y="789" on="0"/>
        <pt x="211" y="789" on="1"/>
        <pt x="259" y="789" on="0"/>
        <pt x="327" y="721" on="0"/>
        <pt x="327" y="671" on="1"/>
        <pt x="327" y="623" on="0"/>
        <pt x="259" y="555" on="0"/>
      </contour>
      <contour>
        <pt x="162" y="652" on="0"/>
        <pt x="190" y="625" on="0"/>
        <pt x="229" y="625" on="0"/>
        <pt x="256" y="652" on="0"/>
        <pt x="256" y="691" on="0"/>
        <pt x="229" y="719" on="0"/>
        <pt x="190" y="719" on="0"/>
        <pt x="162" y="691" on="0"/>
      </contour>
    </TTGlyph>
    <TTGlyph name="ring.cap" xMin="154" yMin="636" xMax="388" yMax="870">
      <contour>
        <pt x="222" y="636" on="0"/>
        <pt x="154" y="704" on="0"/>
        <pt x="154" y="803" on="0"/>
        <pt x="221" y="870" on="0"/>
        <pt x="272" y="870" on="1"/>
        <pt x="322" y="870" on="0"/>
        <pt x="354" y="836" on="1"/>
        <pt x="388" y="801" on="0"/>
        <pt x="388" y="752" on="1"/>
        <pt x="388" y="705" on="0"/>
        <pt x="354" y="670" on="1"/>
        <pt x="322" y="636" on="0"/>
      </contour>
      <contour>
        <pt x="223" y="733" on="0"/>
        <pt x="251" y="706" on="0"/>
        <pt x="290" y="706" on="0"/>
        <pt x="318" y="733" on="0"/>
        <pt x="318" y="772" on="0"/>
        <pt x="290" y="800" on="0"/>
        <pt x="251" y="800" on="0"/>
        <pt x="223" y="772" on="0"/>
      </contour>
    </TTGlyph>
    <TTGlyph name="s" xMin="-98" yMin="-35" xMax="607" yMax="544">
      <contour>
        <pt x="135" y="-35" on="1"/>
        <pt x="63" y="13" on="0"/>
        <pt x="9" y="56" on="1"/>
        <pt x="-40" y="99" on="0"/>
        <pt x="-98" y="159" on="1"/>
        <pt x="5" y="232" on="1"/>
        <pt x="75" y="159" on="0"/>
        <pt x="141" y="110" on="0"/>
        <pt x="167" y="93" on="1"/>
        <pt x="195" y="96" on="0"/>
        <pt x="258" y="112" on="1"/>
        <pt x="92" y="269" on="1"/>
        <pt x="69" y="293" on="0"/>
        <pt x="56" y="312" on="1"/>
        <pt x="94" y="380" on="0"/>
        <pt x="187" y="453" on="1"/>
        <pt x="274" y="521" on="0"/>
        <pt x="353" y="544" on="1"/>
        <pt x="513" y="415" on="1"/>
        <pt x="496" y="347" on="0"/>
        <pt x="433" y="235" on="1"/>
        <pt x="326" y="315" on="1"/>
        <pt x="347" y="346" on="0"/>
        <pt x="379" y="418" on="0"/>
        <pt x="382" y="430" on="1"/>
        <pt x="326" y="409" on="0"/>
        <pt x="267" y="354" on="1"/>
        <pt x="246" y="334" on="0"/>
        <pt x="229" y="313" on="1"/>
        <pt x="248" y="284" on="0"/>
        <pt x="287" y="252" on="1"/>
        <pt x="353" y="195" on="0"/>
        <pt x="398" y="154" on="1"/>
        <pt x="509" y="192" on="0"/>
        <pt x="586" y="232" on="1"/>
        <pt x="607" y="131" on="1"/>
        <pt x="527" y="74" on="0"/>
        <pt x="382" y="25" on="1"/>
        <pt x="248" y="-20" on="0"/>
      </contour>
    </TTGlyph>
    <TTGlyph name="section" xMin="-14" yMin="-211" xMax="640" yMax="778">
      <contour>
        <pt x="598" y="299" on="1"/>
        <pt x="524" y="180" on="0"/>
        <pt x="397" y="91" on="1"/>
        <pt x="424" y="13" on="1"/>
        <pt x="372" y="-71" on="0"/>
        <pt x="181" y="-184" on="0"/>
        <pt x="58" y="-211" on="1"/>
        <pt x="-14" y="-90" on="1"/>
        <pt x="195" y="-46" on="0"/>
        <pt x="262" y="34" on="1"/>
        <pt x="51" y="162" on="1"/>
        <pt x="20" y="182" on="0"/>
        <pt x="1" y="199" on="1"/>
        <pt x="37" y="287" on="0"/>
        <pt x="108" y="359" on="1"/>
        <pt x="173" y="425" on="0"/>
        <pt x="244" y="457" on="1"/>
        <pt x="209" y="479" on="0"/>
        <pt x="188" y="499" on="1"/>
        <pt x="254" y="614" on="0"/>
        <pt x="449" y="751" on="0"/>
        <pt x="559" y="778" on="1"/>
        <pt x="640" y="668" on="1"/>
        <pt x="551" y="654" on="0"/>
        <pt x="421" y="578" on="0"/>
        <pt x="382" y="524" on="1"/>
        <pt x="560" y="419" on="1"/>
      </contour>
      <contour>
        <pt x="458" y="329" on="1"/>
        <pt x="407" y="362" on="0"/>
        <pt x="357" y="390" on="1"/>
        <pt x="309" y="372" on="0"/>
        <pt x="218" y="289" on="0"/>
        <pt x="189" y="239" on="1"/>
        <pt x="206" y="229" on="0"/>
        <pt x="292" y="168" on="1"/>
        <pt x="396" y="234" on="0"/>
      </contour>
    </TTGlyph>
    <TTGlyph name="semicolon" xMin="-77" yMin="-223" xMax="361" yMax="468">
      <component glyphName="period" x="175" y="365" flags="0x1004"/>
      <component glyphName="comma" x="11" y="0" flags="0x1004"/>
    </TTGlyph>
    <TTGlyph name="seven" xMin="-9" yMin="-29" xMax="582" yMax="665">
      <contour>
        <pt x="-9" y="87" on="1"/>
        <pt x="120" y="263" on="0"/>
        <pt x="279" y="399" on="1"/>
        <pt x="333" y="445" on="0"/>
        <pt x="395" y="495" on="1"/>
        <pt x="244" y="523" on="0"/>
        <pt x="85" y="529" on="1"/>
        <pt x="149" y="665" on="1"/>
        <pt x="317" y="659" on="0"/>
        <pt x="431" y="634" on="1"/>
        <pt x="476" y="625" on="0"/>
        <pt x="523" y="613" on="1"/>
        <pt x="582" y="489" on="1"/>
        <pt x="366" y="317" on="0"/>
        <pt x="213" y="121" on="1"/>
        <pt x="160" y="53" on="0"/>
        <pt x="102" y="-29" on="1"/>
      </contour>
    </TTGlyph>
    <TTGlyph name="six" xMin="-5" yMin="-28" xMax="543" yMax="688">
      <contour>
        <pt x="223" y="401" on="1"/>
        <pt x="301" y="432" on="0"/>
        <pt x="380" y="424" on="1"/>
        <pt x="390" y="423" on="0"/>
        <pt x="403" y="422" on="1"/>
        <pt x="523" y="321" on="1"/>
        <pt x="499" y="177" on="0"/>
        <pt x="402" y="84" on="1"/>
        <pt x="306" y="-8" on="0"/>
        <pt x="156" y="-28" on="1"/>
        <pt x="-5" y="102" on="1"/>
        <pt x="1" y="215" on="0"/>
        <pt x="48" y="399" on="0"/>
        <pt x="98" y="471" on="1"/>
        <pt x="201" y="617" on="0"/>
        <pt x="429" y="688" on="1"/>
        <pt x="543" y="593" on="1"/>
        <pt x="418" y="559" on="0"/>
        <pt x="266" y="464" on="0"/>
      </contour>
      <contour>
        <pt x="139" y="100" on="1"/>
        <pt x="220" y="108" on="0"/>
        <pt x="282" y="160" on="1"/>
        <pt x="348" y="217" on="0"/>
        <pt x="373" y="310" on="1"/>
        <pt x="364" y="311" on="0"/>
        <pt x="356" y="311" on="1"/>
        <pt x="338" y="311" on="1"/>
        <pt x="254" y="311" on="0"/>
        <pt x="167" y="282" on="1"/>
        <pt x="145" y="206" on="0"/>
      </contour>
    </TTGlyph>
    <TTGlyph name="slash" xMin="-19" yMin="-5" xMax="659" yMax="671">
      <contour>
        <pt x="-19" y="67" on="1"/>
        <pt x="226" y="330" on="0"/>
        <pt x="440" y="526" on="1"/>
        <pt x="516" y="597" on="0"/>
        <pt x="600" y="671" on="1"/>
        <pt x="659" y="603" on="1"/>
        <pt x="468" y="435" on="0"/>
        <pt x="373" y="340" on="1"/>
        <pt x="206" y="175" on="0"/>
        <pt x="48" y="-5" on="1"/>
      </contour>
    </TTGlyph>
    <TTGlyph name="sterling" xMin="-48" yMin="-41" xMax="624" yMax="670">
      <contour>
        <pt x="197" y="140" on="1"/>
        <pt x="303" y="107" on="0"/>
        <pt x="443" y="82" on="1"/>
        <pt x="404" y="-41" on="1"/>
        <pt x="267" y="-21" on="0"/>
        <pt x="192" y="2" on="1"/>
        <pt x="73" y="38" on="0"/>
        <pt x="-48" y="91" on="1"/>
        <pt x="9" y="212" on="1"/>
        <pt x="89" y="177" on="0"/>
        <pt x="167" y="150" on="1"/>
        <pt x="75" y="218" on="1"/>
        <pt x="108" y="289" on="0"/>
        <pt x="137" y="338" on="1"/>
        <pt x="107" y="354" on="0"/>
        <pt x="79" y="370" on="1"/>
        <pt x="127" y="457" on="1"/>
        <pt x="188" y="424" on="1"/>
        <pt x="196" y="438" on="0"/>
        <pt x="214" y="466" on="0"/>
        <pt x="223" y="480" on="1"/>
        <pt x="307" y="608" on="0"/>
        <pt x="427" y="670" on="1"/>
        <pt x="624" y="544" on="1"/>
        <pt x="596" y="438" on="0"/>
        <pt x="553" y="364" on="1"/>
        <pt x="436" y="427" on="1"/>
        <pt x="477" y="491" on="0"/>
        <pt x="496" y="566" on="1"/>
        <pt x="424" y="512" on="0"/>
        <pt x="352" y="418" on="1"/>
        <pt x="342" y="404" on="0"/>
        <pt x="315" y="364" on="1"/>
        <pt x="367" y="342" on="0"/>
        <pt x="436" y="317" on="1"/>
        <pt x="399" y="225" on="1"/>
        <pt x="350" y="241" on="0"/>
        <pt x="266" y="277" on="1"/>
        <pt x="261" y="267" on="0"/>
      </contour>
    </TTGlyph>
    <TTGlyph name="t" xMin="-63" yMin="-27" xMax="473" yMax="632">
      <contour>
        <pt x="249" y="442" on="1"/>
        <pt x="342" y="452" on="0"/>
        <pt x="386" y="464" on="1"/>
        <pt x="409" y="356" on="1"/>
        <pt x="321" y="334" on="0"/>
        <pt x="185" y="330" on="1"/>
        <pt x="124" y="210" on="0"/>
        <pt x="94" y="112" on="1"/>
        <pt x="175" y="126" on="0"/>
        <pt x="359" y="179" on="0"/>
        <pt x="452" y="232" on="1"/>
        <pt x="473" y="131" on="1"/>
        <pt x="382" y="68" on="0"/>
        <pt x="265" y="23" on="1"/>
        <pt x="150" y="-21" on="0"/>
        <pt x="61" y="-27" on="1"/>
        <pt x="-63" y="88" on="1"/>
        <pt x="-4" y="284" on="0"/>
        <pt x="138" y="501" on="1"/>
        <pt x="182" y="569" on="0"/>
        <pt x="232" y="632" on="1"/>
        <pt x="321" y="550" on="1"/>
        <pt x="282" y="496" on="0"/>
      </contour>
    </TTGlyph>
    <TTGlyph name="thorn" xMin="-194" yMin="-284" xMax="637" yMax="714">
      <contour>
        <pt x="184" y="351" on="1"/>
        <pt x="268" y="425" on="0"/>
        <pt x="375" y="484" on="1"/>
        <pt x="496" y="389" on="1"/>
        <pt x="488" y="309" on="0"/>
        <pt x="452" y="193" on="0"/>
        <pt x="411" y="151" on="1"/>
        <pt x="524" y="189" on="0"/>
        <pt x="616" y="232" on="1"/>
        <pt x="637" y="131" on="1"/>
        <pt x="510" y="60" on="0"/>
        <pt x="283" y="4" on="1"/>
        <pt x="213" y="-14" on="0"/>
        <pt x="142" y="-27" on="1"/>
        <pt x="45" y="62" on="1"/>
        <pt x="2" y="-39" on="0"/>
        <pt x="-59" y="-223" on="0"/>
        <pt x="-79" y="-284" on="1"/>
        <pt x="-194" y="-207" on="1"/>
        <pt x="-12" y="305" on="0"/>
        <pt x="259" y="714" on="1"/>
        <pt x="363" y="637" on="1"/>
        <pt x="273" y="505" on="0"/>
        <pt x="200" y="379" on="0"/>
      </contour>
      <contour>
        <pt x="54" y="83" on="1"/>
        <pt x="111" y="92" on="0"/>
        <pt x="209" y="117" on="0"/>
        <pt x="240" y="132" on="0"/>
        <pt x="284" y="174" on="0"/>
        <pt x="302" y="202" on="1"/>
        <pt x="342" y="266" on="0"/>
        <pt x="352" y="336" on="1"/>
        <pt x="241" y="278" on="0"/>
        <pt x="91" y="165" on="1"/>
      </contour>
    </TTGlyph>
    <TTGlyph name="three" xMin="-57" yMin="-17" xMax="584" yMax="673">
      <contour>
        <pt x="467" y="127" on="1"/>
        <pt x="335" y="-17" on="0"/>
        <pt x="136" y="-17" on="1"/>
        <pt x="50" y="-17" on="0"/>
        <pt x="-40" y="12" on="1"/>
        <pt x="-57" y="148" on="1"/>
        <pt x="45" y="120" on="0"/>
        <pt x="176" y="120" on="0"/>
        <pt x="277" y="148" on="0"/>
        <pt x="318" y="183" on="1"/>
        <pt x="251" y="228" on="0"/>
        <pt x="134" y="276" on="1"/>
        <pt x="101" y="289" on="0"/>
        <pt x="73" y="297" on="1"/>
        <pt x="130" y="412" on="1"/>
        <pt x="320" y="412" on="0"/>
        <pt x="449" y="488" on="1"/>
        <pt x="341" y="546" on="0"/>
        <pt x="198" y="539" on="1"/>
        <pt x="179" y="538" on="0"/>
        <pt x="160" y="537" on="1"/>
        <pt x="221" y="660" on="1"/>
        <pt x="329" y="673" on="0"/>
        <pt x="414" y="646" on="1"/>
        <pt x="472" y="627" on="0"/>
        <pt x="526" y="597" on="1"/>
        <pt x="584" y="432" on="1"/>
        <pt x="472" y="358" on="0"/>
        <pt x="376" y="332" on="1"/>
        <pt x="343" y="323" on="0"/>
        <pt x="309" y="317" on="1"/>
        <pt x="374" y="286" on="0"/>
        <pt x="421" y="253" on="1"/>
      </contour>
    </TTGlyph>
    <TTGlyph name="threequarters" xMin="63" yMin="-96" xMax="922" yMax="796">
      <contour>
        <pt x="410" y="456" on="1"/>
        <pt x="302" y="339" on="0"/>
        <pt x="137" y="363" on="1"/>
        <pt x="110" y="367" on="0"/>
        <pt x="83" y="376" on="1"/>
        <pt x="63" y="476" on="1"/>
        <pt x="211" y="437" on="0"/>
        <pt x="284" y="496" on="1"/>
        <pt x="221" y="535" on="0"/>
        <pt x="147" y="558" on="1"/>
        <pt x="191" y="636" on="1"/>
        <pt x="300" y="636" on="0"/>
        <pt x="366" y="683" on="1"/>
        <pt x="292" y="710" on="0"/>
        <pt x="200" y="702" on="1"/>
        <pt x="245" y="794" on="1"/>
        <pt x="255" y="796" on="0"/>
        <pt x="266" y="796" on="1"/>
        <pt x="289" y="796" on="1"/>
        <pt x="384" y="796" on="0"/>
        <pt x="455" y="756" on="1"/>
        <pt x="486" y="648" on="1"/>
        <pt x="412" y="586" on="0"/>
        <pt x="334" y="565" on="1"/>
        <pt x="354" y="557" on="0"/>
        <pt x="383" y="541" on="1"/>
      </contour>
      <contour>
        <pt x="142" y="67" on="1"/>
        <pt x="387" y="330" on="0"/>
        <pt x="600" y="526" on="1"/>
        <pt x="677" y="597" on="0"/>
        <pt x="761" y="671" on="1"/>
        <pt x="820" y="603" on="1"/>
        <pt x="629" y="435" on="0"/>
        <pt x="534" y="340" on="1"/>
        <pt x="367" y="175" on="0"/>
        <pt x="209" y="-5" on="1"/>
      </contour>
      <contour>
        <pt x="646" y="167" on="1"/>
        <pt x="682" y="161" on="0"/>
        <pt x="722" y="151" on="1"/>
        <pt x="776" y="239" on="0"/>
        <pt x="847" y="329" on="1"/>
        <pt x="922" y="265" on="1"/>
        <pt x="875" y="203" on="0"/>
        <pt x="826" y="122" on="1"/>
        <pt x="887" y="101" on="1"/>
        <pt x="846" y="12" on="1"/>
        <pt x="776" y="33" on="1"/>
        <pt x="750" y="-16" on="0"/>
        <pt x="715" y="-96" on="1"/>
        <pt x="632" y="-21" on="1"/>
        <pt x="650" y="23" on="0"/>
        <pt x="669" y="60" on="1"/>
        <pt x="628" y="69" on="0"/>
        <pt x="534" y="87" on="1"/>
        <pt x="521" y="175" on="1"/>
        <pt x="600" y="285" on="0"/>
        <pt x="707" y="368" on="1"/>
        <pt x="784" y="303" on="1"/>
        <pt x="708" y="241" on="0"/>
      </contour>
    </TTGlyph>
    <TTGlyph name="threesuperior" xMin="45" yMin="339" xMax="468" yMax="796">
      <contour>
        <pt x="392" y="456" on="1"/>
        <pt x="284" y="339" on="0"/>
        <pt x="119" y="363" on="1"/>
        <pt x="92" y="367" on="0"/>
        <pt x="65" y="376" on="1"/>
        <pt x="45" y="476" on="1"/>
        <pt x="193" y="437" on="0"/>
        <pt x="266" y="496" on="1"/>
        <pt x="203" y="535" on="0"/>
        <pt x="129" y="558" on="1"/>
        <pt x="173" y="636" on="1"/>
        <pt x="282" y="636" on="0"/>
        <pt x="348" y="683" on="1"/>
        <pt x="274" y="710" on="0"/>
        <pt x="182" y="702" on="1"/>
        <pt x="227" y="794" on="1"/>
        <pt x="237" y="796" on="0"/>
        <pt x="248" y="796" on="1"/>
        <pt x="271" y="796" on="1"/>
        <pt x="366" y="796" on="0"/>
        <pt x="437" y="756" on="1"/>
        <pt x="468" y="648" on="1"/>
        <pt x="394" y="586" on="0"/>
        <pt x="316" y="565" on="1"/>
        <pt x="336" y="557" on="0"/>
        <pt x="365" y="541" on="1"/>
      </contour>
    </TTGlyph>
    <TTGlyph name="tilde" xMin="88" yMin="525" xMax="489" yMax="756">
      <contour>
        <pt x="489" y="549" on="1"/>
        <pt x="411" y="525" on="0"/>
        <pt x="349" y="525" on="1"/>
        <pt x="325" y="532" on="0"/>
        <pt x="281" y="567" on="0"/>
        <pt x="238" y="606" on="0"/>
        <pt x="198" y="639" on="0"/>
        <pt x="179" y="643" on="1"/>
        <pt x="98" y="637" on="1"/>
        <pt x="88" y="732" on="1"/>
        <pt x="125" y="744" on="0"/>
        <pt x="212" y="756" on="0"/>
        <pt x="226" y="756" on="1"/>
        <pt x="250" y="749" on="0"/>
        <pt x="295" y="713" on="0"/>
        <pt x="338" y="674" on="0"/>
        <pt x="378" y="641" on="0"/>
        <pt x="397" y="637" on="1"/>
        <pt x="477" y="643" on="1"/>
      </contour>
    </TTGlyph>
    <TTGlyph name="tilde.cap" xMin="145" yMin="661" xMax="545" yMax="893">
      <contour>
        <pt x="406" y="661" on="1"/>
        <pt x="382" y="668" on="0"/>
        <pt x="335" y="703" on="0"/>
        <pt x="291" y="742" on="0"/>
        <pt x="252" y="775" on="0"/>
        <pt x="236" y="779" on="1"/>
        <pt x="155" y="774" on="1"/>
        <pt x="145" y="868" on="1"/>
        <pt x="187" y="882" on="0"/>
        <pt x="269" y="893" on="0"/>
        <pt x="283" y="893" on="1"/>
        <pt x="317" y="883" on="0"/>
        <pt x="376" y="830" on="1"/>
        <pt x="398" y="811" on="0"/>
        <pt x="438" y="778" on="0"/>
        <pt x="454" y="774" on="1"/>
        <pt x="534" y="779" on="1"/>
        <pt x="545" y="686" on="1"/>
        <pt x="503" y="672" on="0"/>
        <pt x="419" y="661" on="0"/>
      </contour>
    </TTGlyph>
    <TTGlyph name="trademark" xMin="104" yMin="305" xMax="943" yMax="766">
      <contour>
        <pt x="104" y="418" on="1"/>
        <pt x="136" y="498" on="0"/>
        <pt x="207" y="612" on="0"/>
        <pt x="241" y="659" on="1"/>
        <pt x="197" y="670" on="0"/>
        <pt x="150" y="679" on="1"/>
        <pt x="198" y="766" on="1"/>
        <pt x="320" y="749" on="0"/>
        <pt x="474" y="698" on="1"/>
        <pt x="431" y="600" on="1"/>
        <pt x="328" y="636" on="0"/>
        <pt x="270" y="651" on="1"/>
        <pt x="326" y="604" on="1"/>
        <pt x="262" y="518" on="0"/>
        <pt x="218" y="420" on="1"/>
        <pt x="203" y="386" on="0"/>
        <pt x="186" y="344" on="1"/>
      </contour>
      <contour>
        <pt x="671" y="499" on="1"/>
        <pt x="759" y="603" on="0"/>
        <pt x="844" y="727" on="1"/>
        <pt x="943" y="643" on="1"/>
        <pt x="897" y="483" on="0"/>
        <pt x="847" y="358" on="0"/>
        <pt x="824" y="305" on="1"/>
        <pt x="743" y="371" on="1"/>
        <pt x="791" y="474" on="0"/>
        <pt x="817" y="551" on="1"/>
        <pt x="735" y="444" on="0"/>
        <pt x="640" y="329" on="1"/>
        <pt x="567" y="391" on="1"/>
        <pt x="587" y="511" on="0"/>
        <pt x="609" y="601" on="1"/>
        <pt x="540" y="497" on="0"/>
        <pt x="469" y="345" on="1"/>
        <pt x="391" y="417" on="1"/>
        <pt x="484" y="607" on="0"/>
        <pt x="612" y="758" on="1"/>
        <pt x="714" y="668" on="1"/>
        <pt x="686" y="579" on="0"/>
      </contour>
    </TTGlyph>
    <TTGlyph name="two" xMin="-45" yMin="-27" xMax="589" yMax="664">
      <contour>
        <pt x="99" y="161" on="1"/>
        <pt x="211" y="122" on="0"/>
        <pt x="424" y="99" on="1"/>
        <pt x="366" y="-27" on="1"/>
        <pt x="184" y="-5" on="0"/>
        <pt x="46" y="33" on="0"/>
        <pt x="10" y="47" on="1"/>
        <pt x="-45" y="226" on="1"/>
        <pt x="17" y="285" on="0"/>
        <pt x="127" y="330" on="1"/>
        <pt x="310" y="401" on="1"/>
        <pt x="407" y="442" on="0"/>
        <pt x="452" y="495" on="1"/>
        <pt x="406" y="519" on="0"/>
        <pt x="373" y="527" on="1"/>
        <pt x="273" y="550" on="0"/>
        <pt x="157" y="533" on="1"/>
        <pt x="216" y="654" on="1"/>
        <pt x="242" y="664" on="0"/>
        <pt x="328" y="664" on="0"/>
        <pt x="393" y="654" on="0"/>
        <pt x="424" y="646" on="1"/>
        <pt x="490" y="628" on="0"/>
        <pt x="533" y="599" on="1"/>
        <pt x="589" y="444" on="1"/>
        <pt x="532" y="352" on="0"/>
        <pt x="440" y="304" on="1"/>
        <pt x="399" y="282" on="0"/>
        <pt x="313" y="253" on="0"/>
        <pt x="269" y="239" on="1"/>
        <pt x="162" y="205" on="0"/>
      </contour>
    </TTGlyph>
    <TTGlyph name="twosuperior" xMin="64" yMin="358" xMax="468" yMax="807">
      <contour>
        <pt x="338" y="688" on="1"/>
        <pt x="265" y="709" on="0"/>
        <pt x="183" y="702" on="1"/>
        <pt x="227" y="793" on="1"/>
        <pt x="339" y="807" on="0"/>
        <pt x="435" y="760" on="1"/>
        <pt x="468" y="655" on="1"/>
        <pt x="415" y="589" on="0"/>
        <pt x="341" y="553" on="1"/>
        <pt x="310" y="538" on="0"/>
        <pt x="250" y="513" on="0"/>
        <pt x="219" y="494" on="1"/>
        <pt x="283" y="473" on="0"/>
        <pt x="377" y="461" on="1"/>
        <pt x="328" y="358" on="1"/>
        <pt x="248" y="366" on="0"/>
        <pt x="146" y="399" on="1"/>
        <pt x="118" y="408" on="0"/>
        <pt x="96" y="417" on="1"/>
        <pt x="64" y="525" on="1"/>
        <pt x="118" y="570" on="0"/>
        <pt x="213" y="616" on="1"/>
        <pt x="249" y="634" on="0"/>
        <pt x="313" y="667" on="0"/>
      </contour>
    </TTGlyph>
    <TTGlyph name="u" xMin="-50" yMin="-27" xMax="626" yMax="540">
      <contour>
        <pt x="245" y="75" on="1"/>
        <pt x="182" y="15" on="0"/>
        <pt x="83" y="-27" on="1"/>
        <pt x="-50" y="88" on="1"/>
        <pt x="-36" y="201" on="0"/>
        <pt x="76" y="421" on="0"/>
        <pt x="164" y="540" on="1"/>
        <pt x="267" y="461" on="1"/>
        <pt x="127" y="272" on="0"/>
        <pt x="90" y="117" on="1"/>
        <pt x="91" y="117" on="0"/>
        <pt x="126" y="128" on="0"/>
        <pt x="154" y="144" on="1"/>
        <pt x="225" y="184" on="0"/>
        <pt x="285" y="259" on="1"/>
        <pt x="355" y="401" on="0"/>
        <pt x="419" y="491" on="1"/>
        <pt x="526" y="408" on="1"/>
        <pt x="432" y="270" on="0"/>
        <pt x="373" y="135" on="1"/>
        <pt x="369" y="133" on="1"/>
        <pt x="433" y="150" on="0"/>
        <pt x="584" y="220" on="0"/>
        <pt x="605" y="232" on="1"/>
        <pt x="626" y="131" on="1"/>
        <pt x="564" y="86" on="0"/>
        <pt x="431" y="20" on="1"/>
        <pt x="377" y="-7" on="0"/>
        <pt x="333" y="-23" on="1"/>
      </contour>
    </TTGlyph>
    <TTGlyph name="uacute" xMin="-50" yMin="-27" xMax="626" yMax="817">
      <component glyphName="u" x="0" y="0" flags="0x1204"/>
      <component glyphName="acute" x="220" y="0" flags="0x1004"/>
    </TTGlyph>
    <TTGlyph name="ucircumflex" xMin="-50" yMin="-27" xMax="626" yMax="795">
      <component glyphName="u" x="0" y="0" flags="0x1204"/>
      <component glyphName="circumflex" x="137" y="0" flags="0x1004"/>
    </TTGlyph>
    <TTGlyph name="udieresis" xMin="-50" yMin="-27" xMax="645" yMax="784">
      <component glyphName="u" x="0" y="0" flags="0x1204"/>
      <component glyphName="dieresis" x="158" y="0" flags="0x1004"/>
    </TTGlyph>
    <TTGlyph name="ugrave" xMin="-50" yMin="-27" xMax="626" yMax="859">
      <component glyphName="u" x="0" y="0" flags="0x1204"/>
      <component glyphName="grave" x="108" y="0" flags="0x1004"/>
    </TTGlyph>
    <TTGlyph name="underscore" xMin="-91" yMin="-200" xMax="626" yMax="-106">
      <contour>
        <pt x="626" y="-106" on="1"/>
        <pt x="626" y="-200" on="1"/>
        <pt x="-91" y="-200" on="1"/>
        <pt x="-91" y="-106" on="1"/>
      </contour>
    </TTGlyph>
    <TTGlyph name="v" xMin="-47" yMin="-27" xMax="624" yMax="535">
      <contour>
        <pt x="278" y="103" on="1"/>
        <pt x="181" y="17" on="0"/>
        <pt x="86" y="-27" on="1"/>
        <pt x="-47" y="88" on="1"/>
        <pt x="-29" y="192" on="0"/>
        <pt x="2" y="270" on="1"/>
        <pt x="51" y="397" on="0"/>
        <pt x="127" y="535" on="1"/>
        <pt x="237" y="460" on="1"/>
        <pt x="179" y="357" on="0"/>
        <pt x="155" y="294" on="1"/>
        <pt x="119" y="199" on="0"/>
        <pt x="103" y="126" on="1"/>
        <pt x="197" y="169" on="0"/>
        <pt x="344" y="382" on="1"/>
        <pt x="388" y="445" on="0"/>
        <pt x="427" y="513" on="1"/>
        <pt x="542" y="438" on="1"/>
        <pt x="454" y="292" on="0"/>
        <pt x="358" y="184" on="1"/>
        <pt x="417" y="187" on="0"/>
        <pt x="573" y="223" on="0"/>
        <pt x="602" y="232" on="1"/>
        <pt x="624" y="131" on="1"/>
        <pt x="538" y="85" on="0"/>
        <pt x="402" y="46" on="1"/>
        <pt x="365" y="36" on="0"/>
        <pt x="339" y="31" on="1"/>
      </contour>
    </TTGlyph>
    <TTGlyph name="w" xMin="-41" yMin="-27" xMax="939" yMax="535">
      <contour>
        <pt x="280" y="119" on="1"/>
        <pt x="192" y="33" on="0"/>
        <pt x="84" y="-18" on="1"/>
        <pt x="-41" y="88" on="1"/>
        <pt x="-20" y="195" on="0"/>
        <pt x="9" y="272" on="1"/>
        <pt x="56" y="395" on="0"/>
        <pt x="133" y="535" on="1"/>
        <pt x="243" y="460" on="1"/>
        <pt x="185" y="357" on="0"/>
        <pt x="161" y="294" on="1"/>
        <pt x="125" y="199" on="0"/>
        <pt x="109" y="126" on="1"/>
        <pt x="175" y="156" on="0"/>
        <pt x="274" y="274" on="1"/>
        <pt x="374" y="392" on="0"/>
        <pt x="451" y="526" on="1"/>
        <pt x="561" y="451" on="1"/>
        <pt x="466" y="284" on="0"/>
        <pt x="436" y="193" on="1"/>
        <pt x="425" y="158" on="0"/>
        <pt x="418" y="126" on="1"/>
        <pt x="512" y="169" on="0"/>
        <pt x="660" y="382" on="1"/>
        <pt x="703" y="445" on="0"/>
        <pt x="742" y="513" on="1"/>
        <pt x="857" y="438" on="1"/>
        <pt x="769" y="292" on="0"/>
        <pt x="673" y="184" on="1"/>
        <pt x="732" y="187" on="0"/>
        <pt x="888" y="223" on="0"/>
        <pt x="917" y="232" on="1"/>
        <pt x="939" y="131" on="1"/>
        <pt x="853" y="85" on="0"/>
        <pt x="717" y="46" on="1"/>
        <pt x="680" y="36" on="0"/>
        <pt x="654" y="31" on="1"/>
        <pt x="653" y="31" on="0"/>
        <pt x="596" y="97" on="0"/>
        <pt x="592" y="102" on="1"/>
        <pt x="503" y="21" on="0"/>
        <pt x="401" y="-27" on="1"/>
        <pt x="271" y="70" on="1"/>
      </contour>
    </TTGlyph>
    <TTGlyph name="x" xMin="-68" yMin="-27" xMax="607" yMax="534">
      <contour>
        <pt x="44" y="-9" on="1"/>
        <pt x="-11" y="58" on="0"/>
        <pt x="-68" y="158" on="1"/>
        <pt x="5" y="232" on="1"/>
        <pt x="26" y="195" on="0"/>
        <pt x="43" y="173" on="1"/>
        <pt x="90" y="222" on="0"/>
        <pt x="125" y="249" on="1"/>
        <pt x="90" y="353" on="0"/>
        <pt x="76" y="476" on="1"/>
        <pt x="201" y="534" on="1"/>
        <pt x="217" y="415" on="0"/>
        <pt x="240" y="342" on="1"/>
        <pt x="290" y="389" on="0"/>
        <pt x="389" y="475" on="0"/>
        <pt x="452" y="518" on="1"/>
        <pt x="565" y="441" on="1"/>
        <pt x="450" y="359" on="0"/>
        <pt x="284" y="218" on="1"/>
        <pt x="301" y="174" on="0"/>
        <pt x="322" y="137" on="1"/>
        <pt x="445" y="173" on="0"/>
        <pt x="550" y="216" on="0"/>
        <pt x="586" y="232" on="1"/>
        <pt x="607" y="131" on="1"/>
        <pt x="437" y="37" on="0"/>
        <pt x="256" y="-27" on="1"/>
        <pt x="206" y="58" on="0"/>
        <pt x="175" y="126" on="1"/>
        <pt x="141" y="94" on="0"/>
        <pt x="81" y="29" on="0"/>
      </contour>
    </TTGlyph>
    <TTGlyph name="y" xMin="-146" yMin="-294" xMax="633" yMax="540">
      <contour>
        <pt x="384" y="147" on="1"/>
        <pt x="546" y="194" on="0"/>
        <pt x="611" y="232" on="1"/>
        <pt x="633" y="131" on="1"/>
        <pt x="553" y="71" on="0"/>
        <pt x="454" y="22" on="1"/>
        <pt x="419" y="4" on="0"/>
        <pt x="393" y="-5" on="1"/>
        <pt x="344" y="49" on="1"/>
        <pt x="316" y="-78" on="0"/>
        <pt x="278" y="-154" on="1"/>
        <pt x="242" y="-224" on="0"/>
        <pt x="176" y="-294" on="1"/>
        <pt x="66" y="-291" on="0"/>
        <pt x="-65" y="-259" on="1"/>
        <pt x="-106" y="-249" on="0"/>
        <pt x="-140" y="-237" on="1"/>
        <pt x="-146" y="-72" on="1"/>
        <pt x="-79" y="-13" on="0"/>
        <pt x="3" y="28" on="1"/>
        <pt x="-55" y="70" on="1"/>
        <pt x="-46" y="202" on="0"/>
        <pt x="82" y="410" on="1"/>
        <pt x="122" y="475" on="0"/>
        <pt x="170" y="540" on="1"/>
        <pt x="274" y="461" on="1"/>
        <pt x="99" y="215" on="0"/>
        <pt x="85" y="99" on="1"/>
        <pt x="138" y="107" on="0"/>
        <pt x="170" y="124" on="1"/>
        <pt x="234" y="158" on="0"/>
        <pt x="272" y="223" on="1"/>
        <pt x="358" y="395" on="0"/>
        <pt x="426" y="491" on="1"/>
        <pt x="532" y="408" on="1"/>
        <pt x="434" y="258" on="0"/>
      </contour>
      <contour>
        <pt x="-45" y="-145" on="1"/>
        <pt x="47" y="-166" on="0"/>
        <pt x="107" y="-168" on="1"/>
        <pt x="172" y="-113" on="0"/>
        <pt x="209" y="5" on="1"/>
        <pt x="46" y="-61" on="0"/>
      </contour>
    </TTGlyph>
    <TTGlyph name="yacute" xMin="-146" yMin="-294" xMax="633" yMax="817">
      <component glyphName="y" x="0" y="0" flags="0x1204"/>
      <component glyphName="acute" x="221" y="0" flags="0x1004"/>
    </TTGlyph>
    <TTGlyph name="ydieresis" xMin="-146" yMin="-294" xMax="641" yMax="784">
      <component glyphName="y" x="0" y="0" flags="0x1204"/>
      <component glyphName="dieresis" x="154" y="0" flags="0x1004"/>
    </TTGlyph>
    <TTGlyph name="yen" xMin="-5" yMin="-42" xMax="651" yMax="682">
      <contour>
        <pt x="291" y="16" on="1"/>
        <pt x="258" y="30" on="0"/>
        <pt x="215" y="53" on="1"/>
        <pt x="196" y="8" on="0"/>
        <pt x="179" y="-42" on="1"/>
        <pt x="56" y="56" on="1"/>
        <pt x="88" y="128" on="1"/>
        <pt x="32" y="164" on="0"/>
        <pt x="-5" y="193" on="1"/>
        <pt x="38" y="255" on="1"/>
        <pt x="71" y="229" on="0"/>
        <pt x="122" y="197" on="1"/>
        <pt x="130" y="214" on="0"/>
        <pt x="143" y="237" on="1"/>
        <pt x="95" y="269" on="0"/>
        <pt x="61" y="295" on="1"/>
        <pt x="104" y="356" on="1"/>
        <pt x="175" y="307" on="1"/>
        <pt x="180" y="530" on="0"/>
        <pt x="222" y="682" on="1"/>
        <pt x="337" y="572" on="1"/>
        <pt x="314" y="484" on="0"/>
        <pt x="305" y="367" on="1"/>
        <pt x="371" y="415" on="0"/>
        <pt x="409" y="449" on="1"/>
        <pt x="475" y="508" on="0"/>
        <pt x="551" y="586" on="1"/>
        <pt x="651" y="495" on="1"/>
        <pt x="561" y="402" on="0"/>
        <pt x="508" y="361" on="1"/>
        <pt x="412" y="285" on="0"/>
        <pt x="311" y="224" on="1"/>
        <pt x="357" y="198" on="0"/>
        <pt x="394" y="181" on="1"/>
        <pt x="357" y="117" on="1"/>
        <pt x="319" y="132" on="0"/>
        <pt x="265" y="163" on="1"/>
        <pt x="245" y="123" on="1"/>
        <pt x="288" y="97" on="0"/>
        <pt x="328" y="79" on="1"/>
      </contour>
    </TTGlyph>
    <TTGlyph name="z" xMin="-86" yMin="-27" xMax="536" yMax="522">
      <contour>
        <pt x="56" y="117" on="1"/>
        <pt x="317" y="133" on="0"/>
        <pt x="515" y="232" on="1"/>
        <pt x="536" y="131" on="1"/>
        <pt x="442" y="72" on="0"/>
        <pt x="300" y="26" on="1"/>
        <pt x="149" y="-21" on="0"/>
        <pt x="34" y="-27" on="1"/>
        <pt x="-86" y="84" on="1"/>
        <pt x="-68" y="167" on="0"/>
        <pt x="-53" y="201" on="1"/>
        <pt x="139" y="303" on="0"/>
        <pt x="256" y="373" on="1"/>
        <pt x="182" y="401" on="0"/>
        <pt x="22" y="382" on="1"/>
        <pt x="102" y="517" on="1"/>
        <pt x="125" y="522" on="0"/>
        <pt x="154" y="522" on="1"/>
        <pt x="214" y="522" on="0"/>
        <pt x="313" y="475" on="0"/>
        <pt x="364" y="440" on="1"/>
        <pt x="419" y="477" on="1"/>
        <pt x="473" y="373" on="1"/>
        <pt x="342" y="280" on="0"/>
        <pt x="128" y="156" on="0"/>
      </contour>
    </TTGlyph>
    <TTGlyph name="zero" xMin="-25" yMin="-36" xMax="614" yMax="674">
      <contour>
        <pt x="46" y="61" on="1"/>
        <pt x="-25" y="325" on="0"/>
        <pt x="119" y="504" on="1"/>
        <pt x="216" y="624" on="0"/>
        <pt x="389" y="674" on="1"/>
        <pt x="560" y="575" on="1"/>
        <pt x="614" y="305" on="0"/>
        <pt x="488" y="144" on="1"/>
        <pt x="401" y="31" on="0"/>
        <pt x="217" y="-36" on="1"/>
      </contour>
      <contour>
        <pt x="173" y="103" on="1"/>
        <pt x="295" y="145" on="0"/>
        <pt x="364" y="226" on="1"/>
        <pt x="449" y="327" on="0"/>
        <pt x="430" y="486" on="1"/>
        <pt x="427" y="511" on="0"/>
        <pt x="422" y="539" on="1"/>
        <pt x="302" y="501" on="0"/>
        <pt x="234" y="412" on="1"/>
        <pt x="156" y="311" on="0"/>
        <pt x="166" y="148" on="1"/>
        <pt x="168" y="126" on="0"/>
      </contour>
    </TTGlyph>
</ttFont>
